{"asset":{"generator":"Khronos glTF Spline I/O v0.0.1","version":"2.0"},"scenes":[{"nodes":[0]}],"nodes":[{"name":"","children":[1,2],"matrix":[0.01,0,0,0,0,0.01,0,0,0,0,0.01,0,0,0,0,1]},{"name":"","camera":0,"translation":[-20.50038127328331,36.38242786847019,1073.8853314726973],"rotation":[-3.1974423109205356e-17,0,0,1]},{"name":"Group","matrix":[1,0,0,0,0,2.220446049250313e-16,1,0,0,-1,2.220446049250313e-16,0,5.038919449977158,28.35911942639997,22.352177048760552,1],"children":[3,4,5]},{"name":"Cube","matrix":[0.8677054444776108,5.551115123125783e-17,-0.4970787277926023,0,-0.49707872779260226,1.1102230246251565e-16,-0.8677054444776108,0,0,1,2.220446049250313e-16,0,-0.1707484862403951,1.0536710393083125e-14,17.738282637054173,1],"mesh":0},{"name":"Cube 2","matrix":[0.9854787931541051,-4.163336342344338e-17,0.16979855194767876,0,0.16979855194767873,3.3306690738754696e-16,-0.9854787931541049,0,1.3877787807814463e-17,0.9999999999999998,3.330669073875469e-16,0,28.378978360722215,1.4210854715202e-14,-106.990023185775,1],"mesh":1},{"name":"Cube 3","matrix":[0.5135823153499892,-1.6653345369377348e-16,0.8580403285159413,0,0.8580403285159413,-8.491545627397626e-33,-0.5135823153499894,0,0,1.0000000000000002,0,0,-42.196446226859415,4.996003610813203e-15,-5.116292045559313,1],"mesh":2}],"cameras":[{"type":"orthographic","orthographic":{"xmag":1904,"ymag":993,"zfar":100000,"znear":-100000}}],"meshes":[{"primitives":[{"attributes":{"POSITION":1,"NORMAL":2,"TEXCOORD_0":3},"indices":0}]},{"primitives":[{"attributes":{"POSITION":5,"NORMAL":6,"TEXCOORD_0":7},"indices":4}]},{"primitives":[{"attributes":{"POSITION":9,"NORMAL":10,"TEXCOORD_0":11},"indices":8}]}],"buffers":[{"uri":"data:application/octet-stream;base64,","byteLength":134344},{"uri":"data:application/octet-stream;base64,","byteLength":134344},{"uri":"data:application/octet-stream;base64,","byteLength":134344}],"bufferViews":[{"buffer":0,"byteOffset":0,"byteLength":31176,"target":34963},{"buffer":0,"byteOffset":31176,"byteLength":38688,"target":34962},{"buffer":0,"byteOffset":69864,"byteLength":38688,"target":34962},{"buffer":0,"byteOffset":108552,"byteLength":25792,"target":34962},{"buffer":1,"byteOffset":0,"byteLength":31176,"target":34963},{"buffer":1,"byteOffset":31176,"byteLength":38688,"target":34962},{"buffer":1,"byteOffset":69864,"byteLength":38688,"target":34962},{"buffer":1,"byteOffset":108552,"byteLength":25792,"target":34962},{"buffer":2,"byteOffset":0,"byteLength":31176,"target":34963},{"buffer":2,"byteOffset":31176,"byteLength":38688,"target":34962},{"buffer":2,"byteOffset":69864,"byteLength":38688,"target":34962},{"buffer":2,"byteOffset":108552,"byteLength":25792,"target":34962}],"accessors":[{"bufferView":0,"byteOffset":0,"componentType":5123,"count":15588,"type":"SCALAR","min":[0],"max":[3223]},{"bufferView":1,"byteOffset":0,"componentType":5126,"count":3224,"type":"VEC3","min":[-228.01881408691406,-28.596702575683594,-28.359121322631836],"max":[228.01881408691406,28.596702575683594,28.359121322631836]},{"bufferView":2,"byteOffset":0,"componentType":5126,"count":3224,"type":"VEC3","min":[-1,-1,-1],"max":[1,1,1]},{"bufferView":3,"byteOffset":0,"componentType":5126,"count":3224,"type":"VEC2","min":[0,0],"max":[1,1]},{"bufferView":4,"byteOffset":0,"componentType":5123,"count":15588,"type":"SCALAR","min":[0],"max":[3223]},{"bufferView":5,"byteOffset":0,"componentType":5126,"count":3224,"type":"VEC3","min":[-175.0615997314453,-28.596702575683594,-28.359121322631836],"max":[175.0615997314453,28.596702575683594,28.359121322631836]},{"bufferView":6,"byteOffset":0,"componentType":5126,"count":3224,"type":"VEC3","min":[-1,-1,-1],"max":[1,1,1]},{"bufferView":7,"byteOffset":0,"componentType":5126,"count":3224,"type":"VEC2","min":[0,0],"max":[1,1]},{"bufferView":8,"byteOffset":0,"componentType":5123,"count":15588,"type":"SCALAR","min":[0],"max":[3223]},{"bufferView":9,"byteOffset":0,"componentType":5126,"count":3224,"type":"VEC3","min":[-175.0615997314453,-28.596702575683594,-28.359121322631836],"max":[175.0615997314453,28.596702575683594,28.359121322631836]},{"bufferView":10,"byteOffset":0,"componentType":5126,"count":3224,"type":"VEC3","min":[-1,-1,-1],"max":[1,1,1]},{"bufferView":11,"byteOffset":0,"componentType":5126,"count":3224,"type":"VEC2","min":[0,0],"max":[1,1]}],"extensions":{"KHR_lights_punctual":{"lights":[]}},"extensionsUsed":["KHR_lights_punctual"]}