<?xml version="1.0" standalone="no"?>
<!DOCTYPE svg PUBLIC "-//W3C//DTD SVG 1.1//EN" "http://www.w3.org/Graphics/SVG/1.1/DTD/svg11.dtd" >
<svg xmlns="http://www.w3.org/2000/svg" xmlns:xlink="http://www.w3.org/1999/xlink" version="1.1">
<metadata>
Created by FontForge 20200427 at Tue May 27 19:00:09 2014
 By www
Copyright (c) 2014 by Briefcase Type Foundry. All rights reserved.
</metadata>
<defs>
<font id="BCAlphapipeTSB-Bold" horiz-adv-x="636" >
  <font-face 
    font-family="BC Alphapipe TSB"
    font-weight="600"
    font-stretch="normal"
    units-per-em="1000"
    panose-1="2 0 8 5 3 0 0 2 0 4"
    ascent="800"
    descent="-200"
    x-height="510"
    cap-height="709"
    bbox="-90 -239 1179 991"
    underline-thickness="50"
    underline-position="-100"
    unicode-range="U+0020-FB06"
  />
<missing-glyph horiz-adv-x="830" 
d="M100 0v630h630v-630h-630zM415 280l-230 -230h460zM185 580l230 -230l230 230h-460zM680 545l-230 -230l230 -230v460zM150 545v-460l230 230z" />
    <glyph glyph-name=".notdef" horiz-adv-x="830" 
d="M100 0v630h630v-630h-630zM415 280l-230 -230h460zM185 580l230 -230l230 230h-460zM680 545l-230 -230l230 -230v460zM150 545v-460l230 230z" />
    <glyph glyph-name=".null" horiz-adv-x="0" 
 />
    <glyph glyph-name="nonmarkingreturn" horiz-adv-x="0" 
 />
    <glyph glyph-name="space" unicode=" " horiz-adv-x="250" 
 />
    <glyph glyph-name="exclam" unicode="!" horiz-adv-x="278" 
d="M139 -9q-29 0 -49 20t-20 49t20 49t49 20t49 -20t20 -49t-20 -49t-49 -20zM84 654q0 23 16 39t39 16t39 -16t16 -39v-421q0 -23 -16 -39t-39 -16t-39 16t-16 39v421z" />
    <glyph glyph-name="quotedbl" unicode="&#x22;" horiz-adv-x="405" 
d="M58 679q0 23 16 39t39 16t39 -16t16 -39v-175q0 -23 -16 -39t-39 -16t-39 16t-16 39v175zM238 679q0 23 16 39t39 16t39 -16t16 -39v-175q0 -23 -16 -39t-39 -16t-39 16t-16 39v175z" />
    <glyph glyph-name="numbersign" unicode="#" horiz-adv-x="713" 
d="M348 163h-119l-48 -134q-6 -17 -20 -27.5t-31 -10.5q-23 0 -39.5 16.5t-16.5 38.5q0 11 4 20l35 97h-47q-21 0 -36 15t-15 36t15 36t36 15h84l62 170h-49q-22 0 -36.5 15t-14.5 36q0 22 14.5 36.5t36.5 14.5h86l49 135q6 17 20 27t31 10q22 0 39 -15.5t17 -39.5
q0 -10 -4 -19l-36 -98h119l49 135q6 17 20 27t31 10q22 0 39 -15.5t17 -39.5q0 -10 -4 -19l-36 -98h48q21 0 36 -14.5t15 -36.5q0 -21 -15 -36t-36 -15h-85l-62 -170h50q21 0 36 -15t15 -36t-15 -36t-36 -15h-87l-48 -134q-6 -17 -20 -27.5t-31 -10.5q-23 0 -39.5 16.5
t-16.5 38.5q0 11 4 20zM266 265h119l62 170h-119z" />
    <glyph glyph-name="dollar" unicode="$" horiz-adv-x="526" 
d="M204 -4q-37 8 -67 25.5t-51.5 39t-33.5 46t-12 46.5q0 24 17 41t41 17q20 0 32 -9.5t19 -23.5q5 -12 13.5 -26t21.5 -25.5t31.5 -19t43.5 -7.5q23 0 42 8t33 22t21.5 32t7.5 38q0 24 -9.5 41t-24.5 28.5t-34.5 19.5t-38.5 14l-51 15q-26 8 -54 21.5t-51.5 36.5t-38.5 57
t-15 83q0 35 11.5 65.5t32.5 55.5t50 42t64 25v63q0 25 17.5 42t41.5 17t41.5 -17t17.5 -42v-65q34 -9 61 -25.5t46 -36.5t29 -42.5t10 -42.5q0 -24 -17 -41t-41 -17q-20 0 -31.5 9.5t-17.5 23.5q-5 12 -13 24.5t-20 23t-29 17t-40 6.5q-42 0 -68.5 -27.5t-26.5 -64.5
q0 -23 9.5 -39t24 -27.5t32 -18.5t33.5 -11l44 -14q28 -9 58.5 -22t56 -36t42.5 -59t17 -90q0 -35 -12 -66t-33 -56.5t-50 -44t-64 -27.5v-72q0 -24 -17.5 -41.5t-41.5 -17.5t-41.5 17.5t-17.5 41.5v70z" />
    <glyph glyph-name="percent" unicode="%" horiz-adv-x="844" 
d="M221 378q-36 0 -67 13t-54.5 36t-36.5 54t-13 67q0 35 13 66.5t36.5 55t54.5 37t67 13.5q35 0 66 -13.5t54 -37t36.5 -55t13.5 -66.5q0 -36 -13.5 -67t-36.5 -54t-54 -36t-66 -13zM221 478q29 0 49.5 20.5t20.5 49.5q0 30 -20.5 51t-49.5 21t-49.5 -21t-20.5 -51
q0 -29 20.5 -49.5t49.5 -20.5zM623 -20q-36 0 -67 13t-54 36.5t-36 54.5t-13 67q0 35 13 66.5t36 55t54 37t67 13.5q35 0 66 -13.5t54.5 -37t37 -55t13.5 -66.5q0 -36 -13.5 -67t-37 -54.5t-54.5 -36.5t-66 -13zM623 81q29 0 49.5 20.5t20.5 49.5q0 30 -20.5 51t-49.5 21
t-49.5 -21t-20.5 -51q0 -29 20.5 -49.5t49.5 -20.5zM161 -9q-21 0 -36 15t-15 37q0 8 2.5 16.5t9.5 16.5l516 615q16 18 40 18q21 0 36 -15t15 -36q0 -8 -2.5 -16.5t-9.5 -16.5l-516 -615q-16 -19 -40 -19z" />
    <glyph glyph-name="ampersand" unicode="&#x26;" horiz-adv-x="639" 
d="M221 -10q-34 0 -65 13.5t-54.5 36.5t-37.5 54.5t-14 67.5q0 29 9.5 57.5t29.5 51.5l97 116l-47 57q-20 24 -29.5 51t-9.5 56q0 33 13 62t35 50.5t51 34t61 12.5t61 -12.5t51 -34t35 -50.5t13 -62q0 -26 -8.5 -52.5t-28.5 -49.5l-48 -57l80 -96l88 104q8 10 19.5 15
t22.5 5q23 0 39 -16t16 -39q0 -21 -13 -35l-100 -119l103 -123q8 -9 11 -18.5t3 -20.5q0 -25 -17 -41.5t-41 -16.5q-28 0 -46 22l-90 106l-57 -68q-26 -30 -60.5 -45.5t-71.5 -15.5zM221 100q13 0 25.5 5t21.5 16l71 84l-81 96l-84 -101q-14 -17 -14 -39q0 -24 17.5 -42.5
t43.5 -18.5zM215 553q0 -7 3 -15.5t12 -19.5l33 -40l36 43q7 8 10 16t3 16q0 20 -14.5 34.5t-34.5 14.5t-34 -14.5t-14 -34.5z" />
    <glyph glyph-name="quotesingle" unicode="'" horiz-adv-x="225" 
d="M58 679q0 23 16 39t39 16t39 -16t16 -39v-175q0 -23 -16 -39t-39 -16t-39 16t-16 39v175z" />
    <glyph glyph-name="parenleft" unicode="(" horiz-adv-x="311" 
d="M50 350q0 71 10.5 134t27.5 117t40 100t49 83q11 16 24 22.5t25 6.5q23 0 39 -16t16 -39q0 -8 -2.5 -17t-6.5 -15q-12 -19 -31 -52t-37 -80t-31 -108t-13 -136t13 -135.5t31 -108t37 -80.5t31 -52q4 -6 6.5 -15t2.5 -17q0 -23 -16 -39t-39 -16q-12 0 -25 6.5t-24 22.5
q-26 37 -49 83t-40 100.5t-27.5 117t-10.5 133.5z" />
    <glyph glyph-name="parenright" unicode=")" horiz-adv-x="311" 
d="M261 350q0 -71 -10.5 -133.5t-27.5 -117t-40.5 -100.5t-48.5 -83q-11 -16 -23.5 -22.5t-25.5 -6.5q-23 0 -39 16t-16 39q0 8 2.5 17t7.5 15q12 19 30.5 52t36.5 80.5t31 108t13 135.5t-13 136t-31 108t-36.5 80t-30.5 52q-5 6 -7.5 15t-2.5 17q0 23 16 39t39 16
q13 0 25.5 -6.5t23.5 -22.5q25 -37 48.5 -83t40.5 -100t27.5 -117t10.5 -134z" />
    <glyph glyph-name="asterisk" unicode="*" horiz-adv-x="526" 
d="M179 500l-80 -2q-20 -2 -34.5 14t-14.5 37q0 20 14.5 36t34.5 15l80 -3l-41 66q-8 11 -8 26q0 20 15 35.5t38 15.5q14 0 25.5 -6.5t18.5 -19.5l36 -67l37 67q7 13 18.5 19.5t25.5 6.5q20 0 36.5 -14.5t16.5 -36.5q0 -13 -8 -26l-41 -66l79 3q20 1 34.5 -15t14.5 -36
q0 -21 -14.5 -37t-34.5 -14l-79 2l41 -66q8 -13 8 -25q0 -20 -15.5 -36t-37.5 -16q-29 0 -44 26l-37 68l-36 -68q-15 -26 -44 -26q-20 0 -36.5 15t-16.5 37q0 14 8 25z" />
    <glyph glyph-name="plus" unicode="+" horiz-adv-x="536" 
d="M211 298h-108q-22 0 -37.5 15t-15.5 37q0 23 15.5 38.5t37.5 15.5h108v104q0 23 16.5 40t40.5 17q23 0 40 -17t17 -40v-104h108q22 0 37.5 -15.5t15.5 -37.5q0 -23 -15.5 -38t-37.5 -15h-108v-104q0 -23 -16.5 -40t-40.5 -17q-23 0 -40 17t-17 40v104z" />
    <glyph glyph-name="comma" unicode="," horiz-adv-x="259" 
d="M102 114q8 21 23 28.5t29 7.5t25.5 -6.5t19 -17t9.5 -23.5t-3 -27l-70 -192q-8 -21 -23.5 -28.5t-29.5 -7.5t-25.5 6.5t-18.5 17t-9 23.5t3 27z" />
    <glyph glyph-name="hyphen" unicode="-" horiz-adv-x="375" 
d="M293 308q22 0 37 -15.5t15 -37.5t-15 -37.5t-37 -15.5h-210q-22 0 -37.5 15.5t-15.5 37.5t15.5 37.5t37.5 15.5h210z" />
    <glyph glyph-name="period" unicode="." horiz-adv-x="238" 
d="M119 -9q-29 0 -49 20t-20 49t20 49t49 20t49 -20t20 -49t-20 -49t-49 -20z" />
    <glyph glyph-name="slash" unicode="/" horiz-adv-x="745" 
d="M641 755q18 20 43 20q22 0 38 -16.5t16 -39.5q0 -18 -13 -35l-620 -739q-17 -20 -43 -20q-22 0 -38 16t-16 39q0 19 13 36z" />
    <glyph glyph-name="zero" unicode="0" horiz-adv-x="802" 
d="M401 -10q-75 0 -140.5 28t-113.5 76.5t-76 114.5t-28 141t28 141t76 114.5t113.5 76.5t140.5 28t140.5 -28t114 -76.5t76.5 -114.5t28 -141t-28 -141t-76.5 -114.5t-114 -76.5t-140.5 -28zM401 100q51 0 95 19.5t76.5 53t51 79t18.5 98.5q0 52 -18.5 98t-51 80
t-76.5 53.5t-95 19.5q-50 0 -94 -19.5t-76.5 -53.5t-51.5 -80t-19 -98q0 -53 19 -98.5t51.5 -79t76.5 -53t94 -19.5z" />
    <glyph glyph-name="one" unicode="1" horiz-adv-x="320" 
d="M142 595h-79q-22 0 -37.5 15t-15.5 37q0 23 15.5 38t37.5 15h137q23 0 39.5 -16.5t16.5 -39.5v-595q0 -24 -16.5 -41t-39.5 -17q-24 0 -41 17t-17 41v546z" />
    <glyph glyph-name="two" unicode="2" horiz-adv-x="526" 
d="M84 0q-23 0 -38.5 15.5t-15.5 38.5q0 19 15 37l292 344q29 33 29 69q0 41 -28 69t-69 28t-67.5 -27.5t-28.5 -67.5q-2 -23 -18.5 -40t-40.5 -17t-41.5 17.5t-17.5 41.5q0 43 16.5 80t45.5 64t68 42.5t84 15.5t84 -15.5t68 -42.5t45.5 -64t16.5 -80q0 -29 -12 -60t-38 -60
l-241 -282h238q22 0 37 -15t15 -37q0 -23 -15 -38.5t-37 -15.5h-346v0z" />
    <glyph glyph-name="three" unicode="3" horiz-adv-x="518" 
d="M259 -10q-45 0 -84.5 15.5t-68.5 43t-46 65t-17 81.5q0 24 17 41.5t42 17.5q24 0 40 -17t18 -40q2 -41 29.5 -69t69.5 -28q21 0 39 7.5t31.5 21t21 31.5t7.5 39t-7.5 39t-21 31.5t-31.5 21t-39 7.5h-8q-23 0 -39 16t-16 39t16 38.5t39 15.5h8q41 1 68.5 28.5t27.5 68.5
t-27.5 69t-68.5 28t-67.5 -27.5t-28.5 -67.5q-2 -23 -18.5 -40t-40.5 -17t-41.5 17.5t-17.5 41.5q0 43 16.5 80t45.5 64t68 42.5t84 15.5t84 -15.5t68 -42.5t45.5 -64t16.5 -80q0 -51 -26.5 -91.5t-75.5 -63.5q49 -23 76.5 -64t27.5 -94q0 -44 -17 -81.5t-46 -65t-68.5 -43
t-84.5 -15.5z" />
    <glyph glyph-name="four" unicode="4" horiz-adv-x="577" 
d="M67 206q-23 0 -38 16t-15 36q0 21 13 35l331 396q17 20 44 20q24 0 40.5 -16.5t16.5 -39.5v-341h51q23 0 38 -15.5t15 -38.5q0 -22 -15 -37t-38 -15h-51v-157q0 -24 -16.5 -41t-40.5 -17q-23 0 -40 17t-17 41v157h-278zM345 523l-179 -211h179v211z" />
    <glyph glyph-name="five" unicode="5" horiz-adv-x="535" 
d="M64 644q0 23 16.5 39.5t39.5 16.5h295q22 0 37.5 -15t15.5 -38q0 -22 -15.5 -37t-37.5 -15h-237v-179h103q46 0 86 -16.5t69.5 -45.5t46.5 -68t17 -83q0 -46 -17 -85t-46 -67.5t-69.5 -44.5t-86.5 -16q-42 0 -81 14.5t-69 39.5t-48 59.5t-18 74.5q0 20 16 37.5t42 17.5
q23 0 39 -15.5t19 -31.5q6 -37 33.5 -61.5t66.5 -24.5q43 0 72 30t29 73t-29 73t-72 30h-161q-23 0 -39.5 17t-16.5 40v281z" />
    <glyph glyph-name="six" unicode="6" horiz-adv-x="538" 
d="M263 -10q-46 0 -86 16.5t-70 45.5t-47 68t-17 83q0 36 15 74t49 79l281 333q17 20 43 20q22 0 38.5 -15.5t16.5 -39.5q0 -9 -3 -18.5t-11 -17.5l-177 -211q18 -2 32 -5.5t30 -11.5q58 -27 92 -78t34 -111q0 -44 -17 -82t-47 -67t-70 -45.5t-86 -16.5zM263 100q21 0 40 8
t32.5 22t21.5 33t8 40q0 43 -29.5 72.5t-72.5 29.5q-44 0 -73.5 -29.5t-29.5 -72.5q0 -21 8 -40t22 -33t33 -22t40 -8z" />
    <glyph glyph-name="seven" unicode="7" horiz-adv-x="521" 
d="M90 268q0 23 15 41l241 286h-279q-22 0 -37.5 15t-15.5 37q0 23 15.5 38t37.5 15h391q23 0 38 -15t15 -38q0 -20 -12 -33l-296 -358v-207q0 -24 -16.5 -41t-40.5 -17q-23 0 -39.5 17t-16.5 41v219z" />
    <glyph glyph-name="eight" unicode="8" horiz-adv-x="525" 
d="M263 -10q-46 0 -86 16.5t-70 45.5t-47 68t-17 83q0 52 26 93t68 65q-38 23 -61 61t-23 86q0 42 16.5 79t45 64t66.5 43t82 16q43 0 81.5 -16t67 -43t45 -64t16.5 -79q0 -48 -24 -86t-62 -61q42 -24 69 -65t27 -93q0 -44 -17 -83t-47 -68t-70 -45.5t-86 -16.5zM263 100
q43 0 72.5 29.5t29.5 73.5q0 43 -29.5 72.5t-72.5 29.5q-44 0 -73.5 -29.5t-29.5 -72.5q0 -44 29.5 -73.5t73.5 -29.5zM263 413q19 0 36.5 7.5t30 20t20 30t7.5 37.5q0 19 -7.5 36.5t-20 30t-30 20t-36.5 7.5q-40 0 -67 -27.5t-27 -66.5q0 -40 27 -67.5t67 -27.5z" />
    <glyph glyph-name="nine" unicode="9" horiz-adv-x="538" 
d="M275 709q46 0 86 -16.5t70 -45.5t47 -68t17 -83q0 -36 -15 -74t-49 -79l-281 -333q-17 -20 -43 -20q-22 0 -38.5 15.5t-16.5 39.5q0 9 3 18.5t11 17.5l177 211q-18 2 -32 5.5t-30 11.5q-58 27 -92 78t-34 111q0 43 17 81.5t47 67.5t70 45.5t86 16.5zM275 599
q-21 0 -40 -8t-32.5 -22t-21.5 -33t-8 -40q0 -43 29.5 -72.5t72.5 -29.5q44 0 73.5 29.5t29.5 72.5q0 21 -8 40t-22 33t-33 22t-40 8z" />
    <glyph glyph-name="colon" unicode=":" horiz-adv-x="238" 
d="M119 -9q-29 0 -49 20t-20 49t20 49t49 20t49 -20t20 -49t-20 -49t-49 -20zM119 368q-29 0 -49 19.5t-20 48.5t20 49t49 20t49 -20t20 -49t-20 -48.5t-49 -19.5z" />
    <glyph glyph-name="semicolon" unicode=";" horiz-adv-x="278" 
d="M159 368q-29 0 -49 19.5t-20 48.5t20 49t49 20t49 -20t20 -49t-20 -48.5t-49 -19.5zM102 114q8 21 23 28.5t29 7.5t25.5 -6.5t19 -17t9.5 -23.5t-3 -27l-70 -192q-8 -21 -23.5 -28.5t-29.5 -7.5t-25.5 6.5t-18.5 17t-9 23.5t3 27z" />
    <glyph glyph-name="less" unicode="&#x3c;" horiz-adv-x="512" 
d="M430 229q26 -18 26 -46q0 -22 -15 -37.5t-38 -15.5q-14 0 -27 7l-289 165q-14 8 -22 19.5t-8 28.5t8 29t22 20l289 165q16 7 27 7q23 0 38 -15.5t15 -38.5q0 -29 -26 -45l-216 -122z" />
    <glyph glyph-name="equal" unicode="=" horiz-adv-x="536" 
d="M103 206q-22 0 -37.5 15t-15.5 37q0 23 15.5 38.5t37.5 15.5h330q22 0 37.5 -15.5t15.5 -37.5q0 -23 -15.5 -38t-37.5 -15h-330zM103 390q-22 0 -37.5 15t-15.5 37q0 23 15.5 38.5t37.5 15.5h330q22 0 37.5 -15.5t15.5 -37.5q0 -23 -15.5 -38t-37.5 -15h-330z" />
    <glyph glyph-name="greater" unicode="&#x3e;" horiz-adv-x="512" 
d="M83 472q-26 16 -26 45q0 23 15 38.5t38 15.5q12 0 26 -7l289 -165q31 -16 31 -49q0 -32 -31 -48l-289 -165q-6 -4 -13 -5.5t-13 -1.5q-23 0 -38 15.5t-15 37.5q0 28 26 46l216 121z" />
    <glyph glyph-name="question" unicode="?" horiz-adv-x="512" 
d="M256 -9q-29 0 -49 20t-20 49t20 49t49 20t49 -20t20 -49t-20 -49t-49 -20zM201 289q0 14 5 25.5t19 26.5l95 93q19 19 25.5 37.5t6.5 39.5q0 40 -27.5 68.5t-68.5 28.5q-40 0 -67.5 -27.5t-28.5 -67.5q0 -23 -16 -39t-39 -16t-39 16t-16 39q1 41 17 77t44 62.5t65 42
t80 15.5t80.5 -15.5t65.5 -42.5t44 -63.5t16 -77.5q0 -45 -15.5 -79.5t-49.5 -66.5l-86 -82v-50q0 -23 -16 -39t-39 -16t-39 15.5t-16 38.5v57z" />
    <glyph glyph-name="at" unicode="@" horiz-adv-x="999" 
d="M499 -200q-90 0 -171.5 34t-143 94.5t-98 144.5t-36.5 183t36.5 182.5t98 144t143 94t171.5 33.5q91 0 172.5 -33.5t143 -94t98 -144t36.5 -182.5q0 -51 -14 -94t-38 -75t-56 -50t-68 -18q-47 0 -83 27q-21 15 -36 39q-29 -32 -69.5 -50.5t-91.5 -18.5q-46 0 -87.5 18
t-73 50.5t-50.5 76t-19 94.5t18.5 94.5t50.5 75.5t75 50t92 18t92 -18t75 -50t50.5 -76t18.5 -95v-85q0 -20 10 -33.5t28 -13.5q29 0 47.5 35.5t18.5 98.5q0 77 -27.5 141.5t-74 111.5t-108 73t-130.5 26t-130.5 -26t-108 -73t-73.5 -111.5t-27 -141.5t27 -141.5t73.5 -112
t108 -74t130.5 -26.5q28 0 50 4t40 9t33.5 11t31.5 9q22 2 37.5 -13t15.5 -38q0 -16 -10 -29.5t-25 -19.5q-81 -35 -173 -35zM499 116q29 0 52 11t39.5 30t25 44t8.5 53t-8.5 53.5t-25 44.5t-39.5 30t-52 11q-28 0 -51 -11t-39.5 -30t-25.5 -44.5t-9 -53.5t8.5 -53t25 -44
t39.5 -30t52 -11z" />
    <glyph glyph-name="A" unicode="A" horiz-adv-x="699" 
d="M529 686q11 13 23.5 18t24.5 5q24 0 41 -17t17 -42v-600q0 -24 -17 -41.5t-41 -17.5q-25 0 -42 17.5t-17 41.5v97h-136q-23 0 -39 16t-16 39t16 39t39 16h136v244l-410 -490q-8 -8 -20 -14t-23 -6q-23 0 -39 16t-16 39q0 9 2.5 17.5t10.5 18.5z" />
    <glyph glyph-name="B" unicode="B" horiz-adv-x="552" 
d="M64 642q0 24 17.5 41t41.5 17h178q42 0 78 -15.5t63 -41.5t42 -61.5t15 -75.5q0 -23 -5.5 -45t-17.5 -42t-31 -36.5t-46 -26.5q28 -10 49 -27t34.5 -38.5t20 -45.5t6.5 -49q0 -41 -15.5 -76.5t-42.5 -62t-63.5 -42t-78.5 -15.5h-186q-24 0 -41.5 17.5t-17.5 41.5v583z
M291 110q43 0 70 27t27 67q0 19 -7.5 36.5t-20 30t-30 20t-36.5 7.5h-25q-23 0 -39 15.5t-16 38.5t16 39t39 16h17q19 0 36 7t29.5 19.5t19.5 29.5t7 36q0 38 -26.5 65t-68.5 27h-101v-481h109z" />
    <glyph glyph-name="C" unicode="C" horiz-adv-x="727" 
d="M401 -10q-75 0 -140.5 28t-113.5 76.5t-76 114.5t-28 141t28 141t76 114.5t113.5 76.5t140.5 28q82 0 150 -32t114 -84q8 -8 12 -19t4 -21q0 -24 -17 -41t-42 -17q-21 0 -47 23q-32 35 -76 56.5t-98 21.5q-50 0 -93 -19t-75 -52.5t-50.5 -78.5t-18.5 -97q0 -51 18.5 -96
t50.5 -78.5t75 -52.5t93 -19q54 0 98 21.5t76 56.5q26 23 47 23q25 0 42 -17t17 -41q0 -10 -4 -21t-12 -19q-46 -53 -114 -85t-150 -32z" />
    <glyph glyph-name="D" unicode="D" horiz-adv-x="711" 
d="M64 642q0 24 17.5 41t41.5 17h186q80 0 146 -27.5t113.5 -74.5t73.5 -111t26 -137t-26 -137t-73.5 -111t-113.5 -74.5t-147 -27.5h-185q-24 0 -41.5 17.5t-17.5 41.5v583zM309 110q55 0 99 18.5t75 51t47.5 76.5t16.5 94t-16.5 94t-47.5 76.5t-75 51.5t-99 19h-127v-481
h127z" />
    <glyph glyph-name="E" unicode="E" horiz-adv-x="490" 
d="M64 642q0 24 17.5 41t41.5 17h270q23 0 38.5 -15.5t15.5 -38.5t-15.5 -39t-38.5 -16h-211v-186h211q23 0 38.5 -16t15.5 -39t-15.5 -38.5t-38.5 -15.5h-211v-186h211q23 0 38.5 -16t15.5 -39t-15.5 -39t-38.5 -16h-270q-24 0 -41.5 17.5t-17.5 41.5v583z" />
    <glyph glyph-name="F" unicode="F" horiz-adv-x="490" 
d="M64 642q0 24 17.5 41t41.5 17h270q23 0 38.5 -15.5t15.5 -38.5t-15.5 -39t-38.5 -16h-211v-186h211q23 0 38.5 -16t15.5 -39t-15.5 -38.5t-38.5 -15.5h-211v-246q0 -24 -17.5 -41.5t-41.5 -17.5t-41.5 17.5t-17.5 41.5v592z" />
    <glyph glyph-name="G" unicode="G" horiz-adv-x="792" 
d="M401 -10q-75 0 -140.5 28t-113.5 76.5t-76 114.5t-28 141t28 141t76 114.5t113.5 76.5t140.5 28q82 0 150 -32t114 -84q8 -8 12 -19t4 -21q0 -24 -17 -41t-42 -17q-11 0 -23.5 6t-23.5 17q-32 35 -76 56.5t-98 21.5q-50 0 -93 -19t-75 -52.5t-50.5 -78.5t-18.5 -97
q0 -51 18.5 -96t50.5 -78.5t75 -52.5t93 -19q39 0 74.5 12t65 34.5t51 54.5t33.5 71h-171q-23 0 -39 15.5t-16 38.5t16 39t39 16h249q23 0 38.5 -16t15.5 -42q-2 -62 -29 -122.5t-74 -108t-111.5 -77t-141.5 -29.5z" />
    <glyph glyph-name="H" unicode="H" horiz-adv-x="643" 
d="M64 650q0 25 17.5 42t41.5 17t41.5 -17t17.5 -42v-245h280v245q0 25 17 42t41 17q25 0 42 -17t17 -42v-600q0 -24 -17 -41.5t-42 -17.5q-24 0 -41 17.5t-17 41.5v246h-280v-246q0 -24 -17.5 -41.5t-41.5 -17.5t-41.5 17.5t-17.5 41.5v600z" />
    <glyph glyph-name="I" unicode="I" horiz-adv-x="245" 
d="M64 650q0 25 17.5 42t41.5 17t41.5 -17t17.5 -42v-600q0 -24 -17.5 -41.5t-41.5 -17.5t-41.5 17.5t-17.5 41.5v600z" />
    <glyph glyph-name="J" unicode="J" horiz-adv-x="397" 
d="M14 55q0 23 16 39t39 16h7q30 0 56 11.5t44.5 31t29 46.5t10.5 59v392q0 25 17 42t41 17q25 0 42 -17t17 -42v-385q0 -59 -19 -107.5t-53.5 -83.5t-81.5 -54.5t-103 -19.5h-7q-23 0 -39 16t-16 39z" />
    <glyph glyph-name="K" unicode="K" horiz-adv-x="595" 
d="M64 650q0 25 17.5 42t41.5 17t41.5 -17t17.5 -42v-600q0 -24 -17.5 -41.5t-41.5 -17.5t-41.5 17.5t-17.5 41.5v600zM220 314q-5 6 -9 15t-4 21q0 21 12 36l255 303q8 10 19 15t23 5q23 0 39 -16t16 -39q0 -20 -13 -36l-220 -261l225 -269q14 -18 14 -39q0 -24 -17 -41
t-41 -17q-28 0 -46 22z" />
    <glyph glyph-name="L" unicode="L" horiz-adv-x="461" 
d="M64 650q0 25 17.5 42t41.5 17t41.5 -17t17.5 -42v-540h211q23 0 38.5 -16t15.5 -39t-15.5 -39t-38.5 -16h-270q-24 0 -41.5 17.5t-17.5 41.5v591z" />
    <glyph glyph-name="M" unicode="M" horiz-adv-x="1082" 
d="M529 686q11 13 22.5 18t25.5 5q24 0 41 -17t17 -42v-294l277 330q11 13 22.5 18t24.5 5q24 0 41.5 -17t17.5 -42v-600q0 -24 -17.5 -41.5t-41.5 -17.5t-41.5 17.5t-17.5 41.5v451l-265 -316v-135q0 -24 -17 -41.5t-41 -17.5q-25 0 -42 17.5t-17 41.5v451l-410 -490
q-8 -10 -20 -15t-23 -5q-23 0 -39 16t-16 39q0 9 2.5 17.5t10.5 18.5z" />
    <glyph glyph-name="N" unicode="N" horiz-adv-x="685" 
d="M64 647q0 26 17.5 44t43.5 18q15 0 27.5 -6t19.5 -15l321 -383v345q0 25 17 42t42 17q24 0 41 -17t17 -42v-600q0 -24 -17 -41.5t-41 -17.5q-25 0 -42 17.5t-17 41.5v73l-311 371v-444q0 -24 -17.5 -41.5t-41.5 -17.5t-41.5 17.5t-17.5 41.5v597z" />
    <glyph glyph-name="O" unicode="O" horiz-adv-x="802" 
d="M401 -10q-75 0 -140.5 28t-113.5 76.5t-76 114.5t-28 141t28 141t76 114.5t113.5 76.5t140.5 28t140.5 -28t114 -76.5t76.5 -114.5t28 -141t-28 -141t-76.5 -114.5t-114 -76.5t-140.5 -28zM401 104q50 0 93.5 19t75.5 52.5t50.5 78.5t18.5 96q0 52 -18.5 97t-50.5 78.5
t-75.5 52.5t-93.5 19t-93 -19t-75 -52.5t-50.5 -78.5t-18.5 -97q0 -51 18.5 -96t50.5 -78.5t75 -52.5t93 -19z" />
    <glyph glyph-name="P" unicode="P" horiz-adv-x="530" 
d="M64 642q0 24 17.5 41t41.5 17h162q49 0 90 -16.5t69.5 -45t44.5 -67t16 -81.5t-16 -81t-44.5 -66.5t-69.5 -45t-90 -16.5h-16q-23 0 -39 15.5t-16 38.5t16 39t39 16h12q22 0 41 8t33 21.5t21.5 31.5t7.5 39q0 42 -29 71.5t-74 29.5h-99v-541q0 -24 -17.5 -41.5
t-41.5 -17.5t-41.5 17.5t-17.5 41.5v592z" />
    <glyph glyph-name="Q" unicode="Q" horiz-adv-x="802" 
d="M401 -10q-75 0 -140.5 28t-113.5 76.5t-76 114.5t-28 141t28 141t76 114.5t113.5 76.5t140.5 28t140.5 -28t114 -76.5t76.5 -114.5t28 -141q0 -62 -18.5 -115t-51.5 -98l41 -49q14 -18 14 -39q0 -24 -17 -41t-41 -17q-28 0 -46 22l-196 234q-8 9 -11 18.5t-3 19.5
q0 25 17 41.5t41 16.5q28 0 46 -21l72 -86q14 23 23 52t9 62q0 52 -18.5 97t-50.5 78.5t-75.5 52.5t-93.5 19t-93 -19t-75 -52.5t-50.5 -78.5t-18.5 -97q0 -51 18.5 -96t50.5 -78.5t75 -52.5t93 -19q14 0 31 2t37 10q6 3 14 3q23 0 40 -17t17 -40q0 -20 -13.5 -36t-33.5 -20
q-26 -11 -49 -13.5t-43 -2.5z" />
    <glyph glyph-name="R" unicode="R" horiz-adv-x="585" 
d="M64 642q0 24 17.5 41t41.5 17h170q49 0 89.5 -16.5t69.5 -45t45 -67t16 -81.5q0 -36 -10.5 -66t-28.5 -53t-41.5 -38.5t-49.5 -21.5l-13 -1l186 -222q8 -10 11 -19t3 -20q0 -24 -17 -41t-41 -17q-28 0 -46 22l-234 278q-6 8 -12 19.5t-6 26.5q0 23 15.5 38t37.5 15h22
q22 0 41 8t32.5 21.5t21 31.5t7.5 39q0 42 -28.5 71.5t-73.5 29.5h-107v-541q0 -24 -17.5 -41.5t-41.5 -17.5t-41.5 17.5t-17.5 41.5v592z" />
    <glyph glyph-name="S" unicode="S" horiz-adv-x="526" 
d="M259 -10q-47 0 -87.5 16t-69.5 40t-45.5 52.5t-16.5 54.5q0 24 17 41t41 17q20 0 32 -9.5t19 -23.5q5 -12 13.5 -26t21.5 -25.5t31.5 -19t43.5 -7.5q23 0 42 8t33 22t21.5 32t7.5 38q0 24 -9.5 41t-24.5 28.5t-34.5 19.5t-38.5 14l-51 15q-26 8 -54 21.5t-51.5 36.5
t-38.5 57t-15 83q0 42 16.5 77.5t45 61.5t67.5 40.5t84 14.5q48 0 86.5 -15t65.5 -38t42 -50t15 -52q0 -24 -17 -41t-41 -17q-20 0 -31.5 9.5t-17.5 23.5q-5 12 -13 24.5t-20 23t-29 17t-40 6.5q-42 0 -68.5 -27.5t-26.5 -64.5q0 -23 9.5 -39t24 -27.5t32 -18.5t33.5 -11
l44 -14q28 -9 58.5 -22t56 -36t42.5 -59t17 -90q0 -42 -17 -79t-47 -64.5t-70.5 -43t-87.5 -15.5z" />
    <glyph glyph-name="T" unicode="T" horiz-adv-x="519" 
d="M201 591h-133q-23 0 -39 16t-16 39t16 38.5t39 15.5h384q23 0 39 -15.5t16 -38.5t-16 -39t-39 -16h-133v-541q0 -24 -17.5 -41.5t-41.5 -17.5t-41.5 17.5t-17.5 41.5v541z" />
    <glyph glyph-name="U" unicode="U" horiz-adv-x="655" 
d="M327 -10q-55 0 -103 19.5t-83.5 55.5t-56 87t-20.5 114v384q0 25 17.5 42t41.5 17t41.5 -17t17.5 -42v-391q0 -38 11.5 -68t31 -50t46 -30.5t56.5 -10.5q31 0 58 10.5t46.5 30.5t31 50t11.5 68v391q0 25 17.5 42t41.5 17t41.5 -17t17.5 -42v-384q0 -63 -20.5 -114
t-56.5 -87t-84.5 -55.5t-103.5 -19.5z" />
    <glyph glyph-name="V" unicode="V" horiz-adv-x="699" 
d="M64 650q0 25 17.5 42t41.5 17t41.5 -17t17.5 -42v-450l410 489q8 10 19.5 15t22.5 5q23 0 39 -16t16 -39q0 -8 -2.5 -17t-10.5 -18l-506 -604q-11 -14 -23 -19t-24 -5q-24 0 -41.5 17.5t-17.5 41.5v600z" />
    <glyph glyph-name="W" unicode="W" horiz-adv-x="1082" 
d="M64 650q0 25 17.5 42t41.5 17t41.5 -17t17.5 -42v-450l265 316v134q0 25 17 42t41 17q25 0 42 -17t17 -42v-450l410 489q8 10 20 15t23 5q23 0 39 -16t16 -39q0 -8 -2.5 -17t-10.5 -18l-506 -604q-11 -14 -23.5 -19t-24.5 -5q-24 0 -41 17.5t-17 41.5v295l-277 -330
q-11 -14 -23 -19t-24 -5q-24 0 -41.5 17.5t-17.5 41.5v600z" />
    <glyph glyph-name="X" unicode="X" horiz-adv-x="677" 
d="M337 263l-209 -248q-8 -11 -20 -17.5t-27 -6.5q-23 0 -38.5 16t-15.5 39q0 21 12 36l225 268l-220 263q-14 17 -14 38q0 25 17 41.5t41 16.5q28 0 46 -21l207 -247l209 248q8 10 20 15t23 5q23 0 39 -16t16 -39q0 -21 -13 -35l-222 -264l224 -267q8 -10 11 -19t3 -20
q0 -24 -17 -41t-41 -17q-28 0 -46 22z" />
    <glyph glyph-name="Y" unicode="Y" horiz-adv-x="651" 
d="M267 329l-238 284q-14 17 -14 38q0 25 17 41.5t41 16.5q28 0 46 -21l209 -249l211 250q8 10 19.5 15t23.5 5q23 0 38.5 -16t15.5 -39q0 -20 -12 -35l-239 -285v-284q0 -24 -17.5 -41.5t-41.5 -17.5t-41.5 17.5t-17.5 41.5v279z" />
    <glyph glyph-name="Z" unicode="Z" horiz-adv-x="657" 
d="M77 0q-23 0 -38.5 16t-15.5 39q0 12 4.5 21.5t10.5 17.5l417 497h-332q-22 0 -38 15.5t-16 39.5q0 23 16 38.5t38 15.5h451q20 0 37 -15t17 -40q0 -11 -4.5 -20.5t-11.5 -17.5l-417 -497h374q23 0 38.5 -16t15.5 -39t-15.5 -39t-38.5 -16h-492v0z" />
    <glyph glyph-name="bracketleft" unicode="[" horiz-adv-x="324" 
d="M64 756q0 23 16 38.5t39 15.5h124q21 0 36 -14.5t15 -36.5q0 -21 -15 -36t-36 -15h-69v-716h69q21 0 36 -15t15 -36q0 -22 -15 -36.5t-36 -14.5h-124q-23 0 -39 15.5t-16 38.5v812z" />
    <glyph glyph-name="backslash" unicode="\" horiz-adv-x="745" 
d="M21 679q-8 9 -10.5 18.5t-2.5 19.5q0 25 17 41.5t41 16.5q28 0 45 -21l614 -732q14 -18 14 -39q0 -25 -17 -41.5t-41 -16.5q-28 0 -46 21z" />
    <glyph glyph-name="bracketright" unicode="]" horiz-adv-x="324" 
d="M150 -8v716h-69q-21 0 -36 15t-15 36q0 22 15 36.5t36 14.5h124q23 0 39 -15.5t16 -38.5v-812q0 -23 -16 -38.5t-39 -15.5h-124q-21 0 -36 14.5t-15 36.5q0 21 15 36t36 15h69z" />
    <glyph glyph-name="asciicircum" unicode="^" horiz-adv-x="481" 
d="M191 695q7 14 20 23t30 9t30 -9t19 -23l136 -310q5 -10 5 -23q0 -23 -16 -39t-39 -16q-34 0 -50 32l-85 202l-86 -202q-7 -15 -20.5 -23.5t-29.5 -8.5q-23 0 -39 16t-16 39q0 13 5 23z" />
    <glyph glyph-name="underscore" unicode="_" horiz-adv-x="500" 
d="M398 -27q22 0 37 -15.5t15 -37.5t-15 -37.5t-37 -15.5h-295q-22 0 -37.5 15.5t-15.5 37.5t15.5 37.5t37.5 15.5h295z" />
    <glyph glyph-name="grave" unicode="`" horiz-adv-x="292" 
d="M63 671q-13 15 -13 33q0 22 16.5 38t37.5 16q24 0 42 -20l84 -102q12 -15 12 -33q0 -22 -17 -37.5t-37 -15.5q-12 0 -22.5 5.5t-18.5 13.5z" />
    <glyph glyph-name="a" unicode="a" 
d="M462 52q-33 -29 -75.5 -45.5t-90.5 -16.5q-54 0 -100.5 20.5t-80 56.5t-53 84t-19.5 104q0 55 19.5 103.5t53 84.5t80 56.5t100.5 20.5q48 0 90.5 -16.5t75.5 -46.5v7q0 23 16 39t39 16t39 -16t16 -39v-417q0 -23 -16 -39.5t-39 -16.5t-39 16.5t-16 39.5v5zM308 92
q32 0 60 12.5t49 34t33 51.5t12 65v7q-2 33 -14 61.5t-33 49.5t-48.5 33t-58.5 12q-32 0 -60 -12.5t-49 -34t-33 -51.5t-12 -65t12 -65t33 -51.5t49 -34t60 -12.5z" />
    <glyph glyph-name="b" unicode="b" 
d="M340 -10q-48 0 -90.5 16.5t-75.5 45.5v-5q0 -23 -16 -39.5t-39 -16.5t-39 16.5t-16 39.5v607q0 23 16 39t39 16t39 -16t16 -39v-197q33 30 75.5 46.5t90.5 16.5q54 0 100.5 -20.5t80 -56.5t53 -84.5t19.5 -103.5q0 -56 -19.5 -104t-53 -84t-80 -56.5t-100.5 -20.5z
M328 92q32 0 60 12.5t49 34t33 51.5t12 65t-12 65t-33 51.5t-49 34t-60 12.5t-59.5 -12t-48 -33t-33 -49.5t-13.5 -61.5v-7q0 -35 12 -65t33 -51.5t49 -34t60 -12.5z" />
    <glyph glyph-name="c" unicode="c" horiz-adv-x="556" 
d="M308 -10q-57 0 -105.5 20.5t-84 56.5t-55.5 84t-20 104q0 55 20 103.5t55.5 84.5t84 56.5t105.5 20.5q63 0 113 -23.5t79 -57.5q16 -19 16 -38q0 -23 -15.5 -37t-38.5 -14q-17 0 -26.5 7t-20.5 16q-19 19 -45 32t-62 13q-32 0 -60 -12.5t-49 -34.5t-33 -52t-12 -64
t12 -63.5t33 -51.5t49 -35t60 -13q35 0 61.5 13t44.5 32q11 9 21 17t27 8q23 0 38.5 -15t15.5 -38q0 -18 -16 -36q-29 -35 -78.5 -59t-113.5 -24z" />
    <glyph glyph-name="d" unicode="d" 
d="M462 52q-33 -29 -75.5 -45.5t-90.5 -16.5q-54 0 -100.5 20.5t-80 56.5t-53 84t-19.5 104q0 55 19.5 103.5t53 84.5t80 56.5t100.5 20.5q48 0 90.5 -16.5t75.5 -46.5v197q0 23 16 39t39 16t39 -16t16 -39v-607q0 -23 -16 -39.5t-39 -16.5t-39 16.5t-16 39.5v5zM308 92
q32 0 60 12.5t49 34t33 51.5t12 65v7q-2 33 -14 61.5t-33 49.5t-48.5 33t-58.5 12q-32 0 -60 -12.5t-49 -34t-33 -51.5t-12 -65t12 -65t33 -51.5t49 -34t60 -12.5z" />
    <glyph glyph-name="e" unicode="e" horiz-adv-x="555" 
d="M308 -10q-57 0 -105.5 20.5t-84 56.5t-55.5 84t-20 104q0 55 20 103.5t55.5 84.5t84 56.5t105.5 20.5q59 0 103 -19.5t70 -42.5q20 -18 20 -42q0 -11 -3.5 -20t-12.5 -20l-154 -183q-15 -18 -38 -18t-37.5 14t-14.5 36q0 9 2.5 17.5t9.5 15.5l121 142q-13 9 -31 13.5
t-35 4.5q-32 0 -60 -12.5t-49 -34.5t-33 -52t-12 -64t12 -63.5t32.5 -51.5t48.5 -35t61 -13q35 0 61.5 13t44.5 32q12 10 22 17.5t26 7.5q23 0 38.5 -15t15.5 -38q0 -18 -16 -36q-29 -35 -78.5 -59t-113.5 -24z" />
    <glyph glyph-name="f" unicode="f" horiz-adv-x="422" 
d="M116 510q6 46 25 83t49 62.5t68.5 39.5t82.5 14q21 0 36 -15t15 -36t-15 -36t-36 -15q-44 0 -74.5 -24.5t-39.5 -72.5h114q21 0 36 -14.5t15 -36.5q0 -21 -15 -36t-36 -15h-117v-361q0 -23 -16 -39.5t-39 -16.5t-39 16.5t-16 39.5v361h-36q-22 0 -36.5 15t-14.5 36
q0 22 14.5 36.5t36.5 14.5h38z" />
    <glyph glyph-name="g" unicode="g" 
d="M296 -10q-54 0 -100.5 20.5t-80 56.5t-53 84t-19.5 104q0 55 19.5 103.5t53 84.5t80 56.5t100.5 20.5q48 0 90.5 -16.5t75.5 -46.5v7q0 23 16 39t39 16t39 -16t16 -39v-399q0 -56 -21 -104.5t-57.5 -84t-86 -56t-105.5 -20.5q-64 0 -113 23.5t-78 56.5q-16 19 -16 37
q0 23 15.5 37.5t38.5 14.5q17 0 27 -8t21 -17q20 -19 46 -30.5t59 -11.5t61 12t49 32t34 47.5t15 58.5q-33 -29 -75 -45.5t-90 -16.5zM308 92q31 0 58.5 11.5t48.5 32.5t33 49.5t14 62.5v7q0 35 -12 65t-33 51.5t-49 34t-60 12.5t-60 -12.5t-49 -34t-33 -51.5t-12 -65
t12 -65t33 -51.5t49 -34t60 -12.5z" />
    <glyph glyph-name="h" unicode="h" horiz-adv-x="577" 
d="M64 654q0 23 16 39t39 16t39 -16t16 -39v-178q24 19 56 31.5t71 12.5q45 0 83.5 -16.5t67.5 -46.5t45.5 -73t16.5 -97v-240q0 -23 -16 -39.5t-39 -16.5t-39 16.5t-16 39.5v244q0 63 -33.5 95t-81.5 32q-24 0 -44.5 -8t-36.5 -24t-25 -40t-9 -55v-244q0 -23 -16 -39.5
t-39 -16.5t-39 16.5t-16 39.5v607z" />
    <glyph glyph-name="i" unicode="i" horiz-adv-x="238" 
d="M64 464q0 23 16 39t39 16t39 -16t16 -39v-417q0 -23 -16 -39.5t-39 -16.5t-39 16.5t-16 39.5v417zM119 577q-27 0 -46 19.5t-19 45.5q0 27 19 46t46 19t46 -19t19 -46q0 -26 -19 -45.5t-46 -19.5z" />
    <glyph glyph-name="j" unicode="j" horiz-adv-x="253" 
d="M79 464q0 23 16 39t39 16t39 -16t16 -39v-426q0 -54 -17.5 -98t-48 -74.5t-72 -47t-90.5 -16.5q-21 0 -36 15t-15 36t15 36t36 15q52 0 85 33.5t33 100.5v426zM134 577q-27 0 -46 19.5t-19 45.5q0 27 19 46t46 19t46 -19t19 -46q0 -26 -19 -45.5t-46 -19.5z" />
    <glyph glyph-name="k" unicode="k" horiz-adv-x="497" 
d="M64 654q0 23 16 39t39 16t39 -16t16 -39v-607q0 -23 -16 -39.5t-39 -16.5t-39 16.5t-16 39.5v607zM214 217q-6 8 -10.5 18.5t-4.5 22.5q0 9 4 19.5t11 18.5l172 205q16 18 38 18t37 -14t15 -36q0 -20 -12 -33l-145 -173l153 -181q13 -16 13 -36q0 -23 -17 -39t-39 -16
q-11 0 -22 5t-19 15z" />
    <glyph glyph-name="l" unicode="l" horiz-adv-x="238" 
d="M64 654q0 23 16 39t39 16t39 -16t16 -39v-607q0 -23 -16 -39.5t-39 -16.5t-39 16.5t-16 39.5v607z" />
    <glyph glyph-name="m" unicode="m" horiz-adv-x="797" 
d="M64 319q0 47 15 84t40.5 63t60 40t74.5 14q46 0 83 -17t62 -57q23 40 61 57t83 17q40 0 74.5 -14t60 -40t40.5 -63t15 -84v-272q0 -23 -16 -39.5t-39 -16.5t-39 16.5t-16 39.5v273q0 50 -24.5 74t-60.5 24q-35 0 -59.5 -24t-24.5 -74v-273q0 -23 -16 -39.5t-39 -16.5
t-39 16.5t-16 39.5v273q0 50 -25 74t-60 24t-60 -24t-25 -74v-273q0 -23 -16 -39.5t-39 -16.5t-39 16.5t-16 39.5v272z" />
    <glyph glyph-name="n" unicode="n" horiz-adv-x="577" 
d="M64 287q0 54 17.5 97t48 73t71.5 46.5t88 16.5t88 -16.5t71.5 -46.5t48 -73t17.5 -97v-240q0 -23 -16 -39.5t-39 -16.5t-39 16.5t-16 39.5v244q0 63 -33.5 95t-81.5 32t-81.5 -32t-33.5 -95v-244q0 -23 -16 -39.5t-39 -16.5t-39 16.5t-16 39.5v240z" />
    <glyph glyph-name="o" unicode="o" horiz-adv-x="616" 
d="M308 -10q-57 0 -105.5 20.5t-84 56.5t-55.5 84t-20 104q0 55 20 103.5t55.5 84.5t84 56.5t105.5 20.5t106 -20.5t84 -56.5t55 -84.5t20 -103.5q0 -56 -20 -104t-55 -84t-84 -56.5t-106 -20.5zM308 92q33 0 61 13t49 35t32.5 52t11.5 63q0 34 -11.5 63.5t-32.5 51.5
t-49 35t-61 13t-61 -13t-49 -35t-32.5 -51.5t-11.5 -63.5q0 -33 11.5 -63t32.5 -52t49 -35t61 -13z" />
    <glyph glyph-name="p" unicode="p" 
d="M340 -10q-48 0 -90.5 16.5t-75.5 45.5v-196q0 -23 -16 -39t-39 -16t-39 16t-16 39v608q0 23 16 39t39 16t39 -16t16 -39v-7q33 30 75.5 46.5t90.5 16.5q54 0 100.5 -20.5t80 -56.5t53 -84.5t19.5 -103.5q0 -56 -19.5 -104t-53 -84t-80 -56.5t-100.5 -20.5zM328 92
q32 0 60 12.5t49 34t33 51.5t12 65t-12 65t-33 51.5t-49 34t-60 12.5t-59.5 -12t-48 -33t-33 -49.5t-13.5 -61.5v-7q0 -35 12 -65t33 -51.5t49 -34t60 -12.5z" />
    <glyph glyph-name="q" unicode="q" 
d="M462 52q-33 -29 -75.5 -45.5t-90.5 -16.5q-54 0 -100.5 20.5t-80 56.5t-53 84t-19.5 104q0 55 19.5 103.5t53 84.5t80 56.5t100.5 20.5q48 0 90.5 -16.5t75.5 -46.5v7q0 23 16 39t39 16t39 -16t16 -39v-608q0 -23 -16 -39t-39 -16t-39 16t-16 39v196zM308 92
q32 0 60 12.5t49 34t33 51.5t12 65v7q-2 33 -14 61.5t-33 49.5t-48.5 33t-58.5 12q-32 0 -60 -12.5t-49 -34t-33 -51.5t-12 -65t12 -65t33 -51.5t49 -34t60 -12.5z" />
    <glyph glyph-name="r" unicode="r" horiz-adv-x="355" 
d="M64 286q0 53 17 96.5t47 74t71 47t90 16.5q21 0 36 -14.5t15 -36.5q0 -21 -15 -36t-36 -15q-50 0 -82.5 -33t-32.5 -99v-239q0 -23 -16 -39.5t-39 -16.5t-39 16.5t-16 39.5v239z" />
    <glyph glyph-name="s" unicode="s" horiz-adv-x="419" 
d="M43 110q0 21 14.5 36t35.5 15q26 0 38 -20q11 -17 29 -34.5t50 -17.5q25 0 41 16t16 38q0 31 -25 46t-60 27q-24 8 -47.5 18.5t-43 27t-31.5 42t-12 64.5q0 32 12.5 59.5t34 48t51 32.5t64.5 12q32 0 61.5 -9t52 -25t36 -36.5t13.5 -44.5q0 -21 -15 -35t-36 -14
q-8 0 -17.5 3.5t-14.5 14.5q-6 7 -14 15.5t-18 15.5t-21.5 12t-26.5 5q-26 0 -41 -16t-15 -38q0 -15 7.5 -26t20 -18.5t29.5 -14t36 -12.5q23 -7 46 -17.5t42 -27.5t30.5 -43t11.5 -63q0 -32 -13 -60t-35.5 -49.5t-53 -34t-65.5 -12.5q-33 0 -63.5 10t-53.5 26.5t-36.5 38.5
t-13.5 45z" />
    <glyph glyph-name="t" unicode="t" horiz-adv-x="409" 
d="M64 408q-21 0 -36 15t-15 36q0 22 15 36.5t36 14.5h36v75q0 23 16 39t39 16t39 -16t16 -39v-75h117q21 0 36 -14.5t15 -36.5q0 -21 -15 -36t-36 -15h-117v-181q0 -66 33 -99.5t84 -33.5q21 0 36 -15t15 -36q0 -22 -15 -37t-36 -15q-48 0 -89.5 16.5t-72 47t-48 74.5
t-17.5 98v181h-36v0z" />
    <glyph glyph-name="u" unicode="u" horiz-adv-x="577" 
d="M64 464q0 23 16 39t39 16t39 -16t16 -39v-244q0 -63 33.5 -95.5t81.5 -32.5t81.5 32.5t33.5 95.5v244q0 23 16 39t39 16t39 -16t16 -39v-240q0 -54 -17.5 -97t-48 -73.5t-71.5 -47t-88 -16.5t-88 16.5t-71.5 47t-48 73.5t-17.5 97v240z" />
    <glyph glyph-name="v" unicode="v" horiz-adv-x="539" 
d="M64 464q0 23 16 39t39 16t39 -16t16 -39v-279l265 316q16 18 38 18t37 -14t15 -36q0 -18 -12 -33l-357 -426q-16 -19 -41 -19q-23 0 -39 16.5t-16 39.5v417z" />
    <glyph glyph-name="w" unicode="w" horiz-adv-x="815" 
d="M119 -9q-23 0 -39 16.5t-16 39.5v417q0 23 16 39t39 16t39 -16t16 -39v-279l166 199v80q0 23 16 39t39 16t39 -16t16 -39v-279l265 316q16 18 38 18q23 0 37.5 -14t14.5 -36q0 -18 -12 -33l-357 -426q-15 -19 -41 -19q-23 0 -39 16.5t-16 39.5v178l-180 -215
q-16 -19 -41 -19z" />
    <glyph glyph-name="x" unicode="x" horiz-adv-x="518" 
d="M256 173l-137 -163q-16 -19 -38 -19t-37 14.5t-15 36.5q0 20 12 33l149 177l-149 177q-13 16 -13 35q0 24 17 39.5t39 15.5q25 0 41 -19l137 -163l137 164q16 18 38 18t37 -14t15 -36q0 -20 -12 -33l-149 -177l149 -177q13 -16 13 -36q0 -23 -17 -39t-39 -16q-11 0 -22 5
t-19 15z" />
    <glyph glyph-name="y" unicode="y" horiz-adv-x="554" 
d="M79 54v410q0 23 16 39t39 16t39 -16t16 -39v-279l265 316q16 18 38 18t37 -14t15 -36q0 -20 -12 -33l-517 -617q-17 -18 -38 -18q-23 0 -38 14t-15 36q0 18 12 33z" />
    <glyph glyph-name="z" unicode="z" horiz-adv-x="504" 
d="M312 408h-221q-21 0 -36 15t-15 36q0 22 15 36.5t36 14.5h331q21 0 36 -14.5t15 -36.5q0 -19 -16 -36l-269 -321h234q21 0 36 -14.5t15 -36.5q0 -21 -15 -36t-36 -15h-343q-21 0 -36 15t-15 37q0 12 4.5 20t10.5 16z" />
    <glyph glyph-name="braceleft" unicode="{" horiz-adv-x="414" 
d="M195 350q35 -17 54.5 -49t19.5 -78v-154q0 -33 17.5 -55t46.5 -22q22 0 36.5 -15t14.5 -36t-14.5 -36t-36.5 -15q-38 0 -70 14t-55 38t-36 56.5t-13 70.5v154q0 33 -17.5 54.5t-46.5 21.5q-21 0 -36 15t-15 36q0 22 15 36.5t36 14.5q29 0 46.5 22t17.5 55v154
q0 37 13 69.5t36 56.5t55 38t70 14q22 0 36.5 -15t14.5 -36t-14.5 -36t-36.5 -15q-29 0 -46.5 -21.5t-17.5 -54.5v-154q0 -47 -19.5 -79t-54.5 -49z" />
    <glyph glyph-name="bar" unicode="|" horiz-adv-x="310" 
d="M100 755q0 23 16 39t39 16t39 -16t16 -39v-810q0 -23 -16 -39t-39 -16t-39 16t-16 39v810z" />
    <glyph glyph-name="braceright" unicode="}" horiz-adv-x="414" 
d="M220 350q-35 18 -54.5 49.5t-19.5 78.5v154q0 33 -17.5 54.5t-47.5 21.5q-21 0 -36 15t-15 36t15 36t37 15q38 0 70 -14t55 -38t36 -56.5t13 -69.5v-154q0 -33 17.5 -55t46.5 -22q21 0 36 -14.5t15 -36.5q0 -21 -15 -36t-36 -15q-29 0 -46.5 -21.5t-17.5 -54.5v-154
q0 -38 -13 -70.5t-36 -56.5t-55 -38t-70 -14q-22 0 -37 15t-15 36t15 36t36 15q30 0 47.5 22t17.5 55v154q0 46 19.5 78t54.5 49z" />
    <glyph glyph-name="asciitilde" unicode="~" horiz-adv-x="539" 
d="M201 327q-14 0 -22.5 -5.5t-14.5 -14t-10.5 -18t-8.5 -16.5q-5 -7 -12.5 -12.5t-22.5 -5.5q-24 0 -42 13.5t-18 38.5q0 4 1.5 12.5t4.5 14.5q6 15 17 33t27 34.5t37.5 27.5t49.5 11t50.5 -11.5t40.5 -25.5t33 -25.5t28 -11.5q14 0 23 6.5t15.5 16.5t11 20t10.5 18
q5 5 12.5 8.5t18.5 3.5q24 0 41.5 -14t17.5 -39q0 -3 -1.5 -11.5t-4.5 -14.5q-6 -15 -17 -33.5t-27 -34.5t-37.5 -27t-48.5 -11q-28 0 -50.5 11.5t-40.5 25t-33 25t-28 11.5z" />
    <glyph glyph-name="nonbreakingspace" unicode="&#xa0;" horiz-adv-x="250" 
 />
    <glyph glyph-name="exclamdown" unicode="&#xa1;" horiz-adv-x="278" 
d="M84 278q0 23 16 39t39 16t39 -16t16 -39v-422q0 -23 -16 -39t-39 -16t-39 16t-16 39v422zM139 382q-29 0 -49 19.5t-20 48.5t20 49t49 20t49 -20t20 -49t-20 -48.5t-49 -19.5z" />
    <glyph glyph-name="cent" unicode="&#xa2;" horiz-adv-x="556" 
d="M248 -3q-45 10 -83 33.5t-65 57.5t-42 76.5t-15 90.5t15 90.5t42 76.5t65 57.5t83 33.5v71q0 24 17 41.5t42 17.5q24 0 41 -17.5t17 -41.5v-70q44 -9 78.5 -29t56.5 -46q16 -19 16 -38q0 -23 -15.5 -37t-38.5 -14q-17 0 -26.5 7t-20.5 16q-19 19 -45 32t-62 13
q-32 0 -60 -12.5t-49 -34.5t-33 -52t-12 -64t12 -63.5t33 -51.5t49 -35t60 -13q35 0 61.5 13t44.5 32q11 9 21 17t27 8q23 0 38.5 -15t15.5 -38q0 -18 -16 -36q-22 -26 -56.5 -47.5t-78.5 -29.5v-70q0 -24 -17 -41.5t-41 -17.5q-25 0 -42 17.5t-17 41.5v71z" />
    <glyph glyph-name="sterling" unicode="&#xa3;" horiz-adv-x="547" 
d="M64 271h-31q-21 0 -36.5 14.5t-15.5 36.5q0 21 15.5 36t36.5 15h31v128q0 44 16.5 82.5t45.5 66.5t69 44t87 16q46 0 85.5 -16t68.5 -43.5t45.5 -65.5t16.5 -82q0 -26 -17 -43.5t-42 -17.5q-24 0 -41 17.5t-17 43.5q-1 43 -29 70.5t-70 27.5q-43 0 -71.5 -28t-28.5 -72
v-128h102q21 0 36 -15t15 -36q0 -22 -15 -36.5t-36 -14.5h-102v-161h262q23 0 39 -16t16 -39t-16 -39t-39 -16h-321q-24 0 -41.5 17.5t-17.5 41.5v212z" />
    <glyph glyph-name="currency" unicode="&#xa4;" horiz-adv-x="598" 
d="M299 145q-56 0 -102 26l-52 -53q-16 -16 -39 -16t-37.5 17t-14.5 40q0 17 15 34l49 49q-32 49 -32 109q0 59 32 108l-49 49q-15 16 -15 38q0 23 16 38t36 15q23 0 39 -16l52 -53q23 13 48.5 20t53.5 7t53.5 -7t48.5 -20l52 53q16 16 39 16q20 0 36 -15t16 -38
q0 -10 -3.5 -20t-11.5 -18l-48 -49q15 -23 23.5 -51t8.5 -57q0 -31 -8.5 -58.5t-23.5 -50.5l48 -49q15 -17 15 -34q0 -23 -14.5 -40t-37.5 -17t-38 16l-53 53q-44 -26 -102 -26zM299 254q41 0 69 27.5t28 69.5q0 41 -28 68.5t-69 27.5t-68.5 -27.5t-27.5 -68.5
q0 -42 27.5 -69.5t68.5 -27.5z" />
    <glyph glyph-name="yen" unicode="&#xa5;" horiz-adv-x="651" 
d="M267 277h-119q-22 0 -36.5 15t-14.5 36t14.5 36t36.5 15h77l-196 234q-14 17 -14 38q0 25 17 41.5t41 16.5q28 0 46 -21l209 -249l211 250q8 10 19.5 15t23.5 5q23 0 38.5 -16t15.5 -39q0 -20 -12 -35l-202 -240h82q21 0 36 -15t15 -36t-15 -36t-36 -15h-119v-227
q0 -24 -17.5 -41.5t-41.5 -17.5t-41.5 17.5t-17.5 41.5v227z" />
    <glyph glyph-name="brokenbar" unicode="&#xa6;" horiz-adv-x="310" 
d="M100 218q0 23 16 39t39 16t39 -16t16 -39v-273q0 -23 -16 -39t-39 -16t-39 16t-16 39v273zM100 755q0 23 16 39t39 16t39 -16t16 -39v-272q0 -23 -16 -39t-39 -16t-39 16t-16 39v272z" />
    <glyph glyph-name="section" unicode="&#xa7;" horiz-adv-x="511" 
d="M256 -200q-42 0 -78 14.5t-62.5 39.5t-42 59t-15.5 72q0 24 15.5 41t42.5 17q26 0 42.5 -17t16.5 -41q2 -29 23.5 -51.5t57.5 -22.5q17 0 31.5 6t25 16.5t16.5 24t6 28.5q0 37 -24 56.5t-56 21.5q-45 4 -81.5 20t-62 41.5t-39 58.5t-13.5 71q0 43 19 79t48 59
q-29 21 -48 53.5t-19 77.5q0 38 15.5 72t42 59.5t62.5 40t77 14.5q42 0 78 -14.5t62.5 -39.5t42 -59t15.5 -72q0 -24 -15.5 -40.5t-42.5 -16.5t-43 16.5t-17 40.5q-2 29 -23 51.5t-57 22.5q-17 0 -31.5 -6t-25 -16.5t-16.5 -24t-6 -28.5q0 -38 25 -56t55 -20q45 -3 81 -19.5
t61.5 -42t39.5 -59.5t14 -72q0 -42 -18.5 -77.5t-48.5 -58.5q29 -21 48 -54t19 -79q0 -38 -15.5 -72t-42 -59.5t-62.5 -40t-77 -14.5zM256 175q32 0 55.5 22.5t23.5 57.5t-22 58t-57 23q-32 0 -55.5 -23t-23.5 -58t22 -57.5t57 -22.5z" />
    <glyph glyph-name="dieresis" unicode="&#xa8;" horiz-adv-x="435" 
d="M115 577q-26 0 -45.5 19.5t-19.5 45.5q0 27 19.5 46t45.5 19q27 0 46 -19t19 -46q0 -26 -19 -45.5t-46 -19.5zM320 577q-26 0 -45.5 19.5t-19.5 45.5q0 27 19.5 46t45.5 19q27 0 46 -19t19 -46q0 -26 -19 -45.5t-46 -19.5z" />
    <glyph glyph-name="copyright" unicode="&#xa9;" horiz-adv-x="822" 
d="M411 -10q-75 0 -141 28t-115 77t-77 114.5t-28 140.5t28 141t77 114.5t115 76.5t141 28t141 -28t115 -76.5t77 -114.5t28 -141t-28 -140.5t-77 -114.5t-115 -77t-141 -28zM410 76q56 0 105.5 22t86 60.5t58 89.5t21.5 109t-21.5 107t-58 85t-86 56t-105.5 20t-105 -21.5
t-85.5 -58.5t-58 -87t-21.5 -108t21.5 -108t58 -87t85.5 -58t105 -21zM416 147q-45 0 -82.5 16t-64.5 43.5t-42.5 65t-15.5 79.5q0 43 15.5 80t42.5 65t64.5 44t82.5 16q48 0 87 -19t63 -45q8 -8 10.5 -15.5t2.5 -15.5q0 -17 -13.5 -29.5t-33.5 -12.5q-12 0 -19.5 5.5
t-16.5 13.5q-14 14 -34 24.5t-46 10.5q-24 0 -45 -10t-36.5 -26.5t-24 -38.5t-8.5 -47q0 -24 8.5 -46t24 -38.5t36.5 -26.5t45 -10q23 0 44 10t35 24q9 8 18 14t20 6q20 0 32 -12.5t12 -30.5q0 -17 -13 -31q-23 -26 -61.5 -44.5t-86.5 -18.5z" />
    <glyph glyph-name="ordfeminine" unicode="&#xaa;" horiz-adv-x="467" 
d="M313 530q0 18 -6.5 33.5t-17.5 27t-26 18t-32 6.5q-33 0 -56.5 -25t-23.5 -60q0 -33 22.5 -58.5t57.5 -25.5q7 0 10.5 0.5t8.5 0.5q20 0 34 -14t14 -34t-13 -32.5t-27 -14.5q-5 -1 -11.5 -1.5t-15.5 -0.5q-35 0 -68 13t-58 37t-40 57t-15 73q0 38 14.5 71t39 57t57.5 38
t70 14q38 0 71 -14t58 -38t39 -57t14 -71v-129q0 -21 -15 -35.5t-35 -14.5q-21 0 -35.5 14.5t-14.5 35.5v129z" />
    <glyph glyph-name="guillemotleft" unicode="&#xab;" horiz-adv-x="578" 
d="M52 217q-8 9 -12.5 18t-4.5 20t4.5 20.5t12.5 18.5l168 178q8 8 18 12.5t21 4.5q23 0 38.5 -15t15.5 -38q0 -18 -14 -34l-141 -147l141 -147q6 -7 10 -15.5t4 -17.5q0 -23 -15.5 -38.5t-38.5 -15.5q-22 0 -40 18zM282 217q-8 9 -12.5 18t-4.5 20t4.5 20.5t12.5 18.5
l168 178q8 8 18 12.5t21 4.5q23 0 38.5 -15t15.5 -38q0 -18 -14 -34l-141 -147l141 -147q6 -7 10 -15.5t4 -17.5q0 -23 -15.5 -38.5t-38.5 -15.5q-22 0 -40 18z" />
    <glyph glyph-name="logicalnot" unicode="&#xac;" horiz-adv-x="536" 
d="M103 298q-22 0 -37.5 15t-15.5 37q0 23 15.5 38.5t37.5 15.5h330q22 0 37.5 -15.5t15.5 -37.5v-157q0 -23 -16.5 -40t-40.5 -17q-23 0 -40 17t-17 40v104h-269z" />
    <glyph glyph-name="uni00AD" unicode="&#xad;" horiz-adv-x="375" 
d="M293 308q22 0 37 -15.5t15 -37.5t-15 -37.5t-37 -15.5h-210q-22 0 -37.5 15.5t-15.5 37.5t15.5 37.5t37.5 15.5h210z" />
    <glyph glyph-name="registered" unicode="&#xae;" horiz-adv-x="539" 
d="M268 336q-47 0 -87.5 17t-70.5 46.5t-47 69.5t-17 86q0 45 17 85t47 70t70.5 47.5t87.5 17.5q46 0 87 -17.5t71.5 -47.5t48 -70t17.5 -85q0 -46 -17.5 -86t-48 -69.5t-71.5 -46.5t-87 -17zM268 393q34 0 64 12.5t52 34.5t34.5 51.5t12.5 63.5t-12.5 63.5t-34.5 51.5
t-52 35t-64 13t-63.5 -13t-51 -35t-34 -51.5t-12.5 -63.5t12.5 -63.5t34 -51.5t51 -34.5t63.5 -12.5zM209 431q-11 0 -20.5 8.5t-9.5 21.5v194q0 11 9 19.5t20 8.5h79q48 0 72.5 -25t24.5 -60q0 -28 -15 -44t-32 -21q-3 -2 -7 -2.5t-6 -1.5l39 -52q5 -8 5 -19
q0 -10 -7.5 -18.5t-20.5 -8.5q-15 0 -22 12l-57 79q-3 6 -5.5 10.5t-2.5 10.5q0 12 7.5 20t21.5 8h8q14 0 24 6t10 21q0 16 -10.5 22t-24.5 6h-50v-165q0 -13 -9.5 -21.5t-20.5 -8.5z" />
    <glyph glyph-name="macron" unicode="&#xaf;" horiz-adv-x="421" 
d="M101 577q-21 0 -36 15t-15 36q0 22 15 36.5t36 14.5h219q21 0 36 -14.5t15 -36.5q0 -21 -15 -36t-36 -15h-219v0z" />
    <glyph glyph-name="degree" unicode="&#xb0;" horiz-adv-x="454" 
d="M227 360q-36 0 -68.5 13.5t-56.5 37t-38 55.5t-14 69t14 69t38 55.5t56.5 37t68.5 13.5q37 0 69 -13.5t56 -37t38 -55.5t14 -69t-14 -69t-38 -55.5t-56 -37t-69 -13.5zM227 455q32 0 54.5 23.5t22.5 56.5t-22.5 56.5t-54.5 23.5t-54 -23.5t-22 -56.5t22 -56.5t54 -23.5z
" />
    <glyph glyph-name="plusminus" unicode="&#xb1;" horiz-adv-x="536" 
d="M103 0q-22 0 -37.5 15.5t-15.5 37.5q0 23 15.5 38t37.5 15h330q22 0 37.5 -15t15.5 -37q0 -23 -15.5 -38.5t-37.5 -15.5h-330zM211 328h-108q-22 0 -37.5 15t-15.5 37q0 23 15.5 38.5t37.5 15.5h108v104q0 23 16.5 40t40.5 17q23 0 40 -17t17 -40v-104h108
q22 0 37.5 -15.5t15.5 -37.5q0 -23 -15.5 -38t-37.5 -15h-108v-104q0 -23 -16.5 -40t-40.5 -17q-23 0 -40 17t-17 40v104z" />
    <glyph glyph-name="twosuperior" unicode="&#xb2;" horiz-adv-x="387" 
d="M221 549q7 8 11.5 15.5t4.5 18.5q0 18 -13 30t-29 12q-19 0 -30 -13.5t-11 -30.5q-2 -14 -12 -27t-33 -13q-20 0 -33.5 11t-13.5 32q0 27 10 50t27.5 40t41.5 26.5t53 9.5q28 0 53 -9.5t43.5 -27t29 -40.5t10.5 -50q0 -25 -8 -43.5t-27 -38.5l-105 -119h100
q20 0 32.5 -13t12.5 -33q0 -19 -12.5 -31.5t-32.5 -12.5h-195q-19 0 -32 12.5t-13 31.5q0 8 3 16t10 16z" />
    <glyph glyph-name="threesuperior" unicode="&#xb3;" horiz-adv-x="370" 
d="M183 282q-28 0 -52 9.5t-42 26t-28.5 39.5t-10.5 51q0 20 13.5 31.5t34.5 11.5q17 0 29.5 -10t14.5 -30q2 -22 14 -32.5t29 -10.5q19 0 31.5 12.5t12.5 30.5q0 20 -13 32t-31 12q-14 0 -26 12t-12 30q0 19 12 30.5t26 11.5q18 0 30.5 12t12.5 31q0 18 -12 30.5t-31 12.5
q-16 0 -28.5 -11t-14.5 -33q-2 -20 -14.5 -30t-29.5 -10q-21 0 -34.5 11.5t-13.5 31.5q0 28 10.5 51t28.5 39.5t42 26t52 9.5t53 -9.5t43.5 -26.5t29 -40.5t10.5 -50.5q0 -54 -44 -86q45 -34 45 -87q0 -28 -10.5 -51.5t-29.5 -40.5t-44 -26.5t-53 -9.5z" />
    <glyph glyph-name="acute" unicode="&#xb4;" horiz-adv-x="292" 
d="M147 738q16 19 41 19q22 0 38 -15.5t16 -37.5q0 -18 -12 -33l-85 -102q-8 -8 -18.5 -13.5t-21.5 -5.5q-21 0 -38 15.5t-17 37.5q0 17 13 33z" />
    <glyph glyph-name="uni00B5" unicode="&#xb5;" horiz-adv-x="577" 
d="M64 464q0 23 16 39t39 16t39 -16t16 -39v-244q0 -63 33.5 -95.5t81.5 -32.5t81.5 32.5t33.5 95.5v244q0 23 16 39t39 16t39 -16t16 -39v-240q0 -54 -17.5 -97t-48 -73.5t-71.5 -47t-88 -16.5q-35 0 -63.5 9t-51.5 23v-166q0 -23 -16 -39t-39 -16t-39 16t-16 39v608z" />
    <glyph glyph-name="paragraph" unicode="&#xb6;" horiz-adv-x="592" 
d="M254 290q-46 0 -85 16t-67 44t-43.5 65.5t-15.5 80.5q0 42 15.5 79t43.5 65t67 44t85 16h220q23 0 39 -16t16 -39v-598q0 -23 -16 -39.5t-39 -16.5t-39 16.5t-16 39.5v544h-55v-544q0 -23 -16 -39.5t-39 -16.5t-39 16.5t-16 39.5v243z" />
    <glyph glyph-name="periodcentered" unicode="&#xb7;" horiz-adv-x="238" 
d="M119 282q-29 0 -49 20t-20 49t20 48.5t49 19.5t49 -19.5t20 -48.5t-20 -49t-49 -20z" />
    <glyph glyph-name="cedilla" unicode="&#xb8;" horiz-adv-x="320" 
d="M101 -190q-21 0 -36 14.5t-15 36.5q0 20 14 35t37 15h17q22 0 36.5 13t14.5 39v46h101v-59q0 -63 -37 -101.5t-99 -38.5h-33v0z" />
    <glyph glyph-name="onesuperior" unicode="&#xb9;" horiz-adv-x="309" 
d="M158 605h-60q-20 0 -34 14.5t-14 32.5q0 20 14 34t34 14h112q20 0 34.5 -14.5t14.5 -34.5v-318q0 -21 -14.5 -35.5t-36.5 -14.5q-21 0 -35.5 14.5t-14.5 35.5v272z" />
    <glyph glyph-name="ordmasculine" unicode="&#xba;" horiz-adv-x="463" 
d="M231 350q-37 0 -70 14t-57.5 38t-39 57t-14.5 71t14.5 71t39 57t57.5 38t70 14q38 0 71 -14t58 -38t39 -57t14 -71t-14 -71t-39 -57t-58 -38t-71 -14zM231 446q35 0 58.5 24.5t23.5 59.5q0 18 -6.5 33.5t-17.5 27t-26 18t-32 6.5q-33 0 -56.5 -25t-23.5 -60t23.5 -59.5
t56.5 -24.5z" />
    <glyph glyph-name="guillemotright" unicode="&#xbb;" horiz-adv-x="578" 
d="M190 255l-141 147q-14 16 -14 34q0 23 15.5 38t38.5 15q11 0 21 -4.5t18 -12.5l168 -178q8 -9 12.5 -18.5t4.5 -20.5t-4.5 -20t-12.5 -18l-167 -178q-18 -18 -40 -18q-23 0 -38.5 15.5t-15.5 38.5q0 9 4 17.5t10 15.5zM420 255l-141 147q-14 16 -14 34q0 23 15.5 38
t38.5 15q11 0 21 -4.5t18 -12.5l168 -178q17 -20 17 -39q0 -11 -4.5 -20t-12.5 -18l-167 -178q-18 -18 -40 -18q-23 0 -38.5 15.5t-15.5 38.5q0 9 4 17.5t10 15.5z" />
    <glyph glyph-name="onequarter" unicode="&#xbc;" horiz-adv-x="856" 
d="M208 283q-21 0 -35.5 14.5t-14.5 35.5v272h-60q-20 0 -34 14.5t-14 32.5q0 20 14 34t34 14h112q20 0 34.5 -14.5t14.5 -34.5v-318q0 -21 -14.5 -35.5t-36.5 -14.5zM691 -9q-21 0 -34.5 14t-13.5 34v44h-164q-20 0 -32 13t-12 32q0 6 3 14.5t8 13.5l207 245q8 10 18.5 14
t19.5 4q21 0 34.5 -13.5t13.5 -33.5v-210h27q17 0 28.5 -12t11.5 -28q0 -17 -11.5 -28t-28.5 -11h-27v-44q0 -20 -13.5 -34t-34.5 -14zM649 273l-92 -111h92v111zM171 -9q-21 0 -36 15t-15 37q0 18 12 33l517 615q8 9 18 13.5t21 4.5q21 0 36 -15t15 -36q0 -8 -2.5 -16.5
t-9.5 -16.5l-516 -615q-15 -19 -40 -19z" />
    <glyph glyph-name="onehalf" unicode="&#xbd;" horiz-adv-x="898" 
d="M210 283q-21 0 -35.5 14.5t-14.5 35.5v272h-60q-20 0 -34 14.5t-14 32.5q0 20 14 34t34 14h112q20 0 34.5 -14.5t14.5 -34.5v-318q0 -21 -14.5 -35.5t-36.5 -14.5zM801 91q20 0 33 -13t13 -33t-13 -32.5t-33 -12.5h-194q-20 0 -32.5 12.5t-12.5 32.5q0 8 3 16.5t10 16.5
l158 180q6 8 11 16t5 17q0 19 -13 30.5t-30 11.5q-18 0 -29 -13t-12 -30q-2 -14 -12 -27t-33 -13q-20 0 -33.5 10.5t-13.5 32.5q0 27 10 50t27.5 40t42 26.5t53.5 9.5q28 0 52.5 -9.5t43 -27t29 -41t10.5 -50.5q0 -24 -8 -42.5t-27 -39.5l-104 -118h99zM168 -9q-21 0 -36 15
t-15 37q0 18 12 33l517 615q8 9 18 13.5t21 4.5q21 0 36 -15t15 -36q0 -8 -2.5 -16.5t-9.5 -16.5l-516 -615q-15 -19 -40 -19z" />
    <glyph glyph-name="threequarters" unicode="&#xbe;" horiz-adv-x="875" 
d="M183 282q-28 0 -52 9.5t-42 26t-28.5 39.5t-10.5 51q0 20 13.5 31.5t34.5 11.5q17 0 29.5 -10t14.5 -30q2 -22 14 -32.5t29 -10.5q19 0 31.5 12.5t12.5 30.5q0 20 -13 32t-31 12q-14 0 -26 12t-12 30q0 19 12 30.5t26 11.5q18 0 30.5 12t12.5 31q0 18 -12 30.5t-31 12.5
q-16 0 -28.5 -11t-14.5 -33q-2 -20 -14.5 -30t-29.5 -10q-21 0 -34.5 11.5t-13.5 31.5q0 28 10.5 51t28.5 39.5t42 26t52 9.5t53 -9.5t43.5 -26.5t29 -40.5t10.5 -50.5q0 -54 -44 -86q45 -34 45 -87q0 -28 -10.5 -51.5t-29.5 -40.5t-44 -26.5t-53 -9.5zM711 -9q-21 0 -35 14
t-14 34v44h-163q-20 0 -32 13t-12 32q0 6 3 14.5t7 13.5l208 245q8 10 18 14t20 4q21 0 34.5 -13.5t13.5 -33.5v-210h27q17 0 28 -12t11 -28q0 -17 -11 -28t-28 -11h-27v-44q0 -20 -13.5 -34t-34.5 -14zM668 273l-91 -111h91v111zM189 -9q-21 0 -36 15t-15 37q0 18 12 33
l517 615q8 9 18 13.5t21 4.5q21 0 36 -15t15 -36q0 -8 -2.5 -16.5t-9.5 -16.5l-516 -615q-15 -19 -40 -19z" />
    <glyph glyph-name="questiondown" unicode="&#xbf;" horiz-adv-x="512" 
d="M256 382q-29 0 -48.5 19.5t-19.5 48.5t19.5 49t48.5 20t49 -20t20 -49t-20 -48.5t-49 -19.5zM256 -200q-43 0 -80.5 15.5t-65.5 42.5t-44 63.5t-16 77.5q0 46 15.5 80t50.5 66l85 82v51q0 23 16 39t39 16t39 -16t16 -39v-56q0 -14 -4.5 -26t-19.5 -26l-95 -94
q-19 -19 -25.5 -37t-6.5 -40q0 -40 27.5 -68.5t68.5 -28.5t68 27.5t28 67.5q0 23 16 39.5t39 16.5t39 -16.5t16 -39.5q0 -41 -16.5 -77t-44 -62.5t-65 -42t-80.5 -15.5z" />
    <glyph glyph-name="Agrave" unicode="&#xc0;" horiz-adv-x="699" 
d="M529 686q11 13 23.5 18t24.5 5q24 0 41 -17t17 -42v-600q0 -24 -17 -41.5t-41 -17.5q-25 0 -42 17.5t-17 41.5v97h-136q-23 0 -39 16t-16 39t16 39t39 16h136v244l-410 -490q-8 -8 -20 -14t-23 -6q-23 0 -39 16t-16 39q0 9 2.5 17.5t10.5 18.5zM455 851q-13 14 -13 34
q0 23 17 39.5t40 16.5q25 0 43 -20l81 -98q13 -14 13 -34q0 -23 -17 -39t-40 -16q-26 0 -42 19z" />
    <glyph glyph-name="Aacute" unicode="&#xc1;" horiz-adv-x="699" 
d="M529 686q11 13 23.5 18t24.5 5q24 0 41 -17t17 -42v-600q0 -24 -17 -41.5t-41 -17.5q-25 0 -42 17.5t-17 41.5v97h-136q-23 0 -39 16t-16 39t16 39t39 16h136v244l-410 -490q-8 -8 -20 -14t-23 -6q-23 0 -39 16t-16 39q0 9 2.5 17.5t10.5 18.5zM679 921q17 20 43 20
q23 0 39 -15.5t16 -38.5q0 -9 -3 -18.5t-10 -17.5l-82 -98q-17 -20 -43 -20q-23 0 -39 16t-16 39q0 9 3 18t10 17z" />
    <glyph glyph-name="Acircumflex" unicode="&#xc2;" horiz-adv-x="699" 
d="M529 686q11 13 23.5 18t24.5 5q24 0 41 -17t17 -42v-600q0 -24 -17 -41.5t-41 -17.5q-25 0 -42 17.5t-17 41.5v97h-136q-23 0 -39 16t-16 39t16 39t39 16h136v244l-410 -490q-8 -8 -20 -14t-23 -6q-23 0 -39 16t-16 39q0 9 2.5 17.5t10.5 18.5zM547 927q15 10 30 10
q11 0 18 -3t12 -7l115 -88q21 -15 21 -39q0 -23 -15 -38.5t-37 -15.5q-19 0 -38 14l-76 63l-75 -63q-19 -14 -39 -14q-23 0 -37.5 17t-14.5 37q0 23 21 39z" />
    <glyph glyph-name="Atilde" unicode="&#xc3;" horiz-adv-x="699" 
d="M529 686q11 13 23.5 18t24.5 5q24 0 41 -17t17 -42v-600q0 -24 -17 -41.5t-41 -17.5q-25 0 -42 17.5t-17 41.5v97h-136q-23 0 -39 16t-16 39t16 39t39 16h136v244l-410 -490q-8 -8 -20 -14t-23 -6q-23 0 -39 16t-16 39q0 9 2.5 17.5t10.5 18.5zM522 806q-12 0 -19 -5
t-12 -12.5t-8.5 -15.5t-8.5 -14q-10 -12 -29 -12q-23 0 -39.5 12.5t-16.5 35.5q0 2 1.5 10t3.5 14q6 13 15.5 28.5t23.5 29.5t33 23.5t43 9.5q25 0 44 -9t35 -20.5t28.5 -20.5t23.5 -9q13 0 20.5 6t12.5 14.5t9 17.5t12 15q4 2 9.5 4t12.5 2q23 0 39.5 -12.5t16.5 -35.5
q0 -2 -1.5 -10t-3.5 -14q-6 -13 -15.5 -28.5t-23.5 -29.5t-33 -23.5t-43 -9.5t-43.5 9t-35 20.5t-28 20.5t-23.5 9z" />
    <glyph glyph-name="Adieresis" unicode="&#xc4;" horiz-adv-x="699" 
d="M529 686q11 13 23.5 18t24.5 5q24 0 41 -17t17 -42v-600q0 -24 -17 -41.5t-41 -17.5q-25 0 -42 17.5t-17 41.5v97h-136q-23 0 -39 16t-16 39t16 39t39 16h136v244l-410 -490q-8 -8 -20 -14t-23 -6q-23 0 -39 16t-16 39q0 9 2.5 17.5t10.5 18.5zM470 759q-29 0 -49 20
t-20 49t20 48.5t49 19.5t49 -19.5t20 -48.5t-20 -49t-49 -20zM687 759q-29 0 -49 20t-20 49t20 48.5t49 19.5t49 -19.5t20 -48.5t-20 -49t-49 -20z" />
    <glyph glyph-name="Aring" unicode="&#xc5;" horiz-adv-x="699" 
d="M529 686q11 13 23.5 18t24.5 5q24 0 41 -17t17 -42v-600q0 -24 -17 -41.5t-41 -17.5q-25 0 -42 17.5t-17 41.5v97h-136q-23 0 -39 16t-16 39t16 39t39 16h136v244l-410 -490q-8 -8 -20 -14t-23 -6q-23 0 -39 16t-16 39q0 9 2.5 17.5t10.5 18.5zM577 743q-27 0 -50.5 9.5
t-40.5 26.5t-27 39.5t-10 48.5t10 48.5t27 39.5t40.5 26.5t50.5 9.5t50.5 -9.5t40.5 -26.5t27 -39.5t10 -48.5t-10 -48.5t-27 -39.5t-40.5 -26.5t-50.5 -9.5zM577 820q20 0 33.5 13.5t13.5 33.5q0 19 -13.5 33t-33.5 14q-19 0 -32.5 -14t-13.5 -33q0 -20 13.5 -33.5
t32.5 -13.5z" />
    <glyph glyph-name="AE" unicode="&#xc6;" horiz-adv-x="944" 
d="M522 677q11 13 23.5 18t24.5 5h276q23 0 39 -15.5t16 -38.5t-16 -39t-39 -16h-211v-186h211q23 0 39 -16t16 -39t-16 -38.5t-39 -15.5h-211v-186h211q23 0 39 -16t16 -39t-16 -39t-39 -16h-269q-25 0 -42 17.5t-17 41.5v88h-136q-23 0 -39 16t-16 39t16 39t39 16h136v244
l-410 -489q-8 -11 -20 -16t-23 -5q-23 0 -39 16t-16 39q0 9 2.5 17.5t10.5 18.5z" />
    <glyph glyph-name="Ccedilla" unicode="&#xc7;" horiz-adv-x="727" 
d="M298 -190q-21 0 -36 14.5t-15 36.5q0 20 14 35t37 15h17q22 0 36.5 13t14.5 39v29q-69 6 -128 36.5t-102.5 78t-68 110t-24.5 133.5q0 75 28 141t76 114.5t113.5 76.5t140.5 28q82 0 150 -32t114 -84q8 -8 12 -19t4 -21q0 -24 -17 -41t-42 -17q-21 0 -47 23
q-32 35 -76 56.5t-98 21.5q-50 0 -93 -19t-75 -52.5t-50.5 -78.5t-18.5 -97q0 -51 18.5 -96t50.5 -78.5t75 -52.5t93 -19q54 0 98 21.5t76 56.5q26 23 47 23q25 0 42 -17t17 -41q0 -10 -4 -21t-12 -19q-37 -42 -87.5 -71t-110.5 -40v-46q0 -63 -37 -101.5t-99 -38.5h-33v0z
" />
    <glyph glyph-name="Egrave" unicode="&#xc8;" horiz-adv-x="490" 
d="M151 851q-13 14 -13 34q0 23 17 39.5t40 16.5q25 0 43 -20l81 -98q13 -14 13 -34q0 -23 -17 -39t-40 -16q-26 0 -42 19zM64 642q0 24 17.5 41t41.5 17h270q23 0 38.5 -15.5t15.5 -38.5t-15.5 -39t-38.5 -16h-211v-186h211q23 0 38.5 -16t15.5 -39t-15.5 -38.5
t-38.5 -15.5h-211v-186h211q23 0 38.5 -16t15.5 -39t-15.5 -39t-38.5 -16h-270q-24 0 -41.5 17.5t-17.5 41.5v583z" />
    <glyph glyph-name="Eacute" unicode="&#xc9;" horiz-adv-x="490" 
d="M64 642q0 24 17.5 41t41.5 17h270q23 0 38.5 -15.5t15.5 -38.5t-15.5 -39t-38.5 -16h-211v-186h211q23 0 38.5 -16t15.5 -39t-15.5 -38.5t-38.5 -15.5h-211v-186h211q23 0 38.5 -16t15.5 -39t-15.5 -39t-38.5 -16h-270q-24 0 -41.5 17.5t-17.5 41.5v583zM267 921
q17 20 43 20q23 0 39 -15.5t16 -38.5q0 -9 -3 -18.5t-10 -17.5l-82 -98q-17 -20 -43 -20q-23 0 -39 16t-16 39q0 9 3 18t10 17z" />
    <glyph glyph-name="Ecircumflex" unicode="&#xca;" horiz-adv-x="490" 
d="M220 927q15 10 30 10q11 0 18 -3t12 -7l115 -88q21 -15 21 -39q0 -23 -15 -38.5t-37 -15.5q-19 0 -38 14l-76 63l-75 -63q-19 -14 -39 -14q-23 0 -37.5 17t-14.5 37q0 23 21 39zM64 642q0 24 17.5 41t41.5 17h270q23 0 38.5 -15.5t15.5 -38.5t-15.5 -39t-38.5 -16h-211
v-186h211q23 0 38.5 -16t15.5 -39t-15.5 -38.5t-38.5 -15.5h-211v-186h211q23 0 38.5 -16t15.5 -39t-15.5 -39t-38.5 -16h-270q-24 0 -41.5 17.5t-17.5 41.5v583z" />
    <glyph glyph-name="Edieresis" unicode="&#xcb;" horiz-adv-x="490" 
d="M64 642q0 24 17.5 41t41.5 17h270q23 0 38.5 -15.5t15.5 -38.5t-15.5 -39t-38.5 -16h-211v-186h211q23 0 38.5 -16t15.5 -39t-15.5 -38.5t-38.5 -15.5h-211v-186h211q23 0 38.5 -16t15.5 -39t-15.5 -39t-38.5 -16h-270q-24 0 -41.5 17.5t-17.5 41.5v583zM146 759
q-29 0 -49 20t-20 49t20 48.5t49 19.5t49 -19.5t20 -48.5t-20 -49t-49 -20zM363 759q-29 0 -49 20t-20 49t20 48.5t49 19.5t49 -19.5t20 -48.5t-20 -49t-49 -20z" />
    <glyph glyph-name="Igrave" unicode="&#xcc;" horiz-adv-x="245" 
d="M64 650q0 25 17.5 42t41.5 17t41.5 -17t17.5 -42v-600q0 -24 -17.5 -41.5t-41.5 -17.5t-41.5 17.5t-17.5 41.5v600zM1 851q-13 14 -13 34q0 23 17 39.5t40 16.5q25 0 43 -20l81 -98q13 -14 13 -34q0 -23 -17 -39t-40 -16q-26 0 -42 19z" />
    <glyph glyph-name="Iacute" unicode="&#xcd;" horiz-adv-x="245" 
d="M64 650q0 25 17.5 42t41.5 17t41.5 -17t17.5 -42v-600q0 -24 -17.5 -41.5t-41.5 -17.5t-41.5 17.5t-17.5 41.5v600zM158 921q17 20 43 20q23 0 39 -15.5t16 -38.5q0 -9 -3 -18.5t-10 -17.5l-82 -98q-17 -20 -43 -20q-23 0 -39 16t-16 39q0 9 3 18t10 17z" />
    <glyph glyph-name="Icircumflex" unicode="&#xce;" horiz-adv-x="245" 
d="M64 650q0 25 17.5 42t41.5 17t41.5 -17t17.5 -42v-600q0 -24 -17.5 -41.5t-41.5 -17.5t-41.5 17.5t-17.5 41.5v600zM93 927q15 10 30 10q11 0 18 -3t12 -7l115 -88q21 -15 21 -39q0 -23 -15 -38.5t-37 -15.5q-19 0 -38 14l-76 63l-75 -63q-19 -14 -39 -14q-23 0 -37.5 17
t-14.5 37q0 23 21 39z" />
    <glyph glyph-name="Idieresis" unicode="&#xcf;" horiz-adv-x="245" 
d="M24 757q-30 0 -50 19.5t-20 48.5t20 48.5t50 19.5q29 0 48.5 -19.5t19.5 -48.5t-19.5 -48.5t-48.5 -19.5zM224 757q-29 0 -49 19.5t-20 48.5t20 48.5t49 19.5t48.5 -19.5t19.5 -48.5t-19.5 -48.5t-48.5 -19.5zM64 650q0 25 17.5 42t41.5 17t41.5 -17t17.5 -42v-600
q0 -24 -17.5 -41.5t-41.5 -17.5t-41.5 17.5t-17.5 41.5v600z" />
    <glyph glyph-name="Eth" unicode="&#xd0;" horiz-adv-x="711" 
d="M64 297h-44q-22 0 -37.5 15.5t-15.5 37.5t15.5 37.5t37.5 15.5h44v239q0 24 17.5 41t41.5 17h186q80 0 146 -27.5t113.5 -74.5t73.5 -111t26 -137t-26 -137t-73.5 -111t-113.5 -74.5t-147 -27.5h-185q-24 0 -41.5 17.5t-17.5 41.5v238zM309 110q55 0 99 18.5t75 51
t47.5 76.5t16.5 94t-16.5 94t-47.5 76.5t-75 51.5t-99 19h-127v-188h112q22 0 37.5 -15.5t15.5 -37.5t-15.5 -37.5t-37.5 -15.5h-112v-187h127z" />
    <glyph glyph-name="Ntilde" unicode="&#xd1;" horiz-adv-x="685" 
d="M288 806q-12 0 -19 -5t-12 -12.5t-8.5 -15.5t-8.5 -14q-10 -12 -29 -12q-23 0 -39.5 12.5t-16.5 35.5q0 2 1.5 10t3.5 14q6 13 15.5 28.5t23.5 29.5t33 23.5t43 9.5q25 0 44 -9t35 -20.5t28.5 -20.5t23.5 -9q13 0 20.5 6t12.5 14.5t9 17.5t12 15q4 2 9.5 4t12.5 2
q23 0 39.5 -12.5t16.5 -35.5q0 -2 -1.5 -10t-3.5 -14q-6 -13 -15.5 -28.5t-23.5 -29.5t-33 -23.5t-43 -9.5t-43.5 9t-35 20.5t-28 20.5t-23.5 9zM64 647q0 26 17.5 44t43.5 18q15 0 27.5 -6t19.5 -15l321 -383v345q0 25 17 42t42 17q24 0 41 -17t17 -42v-600
q0 -24 -17 -41.5t-41 -17.5q-25 0 -42 17.5t-17 41.5v73l-311 371v-444q0 -24 -17.5 -41.5t-41.5 -17.5t-41.5 17.5t-17.5 41.5v597z" />
    <glyph glyph-name="Ograve" unicode="&#xd2;" horiz-adv-x="802" 
d="M295 851q-13 14 -13 34q0 23 17 39.5t40 16.5q25 0 43 -20l81 -98q13 -14 13 -34q0 -23 -17 -39t-40 -16q-26 0 -42 19zM401 -10q-75 0 -140.5 28t-113.5 76.5t-76 114.5t-28 141t28 141t76 114.5t113.5 76.5t140.5 28t140.5 -28t114 -76.5t76.5 -114.5t28 -141t-28 -141
t-76.5 -114.5t-114 -76.5t-140.5 -28zM401 104q50 0 93.5 19t75.5 52.5t50.5 78.5t18.5 96q0 52 -18.5 97t-50.5 78.5t-75.5 52.5t-93.5 19t-93 -19t-75 -52.5t-50.5 -78.5t-18.5 -97q0 -51 18.5 -96t50.5 -78.5t75 -52.5t93 -19z" />
    <glyph glyph-name="Oacute" unicode="&#xd3;" horiz-adv-x="802" 
d="M414 921q17 20 43 20q23 0 39 -15.5t16 -38.5q0 -9 -3 -18.5t-10 -17.5l-82 -98q-17 -20 -43 -20q-23 0 -39 16t-16 39q0 9 3 18t10 17zM401 -10q-75 0 -140.5 28t-113.5 76.5t-76 114.5t-28 141t28 141t76 114.5t113.5 76.5t140.5 28t140.5 -28t114 -76.5t76.5 -114.5
t28 -141t-28 -141t-76.5 -114.5t-114 -76.5t-140.5 -28zM401 104q50 0 93.5 19t75.5 52.5t50.5 78.5t18.5 96q0 52 -18.5 97t-50.5 78.5t-75.5 52.5t-93.5 19t-93 -19t-75 -52.5t-50.5 -78.5t-18.5 -97q0 -51 18.5 -96t50.5 -78.5t75 -52.5t93 -19z" />
    <glyph glyph-name="Ocircumflex" unicode="&#xd4;" horiz-adv-x="802" 
d="M371 927q15 10 30 10q11 0 18 -3t12 -7l115 -88q21 -15 21 -39q0 -23 -15 -38.5t-37 -15.5q-19 0 -38 14l-76 63l-75 -63q-19 -14 -39 -14q-23 0 -37.5 17t-14.5 37q0 23 21 39zM401 -10q-75 0 -140.5 28t-113.5 76.5t-76 114.5t-28 141t28 141t76 114.5t113.5 76.5
t140.5 28t140.5 -28t114 -76.5t76.5 -114.5t28 -141t-28 -141t-76.5 -114.5t-114 -76.5t-140.5 -28zM401 104q50 0 93.5 19t75.5 52.5t50.5 78.5t18.5 96q0 52 -18.5 97t-50.5 78.5t-75.5 52.5t-93.5 19t-93 -19t-75 -52.5t-50.5 -78.5t-18.5 -97q0 -51 18.5 -96t50.5 -78.5
t75 -52.5t93 -19z" />
    <glyph glyph-name="Otilde" unicode="&#xd5;" horiz-adv-x="802" 
d="M401 -10q-75 0 -140.5 28t-113.5 76.5t-76 114.5t-28 141t28 141t76 114.5t113.5 76.5t140.5 28t140.5 -28t114 -76.5t76.5 -114.5t28 -141t-28 -141t-76.5 -114.5t-114 -76.5t-140.5 -28zM401 104q50 0 93.5 19t75.5 52.5t50.5 78.5t18.5 96q0 52 -18.5 97t-50.5 78.5
t-75.5 52.5t-93.5 19t-93 -19t-75 -52.5t-50.5 -78.5t-18.5 -97q0 -51 18.5 -96t50.5 -78.5t75 -52.5t93 -19zM346 806q-12 0 -19 -5t-12 -12.5t-8.5 -15.5t-8.5 -14q-10 -12 -29 -12q-23 0 -39.5 12.5t-16.5 35.5q0 2 1.5 10t3.5 14q6 13 15.5 28.5t23.5 29.5t33 23.5
t43 9.5q25 0 44 -9t35 -20.5t28.5 -20.5t23.5 -9q13 0 20.5 6t12.5 14.5t9 17.5t12 15q4 2 9.5 4t12.5 2q23 0 39.5 -12.5t16.5 -35.5q0 -2 -1.5 -10t-3.5 -14q-6 -13 -15.5 -28.5t-23.5 -29.5t-33 -23.5t-43 -9.5t-43.5 9t-35 20.5t-28 20.5t-23.5 9z" />
    <glyph glyph-name="Odieresis" unicode="&#xd6;" horiz-adv-x="802" 
d="M401 -10q-75 0 -140.5 28t-113.5 76.5t-76 114.5t-28 141t28 141t76 114.5t113.5 76.5t140.5 28t140.5 -28t114 -76.5t76.5 -114.5t28 -141t-28 -141t-76.5 -114.5t-114 -76.5t-140.5 -28zM401 104q50 0 93.5 19t75.5 52.5t50.5 78.5t18.5 96q0 52 -18.5 97t-50.5 78.5
t-75.5 52.5t-93.5 19t-93 -19t-75 -52.5t-50.5 -78.5t-18.5 -97q0 -51 18.5 -96t50.5 -78.5t75 -52.5t93 -19zM292 759q-29 0 -49 20t-20 49t20 48.5t49 19.5t49 -19.5t20 -48.5t-20 -49t-49 -20zM509 759q-29 0 -49 20t-20 49t20 48.5t49 19.5t49 -19.5t20 -48.5t-20 -49
t-49 -20z" />
    <glyph glyph-name="multiply" unicode="&#xd7;" horiz-adv-x="486" 
d="M243 274l-102 -103q-14 -15 -39 -15q-23 0 -37.5 16.5t-14.5 39.5q0 10 4.5 18.5t10.5 15.5l103 104l-103 105q-15 16 -15 38q0 23 16 38t36 15q24 0 40 -16l101 -103l102 103q16 16 39 16q20 0 36 -15t16 -38q0 -22 -15 -38l-103 -105l103 -104q15 -15 15 -34
q0 -23 -14.5 -39.5t-37.5 -16.5q-24 0 -39 15z" />
    <glyph glyph-name="Oslash" unicode="&#xd8;" horiz-adv-x="802" 
d="M130 113q-41 48 -64 108t-23 129q0 75 28 141t76 114.5t113.5 76.5t140.5 28q52 0 99 -13.5t88 -38.5l81 97q18 20 43 20q22 0 38 -16.5t16 -39.5q0 -18 -13 -35l-81 -97q42 -48 65 -108t23 -129q0 -75 -28 -141t-76.5 -114.5t-114 -76.5t-140.5 -28q-52 0 -99 13.5
t-88 38.5l-81 -97q-17 -20 -43 -20q-22 0 -38 16t-16 39q0 19 13 36zM164 350q0 -41 11.5 -77.5t32.5 -67.5l304 363q-25 14 -53 21.5t-58 7.5q-50 0 -93 -19t-75 -52.5t-50.5 -78.5t-18.5 -97zM401 104q50 0 93.5 19t75.5 52.5t50.5 78.5t18.5 96q0 41 -12 77.5t-33 67.5
l-304 -363q51 -28 111 -28z" />
    <glyph glyph-name="Ugrave" unicode="&#xd9;" horiz-adv-x="655" 
d="M221 851q-13 14 -13 34q0 23 17 39.5t40 16.5q25 0 43 -20l81 -98q13 -14 13 -34q0 -23 -17 -39t-40 -16q-26 0 -42 19zM327 -10q-55 0 -103 19.5t-83.5 55.5t-56 87t-20.5 114v384q0 25 17.5 42t41.5 17t41.5 -17t17.5 -42v-391q0 -38 11.5 -68t31 -50t46 -30.5
t56.5 -10.5q31 0 58 10.5t46.5 30.5t31 50t11.5 68v391q0 25 17.5 42t41.5 17t41.5 -17t17.5 -42v-384q0 -63 -20.5 -114t-56.5 -87t-84.5 -55.5t-103.5 -19.5z" />
    <glyph glyph-name="Uacute" unicode="&#xda;" horiz-adv-x="655" 
d="M327 -10q-55 0 -103 19.5t-83.5 55.5t-56 87t-20.5 114v384q0 25 17.5 42t41.5 17t41.5 -17t17.5 -42v-391q0 -38 11.5 -68t31 -50t46 -30.5t56.5 -10.5q31 0 58 10.5t46.5 30.5t31 50t11.5 68v391q0 25 17.5 42t41.5 17t41.5 -17t17.5 -42v-384q0 -63 -20.5 -114
t-56.5 -87t-84.5 -55.5t-103.5 -19.5zM338 921q17 20 43 20q23 0 39 -15.5t16 -38.5q0 -9 -3 -18.5t-10 -17.5l-82 -98q-17 -20 -43 -20q-23 0 -39 16t-16 39q0 9 3 18t10 17z" />
    <glyph glyph-name="Ucircumflex" unicode="&#xdb;" horiz-adv-x="655" 
d="M297 927q15 10 30 10q11 0 18 -3t12 -7l115 -88q21 -15 21 -39q0 -23 -15 -38.5t-37 -15.5q-19 0 -38 14l-76 63l-75 -63q-19 -14 -39 -14q-23 0 -37.5 17t-14.5 37q0 23 21 39zM327 -10q-55 0 -103 19.5t-83.5 55.5t-56 87t-20.5 114v384q0 25 17.5 42t41.5 17t41.5 -17
t17.5 -42v-391q0 -38 11.5 -68t31 -50t46 -30.5t56.5 -10.5q31 0 58 10.5t46.5 30.5t31 50t11.5 68v391q0 25 17.5 42t41.5 17t41.5 -17t17.5 -42v-384q0 -63 -20.5 -114t-56.5 -87t-84.5 -55.5t-103.5 -19.5z" />
    <glyph glyph-name="Udieresis" unicode="&#xdc;" horiz-adv-x="655" 
d="M327 -10q-55 0 -103 19.5t-83.5 55.5t-56 87t-20.5 114v384q0 25 17.5 42t41.5 17t41.5 -17t17.5 -42v-391q0 -38 11.5 -68t31 -50t46 -30.5t56.5 -10.5q31 0 58 10.5t46.5 30.5t31 50t11.5 68v391q0 25 17.5 42t41.5 17t41.5 -17t17.5 -42v-384q0 -63 -20.5 -114
t-56.5 -87t-84.5 -55.5t-103.5 -19.5zM219 759q-29 0 -49 20t-20 49t20 48.5t49 19.5t49 -19.5t20 -48.5t-20 -49t-49 -20zM436 759q-29 0 -49 20t-20 49t20 48.5t49 19.5t49 -19.5t20 -48.5t-20 -49t-49 -20z" />
    <glyph glyph-name="Yacute" unicode="&#xdd;" horiz-adv-x="651" 
d="M267 329l-238 284q-14 17 -14 38q0 25 17 41.5t41 16.5q28 0 46 -21l209 -249l211 250q8 10 19.5 15t23.5 5q23 0 38.5 -16t15.5 -39q0 -20 -12 -35l-239 -285v-284q0 -24 -17.5 -41.5t-41.5 -17.5t-41.5 17.5t-17.5 41.5v279zM344 921q17 20 43 20q23 0 39 -15.5
t16 -38.5q0 -9 -3 -18.5t-10 -17.5l-82 -98q-17 -20 -43 -20q-23 0 -39 16t-16 39q0 9 3 18t10 17z" />
    <glyph glyph-name="Thorn" unicode="&#xde;" horiz-adv-x="530" 
d="M64 650q0 25 17.5 42t41.5 17t41.5 -17t17.5 -42v-90h103q49 0 90 -16.5t69.5 -45t44.5 -67t16 -81.5t-15.5 -81t-44.5 -66.5t-69.5 -45t-91.5 -16.5h-15q-23 0 -39 15.5t-16 38.5t15.5 39t37.5 16h16q45 1 73 30t28 70q0 42 -29 71.5t-74 29.5h-99v-401
q0 -24 -17.5 -41.5t-41.5 -17.5t-41.5 17.5t-17.5 41.5v600z" />
    <glyph glyph-name="germandbls" unicode="&#xdf;" horiz-adv-x="548" 
d="M64 489q0 49 17 89.5t46 69.5t69 45.5t86 16.5q48 0 86.5 -16t65.5 -43t41.5 -63.5t14.5 -77.5q0 -48 -22.5 -87t-60.5 -62q42 -24 66.5 -64.5t24.5 -91.5q0 -43 -16 -80.5t-44.5 -66t-68 -45t-85.5 -16.5q-8 0 -20.5 2t-21.5 5q-13 5 -23.5 16.5t-10.5 31.5q0 21 15 36
t35 15q8 0 14.5 -1.5t17.5 -1.5q18 0 35.5 8t31 22.5t22 33.5t8.5 41q0 23 -8.5 42.5t-23 33.5t-33.5 22t-39 8h-4q-23 0 -37 15.5t-14 35.5t14 35.5t37 15.5h4q19 0 36 7.5t30.5 20.5t21.5 30.5t8 38.5q0 19 -7 37t-20 31.5t-31 21.5t-39 8q-46 0 -77 -31.5t-31 -83.5v-446
q0 -25 -16.5 -40.5t-38.5 -15.5q-24 0 -39.5 16.5t-15.5 39.5v442z" />
    <glyph glyph-name="agrave" unicode="&#xe0;" 
d="M462 52q-33 -29 -75.5 -45.5t-90.5 -16.5q-54 0 -100.5 20.5t-80 56.5t-53 84t-19.5 104q0 55 19.5 103.5t53 84.5t80 56.5t100.5 20.5q48 0 90.5 -16.5t75.5 -46.5v7q0 23 16 39t39 16t39 -16t16 -39v-417q0 -23 -16 -39.5t-39 -16.5t-39 16.5t-16 39.5v5zM308 92
q31 0 58.5 11.5t48.5 32.5t33 49.5t14 62.5v14q-2 33 -14 61.5t-33 49.5t-48.5 33t-58.5 12q-32 0 -60 -12.5t-49 -34t-33 -51.5t-12 -65t12 -65t33 -51.5t49 -34t60 -12.5zM225 671q-13 15 -13 33q0 22 16.5 38t37.5 16q24 0 42 -20l84 -102q12 -15 12 -33q0 -22 -17 -37.5
t-37 -15.5q-12 0 -22.5 5.5t-18.5 13.5z" />
    <glyph glyph-name="aacute" unicode="&#xe1;" 
d="M462 52q-33 -29 -75.5 -45.5t-90.5 -16.5q-54 0 -100.5 20.5t-80 56.5t-53 84t-19.5 104q0 55 19.5 103.5t53 84.5t80 56.5t100.5 20.5q48 0 90.5 -16.5t75.5 -46.5v7q0 23 16 39t39 16t39 -16t16 -39v-417q0 -23 -16 -39.5t-39 -16.5t-39 16.5t-16 39.5v5zM308 92
q32 0 60 12.5t49 34t33 51.5t12 65v7q-2 33 -14 61.5t-33 49.5t-48.5 33t-58.5 12q-32 0 -60 -12.5t-49 -34t-33 -51.5t-12 -65t12 -65t33 -51.5t49 -34t60 -12.5zM347 738q16 19 41 19q22 0 38 -15.5t16 -37.5q0 -18 -12 -33l-85 -102q-8 -8 -18.5 -13.5t-21.5 -5.5
q-21 0 -38 15.5t-17 37.5q0 17 13 33z" />
    <glyph glyph-name="acircumflex" unicode="&#xe2;" 
d="M462 52q-33 -29 -75.5 -45.5t-90.5 -16.5q-54 0 -100.5 20.5t-80 56.5t-53 84t-19.5 104q0 55 19.5 103.5t53 84.5t80 56.5t100.5 20.5q48 0 90.5 -16.5t75.5 -46.5v7q0 23 16 39t39 16t39 -16t16 -39v-417q0 -23 -16 -39.5t-39 -16.5t-39 16.5t-16 39.5v5zM308 92
q32 0 60 12.5t49 34t33 51.5t12 65v7q-2 33 -14 61.5t-33 49.5t-48.5 33t-58.5 12q-32 0 -60 -12.5t-49 -34t-33 -51.5t-12 -65t12 -65t33 -51.5t49 -34t60 -12.5zM280 733q17 17 39 17q24 0 39 -17l96 -99q13 -13 13 -33t-15.5 -34.5t-35.5 -14.5q-18 0 -32 15l-65 73
l-64 -73q-14 -15 -33 -15q-20 0 -35.5 14.5t-15.5 34.5t14 33z" />
    <glyph glyph-name="atilde" unicode="&#xe3;" 
d="M462 52q-33 -29 -75.5 -45.5t-90.5 -16.5q-54 0 -100.5 20.5t-80 56.5t-53 84t-19.5 104q0 55 19.5 103.5t53 84.5t80 56.5t100.5 20.5q48 0 90.5 -16.5t75.5 -46.5v7q0 23 16 39t39 16t39 -16t16 -39v-417q0 -23 -16 -39.5t-39 -16.5t-39 16.5t-16 39.5v5zM308 92
q32 0 60 12.5t49 34t33 51.5t12 65v7q-2 33 -14 61.5t-33 49.5t-48.5 33t-58.5 12q-32 0 -60 -12.5t-49 -34t-33 -51.5t-12 -65t12 -65t33 -51.5t49 -34t60 -12.5zM268 619q-19 0 -27 -12.5t-13 -23.5q-4 -8 -11 -14.5t-23 -6.5q-22 0 -38 11.5t-16 33.5q0 3 1.5 10.5
t3.5 13.5q5 13 14.5 28t23 28.5t32 22.5t41.5 9q24 0 43 -9t34 -19.5t27 -19.5t23 -9q12 0 19 5.5t12 13.5t9.5 16t10.5 14q5 4 10 6t13 2q22 0 38 -11.5t16 -33.5q0 -3 -1.5 -10.5t-3.5 -13.5q-5 -13 -14.5 -28t-23 -28.5t-32 -22.5t-41.5 -9q-24 0 -42.5 9t-33.5 19.5
t-27.5 19.5t-23.5 9z" />
    <glyph glyph-name="adieresis" unicode="&#xe4;" 
d="M462 52q-33 -29 -75.5 -45.5t-90.5 -16.5q-54 0 -100.5 20.5t-80 56.5t-53 84t-19.5 104q0 55 19.5 103.5t53 84.5t80 56.5t100.5 20.5q48 0 90.5 -16.5t75.5 -46.5v7q0 23 16 39t39 16t39 -16t16 -39v-417q0 -23 -16 -39.5t-39 -16.5t-39 16.5t-16 39.5v5zM308 92
q32 0 60 12.5t49 34t33 51.5t12 65t-12 65t-33 51.5t-49 34t-60 12.5t-60 -12.5t-49 -34t-33 -51.5t-12 -65t12 -65t33 -51.5t49 -34t60 -12.5zM427 577q-26 0 -45.5 19.5t-19.5 45.5q0 27 19.5 46t45.5 19q27 0 46 -19t19 -46q0 -26 -19 -45.5t-46 -19.5zM222 577
q-26 0 -45.5 19.5t-19.5 45.5q0 27 19.5 46t45.5 19q27 0 46 -19t19 -46q0 -26 -19 -45.5t-46 -19.5z" />
    <glyph glyph-name="aring" unicode="&#xe5;" 
d="M462 52q-33 -29 -75.5 -45.5t-90.5 -16.5q-54 0 -100.5 20.5t-80 56.5t-53 84t-19.5 104q0 55 19.5 103.5t53 84.5t80 56.5t100.5 20.5q48 0 90.5 -16.5t75.5 -46.5v7q0 23 16 39t39 16t39 -16t16 -39v-417q0 -23 -16 -39.5t-39 -16.5t-39 16.5t-16 39.5v5zM308 92
q32 0 60 12.5t49 34t33 51.5t12 65v7q-2 33 -14 61.5t-33 49.5t-48.5 33t-58.5 12q-32 0 -60 -12.5t-49 -34t-33 -51.5t-12 -65t12 -65t33 -51.5t49 -34t60 -12.5zM324 547q-27 0 -50 9.5t-40 26.5t-26.5 39t-9.5 48q0 25 9.5 47.5t26.5 39t40 26t50 9.5q26 0 49 -9.5
t40 -26t27 -39t10 -47.5q0 -26 -10 -48t-27 -39t-40 -26.5t-49 -9.5zM324 624q18 0 31.5 13.5t13.5 32.5q0 18 -13.5 31.5t-31.5 13.5q-19 0 -32 -13.5t-13 -31.5q0 -19 13 -32.5t32 -13.5z" />
    <glyph glyph-name="ae" unicode="&#xe6;" horiz-adv-x="974" 
d="M727 -10q-45 0 -84.5 12.5t-71.5 35.5q-3 -20 -18.5 -33.5t-35.5 -13.5q-23 0 -39 16.5t-16 39.5v208q0 34 -12 64t-32.5 52t-48.5 34.5t-61 12.5q-32 0 -60 -12.5t-49 -34.5t-33 -52t-12 -64t12 -63.5t32.5 -51.5t48.5 -35t61 -13q17 0 31.5 3t25.5 8q9 4 20 4
q22 0 37 -15t15 -37q0 -17 -9 -29.5t-23 -18.5q-43 -17 -97 -17q-56 0 -104 20t-84 55.5t-56.5 84t-20.5 105.5q0 55 20 103.5t55.5 84.5t84 56.5t105.5 20.5q65 0 119 -26.5t90 -73.5q36 46 90 73t120 27q59 0 103 -19.5t70 -42.5q20 -18 20 -42q0 -11 -3.5 -20t-12.5 -20
l-154 -183q-15 -18 -38 -18t-37.5 14t-14.5 36q0 9 2.5 17.5t9.5 15.5l121 142q-13 9 -31 13.5t-35 4.5q-32 0 -60 -12.5t-49 -34.5t-33 -52t-12 -64t12 -63.5t32.5 -51.5t48.5 -35t61 -13q35 0 61.5 13t44.5 32q12 10 22 17.5t26 7.5q23 0 38.5 -15t15.5 -38q0 -18 -16 -36
q-29 -35 -78.5 -59t-113.5 -24z" />
    <glyph glyph-name="ccedilla" unicode="&#xe7;" horiz-adv-x="556" 
d="M202 -190q-21 0 -36 14.5t-15 36.5q0 20 14 35t37 15h17q22 0 36.5 13t14.5 39v30q-50 6 -91.5 29t-71.5 57.5t-47 79.5t-17 96q0 55 20 103.5t55.5 84.5t84 56.5t105.5 20.5q63 0 113 -23.5t79 -57.5q16 -19 16 -38q0 -23 -15.5 -37t-38.5 -14q-17 0 -26.5 7t-20.5 16
q-19 19 -45 32t-62 13q-32 0 -60 -12.5t-49 -34.5t-33 -52t-12 -64t12 -63.5t33 -51.5t49 -35t60 -13q35 0 61.5 13t44.5 32q11 9 21 17t27 8q23 0 38.5 -15t15.5 -38q0 -18 -16 -36q-21 -26 -54 -46t-75 -30v-47q0 -63 -37 -101.5t-99 -38.5h-33v0z" />
    <glyph glyph-name="egrave" unicode="&#xe8;" horiz-adv-x="555" 
d="M308 -10q-57 0 -105.5 20.5t-84 56.5t-55.5 84t-20 104q0 55 20 103.5t55.5 84.5t84 56.5t105.5 20.5q59 0 103 -19.5t70 -42.5q20 -18 20 -42q0 -11 -3.5 -20t-12.5 -20l-154 -183q-15 -18 -38 -18t-37.5 14t-14.5 36q0 9 2.5 17.5t9.5 15.5l121 142q-13 9 -31 13.5
t-35 4.5q-32 0 -60 -12.5t-49 -34.5t-33 -52t-12 -64t12 -63.5t32.5 -51.5t48.5 -35t61 -13q35 0 61.5 13t44.5 32q12 10 22 17.5t26 7.5q23 0 38.5 -15t15.5 -38q0 -18 -16 -36q-29 -35 -78.5 -59t-113.5 -24zM177 671q-13 15 -13 33q0 22 16.5 38t37.5 16q24 0 42 -20
l84 -102q12 -15 12 -33q0 -22 -17 -37.5t-37 -15.5q-12 0 -22.5 5.5t-18.5 13.5z" />
    <glyph glyph-name="eacute" unicode="&#xe9;" horiz-adv-x="555" 
d="M308 738q16 19 41 19q22 0 38 -15.5t16 -37.5q0 -18 -12 -33l-85 -102q-8 -8 -18.5 -13.5t-21.5 -5.5q-21 0 -38 15.5t-17 37.5q0 17 13 33zM308 -10q-57 0 -105.5 20.5t-84 56.5t-55.5 84t-20 104q0 55 20 103.5t55.5 84.5t84 56.5t105.5 20.5q59 0 103 -19.5t70 -42.5
q20 -18 20 -42q0 -11 -3.5 -20t-12.5 -20l-154 -183q-15 -18 -38 -18t-37.5 14t-14.5 36q0 9 2.5 17.5t9.5 15.5l121 142q-13 9 -31 13.5t-35 4.5q-32 0 -60 -12.5t-49 -34.5t-33 -52t-12 -64t12 -63.5t32.5 -51.5t48.5 -35t61 -13q35 0 61.5 13t44.5 32q12 10 22 17.5
t26 7.5q23 0 38.5 -15t15.5 -38q0 -18 -16 -36q-29 -35 -78.5 -59t-113.5 -24z" />
    <glyph glyph-name="ecircumflex" unicode="&#xea;" horiz-adv-x="555" 
d="M252 733q17 17 39 17q24 0 39 -17l96 -99q13 -13 13 -33t-15.5 -34.5t-35.5 -14.5q-18 0 -32 15l-65 73l-64 -73q-14 -15 -33 -15q-20 0 -35.5 14.5t-15.5 34.5t14 33zM308 -10q-57 0 -105.5 20.5t-84 56.5t-55.5 84t-20 104q0 55 20 103.5t55.5 84.5t84 56.5t105.5 20.5
q59 0 103 -19.5t70 -42.5q20 -18 20 -42q0 -11 -3.5 -20t-12.5 -20l-154 -183q-15 -18 -38 -18t-37.5 14t-14.5 36q0 9 2.5 17.5t9.5 15.5l121 142q-13 9 -31 13.5t-35 4.5q-32 0 -60 -12.5t-49 -34.5t-33 -52t-12 -64t12 -63.5t32.5 -51.5t48.5 -35t61 -13q35 0 61.5 13
t44.5 32q12 10 22 17.5t26 7.5q23 0 38.5 -15t15.5 -38q0 -18 -16 -36q-29 -35 -78.5 -59t-113.5 -24z" />
    <glyph glyph-name="edieresis" unicode="&#xeb;" horiz-adv-x="555" 
d="M193 577q-26 0 -45.5 19.5t-19.5 45.5q0 27 19.5 46t45.5 19q27 0 46 -19t19 -46q0 -26 -19 -45.5t-46 -19.5zM398 577q-26 0 -45.5 19.5t-19.5 45.5q0 27 19.5 46t45.5 19q27 0 46 -19t19 -46q0 -26 -19 -45.5t-46 -19.5zM308 -10q-57 0 -105.5 20.5t-84 56.5t-55.5 84
t-20 104q0 55 20 103.5t55.5 84.5t84 56.5t105.5 20.5q59 0 103 -19.5t70 -42.5q20 -18 20 -42q0 -11 -3.5 -20t-12.5 -20l-154 -183q-15 -18 -38 -18t-37.5 14t-14.5 36q0 9 2.5 17.5t9.5 15.5l121 142q-13 9 -31 13.5t-35 4.5q-32 0 -60 -12.5t-49 -34.5t-33 -52t-12 -64
t12 -63.5t32.5 -51.5t48.5 -35t61 -13q35 0 61.5 13t44.5 32q12 10 22 17.5t26 7.5q23 0 38.5 -15t15.5 -38q0 -18 -16 -36q-29 -35 -78.5 -59t-113.5 -24z" />
    <glyph glyph-name="igrave" unicode="&#xec;" horiz-adv-x="238" 
d="M64 464q0 23 16 39t39 16t39 -16t16 -39v-417q0 -23 -16 -39.5t-39 -16.5t-39 16.5t-16 39.5v417zM-5 671q-13 15 -13 33q0 22 16.5 38t37.5 16q24 0 42 -20l84 -102q12 -15 12 -33q0 -22 -17 -37.5t-37 -15.5q-12 0 -22.5 5.5t-18.5 13.5z" />
    <glyph glyph-name="iacute" unicode="&#xed;" horiz-adv-x="238" 
d="M160 738q16 19 41 19q22 0 38 -15.5t16 -37.5q0 -18 -12 -33l-85 -102q-8 -8 -18.5 -13.5t-21.5 -5.5q-21 0 -38 15.5t-17 37.5q0 17 13 33zM64 464q0 23 16 39t39 16t39 -16t16 -39v-417q0 -23 -16 -39.5t-39 -16.5t-39 16.5t-16 39.5v417z" />
    <glyph glyph-name="icircumflex" unicode="&#xee;" horiz-adv-x="238" 
d="M80 733q17 17 39 17q24 0 39 -17l96 -99q13 -13 13 -33t-15.5 -34.5t-35.5 -14.5q-18 0 -32 15l-65 73l-64 -73q-14 -15 -33 -15q-20 0 -35.5 14.5t-15.5 34.5t14 33zM64 464q0 23 16 39t39 16t39 -16t16 -39v-417q0 -23 -16 -39.5t-39 -16.5t-39 16.5t-16 39.5v417z" />
    <glyph glyph-name="idieresis" unicode="&#xef;" horiz-adv-x="238" 
d="M25 577q-27 0 -46 19.5t-19 45.5q0 27 19 46t46 19t46 -19t19 -46q0 -26 -19 -45.5t-46 -19.5zM213 577q-27 0 -46 19.5t-19 45.5q0 27 19 46t46 19t46 -19t19 -46q0 -26 -19 -45.5t-46 -19.5zM64 464q0 23 16 39t39 16t39 -16t16 -39v-417q0 -23 -16 -39.5t-39 -16.5
t-39 16.5t-16 39.5v417z" />
    <glyph glyph-name="eth" unicode="&#xf0;" horiz-adv-x="570" 
d="M143 474q-19 0 -34.5 15t-15.5 38q0 12 6.5 23.5t17.5 18.5l35 23l-22 27q-13 16 -13 35q0 24 17 39.5t39 15.5q25 0 41 -19l31 -37l56 36q13 8 28 8q19 0 34.5 -14.5t15.5 -37.5q0 -13 -7 -24t-18 -19l-43 -28l151 -179q33 -39 49 -79.5t16 -87.5q0 -50 -18 -93
t-50 -75.5t-76.5 -51t-97.5 -18.5t-97 18.5t-76.5 51t-50.5 75.5t-18 93q0 38 12.5 73.5t36 64.5t58 50t78.5 30q13 2 24.5 2t24.5 -2l-58 68l-49 -32q-5 -3 -12.5 -5.5t-14.5 -2.5zM285 93q28 0 52 10.5t42 29t28 43t10 52.5t-10 53t-28 44t-42 29.5t-52 10.5t-52 -10.5
t-41.5 -29.5t-27.5 -44t-10 -53t10 -52.5t27.5 -43t41.5 -29t52 -10.5z" />
    <glyph glyph-name="ntilde" unicode="&#xf1;" horiz-adv-x="577" 
d="M64 287q0 54 17.5 97t48 73t71.5 46.5t88 16.5t88 -16.5t71.5 -46.5t48 -73t17.5 -97v-240q0 -23 -16 -39.5t-39 -16.5t-39 16.5t-16 39.5v244q0 63 -33.5 95t-81.5 32t-81.5 -32t-33.5 -95v-244q0 -23 -16 -39.5t-39 -16.5t-39 16.5t-16 39.5v240zM238 619
q-19 0 -27 -12.5t-13 -23.5q-4 -8 -11 -14.5t-23 -6.5q-22 0 -38 11.5t-16 33.5q0 3 1.5 10.5t3.5 13.5q5 13 14.5 28t23 28.5t32 22.5t41.5 9q24 0 43 -9t34 -19.5t27 -19.5t23 -9q12 0 19 5.5t12 13.5t9.5 16t10.5 14q5 4 10 6t13 2q22 0 38 -11.5t16 -33.5
q0 -3 -1.5 -10.5t-3.5 -13.5q-5 -13 -14.5 -28t-23 -28.5t-32 -22.5t-41.5 -9q-24 0 -42.5 9t-33.5 19.5t-27.5 19.5t-23.5 9z" />
    <glyph glyph-name="ograve" unicode="&#xf2;" horiz-adv-x="616" 
d="M308 -10q-57 0 -105.5 20.5t-84 56.5t-55.5 84t-20 104q0 55 20 103.5t55.5 84.5t84 56.5t105.5 20.5t106 -20.5t84 -56.5t55 -84.5t20 -103.5q0 -56 -20 -104t-55 -84t-84 -56.5t-106 -20.5zM308 92q33 0 61 13t49 35t32.5 52t11.5 63q0 34 -11.5 63.5t-32.5 51.5
t-49 35t-61 13t-61 -13t-49 -35t-32.5 -51.5t-11.5 -63.5q0 -33 11.5 -63t32.5 -52t49 -35t61 -13zM203 671q-13 15 -13 33q0 22 16.5 38t37.5 16q24 0 42 -20l84 -102q12 -15 12 -33q0 -22 -17 -37.5t-37 -15.5q-12 0 -22.5 5.5t-18.5 13.5z" />
    <glyph glyph-name="oacute" unicode="&#xf3;" horiz-adv-x="616" 
d="M328 738q16 19 41 19q22 0 38 -15.5t16 -37.5q0 -18 -12 -33l-85 -102q-8 -8 -18.5 -13.5t-21.5 -5.5q-21 0 -38 15.5t-17 37.5q0 17 13 33zM308 -10q-57 0 -105.5 20.5t-84 56.5t-55.5 84t-20 104q0 55 20 103.5t55.5 84.5t84 56.5t105.5 20.5t106 -20.5t84 -56.5
t55 -84.5t20 -103.5q0 -56 -20 -104t-55 -84t-84 -56.5t-106 -20.5zM308 92q33 0 61 13t49 35t32.5 52t11.5 63q0 34 -11.5 63.5t-32.5 51.5t-49 35t-61 13t-61 -13t-49 -35t-32.5 -51.5t-11.5 -63.5q0 -33 11.5 -63t32.5 -52t49 -35t61 -13z" />
    <glyph glyph-name="ocircumflex" unicode="&#xf4;" horiz-adv-x="616" 
d="M268 733q17 17 39 17q24 0 39 -17l96 -99q13 -13 13 -33t-15.5 -34.5t-35.5 -14.5q-18 0 -32 15l-65 73l-64 -73q-14 -15 -33 -15q-20 0 -35.5 14.5t-15.5 34.5t14 33zM308 -10q-57 0 -105.5 20.5t-84 56.5t-55.5 84t-20 104q0 55 20 103.5t55.5 84.5t84 56.5t105.5 20.5
t106 -20.5t84 -56.5t55 -84.5t20 -103.5q0 -56 -20 -104t-55 -84t-84 -56.5t-106 -20.5zM308 92q33 0 61 13t49 35t32.5 52t11.5 63q0 34 -11.5 63.5t-32.5 51.5t-49 35t-61 13t-61 -13t-49 -35t-32.5 -51.5t-11.5 -63.5q0 -33 11.5 -63t32.5 -52t49 -35t61 -13z" />
    <glyph glyph-name="otilde" unicode="&#xf5;" horiz-adv-x="616" 
d="M308 -10q-57 0 -105.5 20.5t-84 56.5t-55.5 84t-20 104q0 55 20 103.5t55.5 84.5t84 56.5t105.5 20.5t106 -20.5t84 -56.5t55 -84.5t20 -103.5q0 -56 -20 -104t-55 -84t-84 -56.5t-106 -20.5zM308 92q33 0 61 13t49 35t32.5 52t11.5 63q0 34 -11.5 63.5t-32.5 51.5
t-49 35t-61 13t-61 -13t-49 -35t-32.5 -51.5t-11.5 -63.5q0 -33 11.5 -63t32.5 -52t49 -35t61 -13zM256 619q-19 0 -27 -12.5t-13 -23.5q-4 -8 -11 -14.5t-23 -6.5q-22 0 -38 11.5t-16 33.5q0 3 1.5 10.5t3.5 13.5q5 13 14.5 28t23 28.5t32 22.5t41.5 9q24 0 43 -9t34 -19.5
t27 -19.5t23 -9q12 0 19 5.5t12 13.5t9.5 16t10.5 14q5 4 10 6t13 2q22 0 38 -11.5t16 -33.5q0 -3 -1.5 -10.5t-3.5 -13.5q-5 -13 -14.5 -28t-23 -28.5t-32 -22.5t-41.5 -9q-24 0 -42.5 9t-33.5 19.5t-27.5 19.5t-23.5 9z" />
    <glyph glyph-name="odieresis" unicode="&#xf6;" horiz-adv-x="616" 
d="M204 577q-26 0 -45.5 19.5t-19.5 45.5q0 27 19.5 46t45.5 19q27 0 46 -19t19 -46q0 -26 -19 -45.5t-46 -19.5zM409 577q-26 0 -45.5 19.5t-19.5 45.5q0 27 19.5 46t45.5 19q27 0 46 -19t19 -46q0 -26 -19 -45.5t-46 -19.5zM308 -10q-57 0 -105.5 20.5t-84 56.5t-55.5 84
t-20 104q0 55 20 103.5t55.5 84.5t84 56.5t105.5 20.5t106 -20.5t84 -56.5t55 -84.5t20 -103.5q0 -56 -20 -104t-55 -84t-84 -56.5t-106 -20.5zM308 92q33 0 61 13t49 35t32.5 52t11.5 63q0 34 -11.5 63.5t-32.5 51.5t-49 35t-61 13t-61 -13t-49 -35t-32.5 -51.5
t-11.5 -63.5q0 -33 11.5 -63t32.5 -52t49 -35t61 -13z" />
    <glyph glyph-name="divide" unicode="&#xf7;" horiz-adv-x="536" 
d="M268 86q-29 0 -49 20t-20 49t20 48.5t49 19.5t48.5 -19.5t19.5 -48.5t-19.5 -49t-48.5 -20zM103 298q-22 0 -37.5 15t-15.5 37q0 23 15.5 38.5t37.5 15.5h330q22 0 37.5 -15.5t15.5 -37.5q0 -23 -15.5 -38t-37.5 -15h-330zM268 477q-29 0 -49 20t-20 49t20 49t49 20
t48.5 -20t19.5 -49t-19.5 -49t-48.5 -20z" />
    <glyph glyph-name="oslash" unicode="&#xf8;" horiz-adv-x="616" 
d="M308 -10q-71 0 -128 31l-53 -63q-18 -18 -40 -18q-21 0 -36 15t-15 36q0 9 3 18t10 17l51 61q-27 35 -42 77.5t-15 90.5q0 55 20 103.5t55.5 84.5t84 56.5t105.5 20.5q35 0 67.5 -8.5t60.5 -23.5l51 61q8 9 19 15t22 6q22 0 37 -15t15 -36q0 -18 -12 -33l-53 -63
q28 -35 43 -77.5t15 -90.5q0 -56 -20 -104t-55 -84t-84 -56.5t-106 -20.5zM308 92q33 0 61 13t49 35t32.5 52t11.5 63q0 45 -20 80l-193 -231q27 -12 59 -12zM154 255q0 -44 19 -80l194 231q-14 5 -28.5 8.5t-30.5 3.5q-33 0 -61 -13t-49 -35t-32.5 -51.5t-11.5 -63.5z" />
    <glyph glyph-name="ugrave" unicode="&#xf9;" horiz-adv-x="577" 
d="M64 464q0 23 16 39t39 16t39 -16t16 -39v-244q0 -63 33.5 -95.5t81.5 -32.5t81.5 32.5t33.5 95.5v244q0 23 16 39t39 16t39 -16t16 -39v-240q0 -54 -17.5 -97t-48 -73.5t-71.5 -47t-88 -16.5t-88 16.5t-71.5 47t-48 73.5t-17.5 97v240zM187 671q-13 15 -13 33
q0 22 16.5 38t37.5 16q24 0 42 -20l84 -102q12 -15 12 -33q0 -22 -17 -37.5t-37 -15.5q-12 0 -22.5 5.5t-18.5 13.5z" />
    <glyph glyph-name="uacute" unicode="&#xfa;" horiz-adv-x="577" 
d="M305 738q16 19 41 19q22 0 38 -15.5t16 -37.5q0 -18 -12 -33l-85 -102q-8 -8 -18.5 -13.5t-21.5 -5.5q-21 0 -38 15.5t-17 37.5q0 17 13 33zM64 464q0 23 16 39t39 16t39 -16t16 -39v-244q0 -63 33.5 -95.5t81.5 -32.5t81.5 32.5t33.5 95.5v244q0 23 16 39t39 16t39 -16
t16 -39v-240q0 -54 -17.5 -97t-48 -73.5t-71.5 -47t-88 -16.5t-88 16.5t-71.5 47t-48 73.5t-17.5 97v240z" />
    <glyph glyph-name="ucircumflex" unicode="&#xfb;" horiz-adv-x="577" 
d="M249 733q17 17 39 17q24 0 39 -17l96 -99q13 -13 13 -33t-15.5 -34.5t-35.5 -14.5q-18 0 -32 15l-65 73l-64 -73q-14 -15 -33 -15q-20 0 -35.5 14.5t-15.5 34.5t14 33zM64 464q0 23 16 39t39 16t39 -16t16 -39v-244q0 -63 33.5 -95.5t81.5 -32.5t81.5 32.5t33.5 95.5v244
q0 23 16 39t39 16t39 -16t16 -39v-240q0 -54 -17.5 -97t-48 -73.5t-71.5 -47t-88 -16.5t-88 16.5t-71.5 47t-48 73.5t-17.5 97v240z" />
    <glyph glyph-name="udieresis" unicode="&#xfc;" horiz-adv-x="577" 
d="M186 577q-26 0 -45.5 19.5t-19.5 45.5q0 27 19.5 46t45.5 19q27 0 46 -19t19 -46q0 -26 -19 -45.5t-46 -19.5zM391 577q-26 0 -45.5 19.5t-19.5 45.5q0 27 19.5 46t45.5 19q27 0 46 -19t19 -46q0 -26 -19 -45.5t-46 -19.5zM64 464q0 23 16 39t39 16t39 -16t16 -39v-244
q0 -63 33.5 -95.5t81.5 -32.5t81.5 32.5t33.5 95.5v244q0 23 16 39t39 16t39 -16t16 -39v-240q0 -54 -17.5 -97t-48 -73.5t-71.5 -47t-88 -16.5t-88 16.5t-71.5 47t-48 73.5t-17.5 97v240z" />
    <glyph glyph-name="yacute" unicode="&#xfd;" horiz-adv-x="554" 
d="M79 54v410q0 23 16 39t39 16t39 -16t16 -39v-279l265 316q16 18 38 18t37 -14t15 -36q0 -20 -12 -33l-517 -617q-17 -18 -38 -18q-23 0 -38 14t-15 36q0 18 12 33zM368 738q16 19 41 19q22 0 38 -15.5t16 -37.5q0 -18 -12 -33l-85 -102q-8 -8 -18.5 -13.5t-21.5 -5.5
q-21 0 -38 15.5t-17 37.5q0 17 13 33z" />
    <glyph glyph-name="thorn" unicode="&#xfe;" 
d="M343 -10q-50 0 -93 17.5t-76 49.5v-201q0 -23 -16 -39t-39 -16t-39 16t-16 39v798q0 23 16 39t39 16t39 -16t16 -39v-201q33 32 76 49.5t93 17.5q53 0 99 -20.5t79.5 -56.5t52.5 -84.5t19 -103.5q0 -56 -19 -104t-52.5 -84t-79.5 -56.5t-99 -20.5zM328 92q32 0 60 12.5
t49 34t33 51.5t12 65t-12 65t-33 51.5t-49 34t-60 12.5t-59.5 -12t-48 -33t-33 -49.5t-13.5 -61.5v-7q0 -35 12 -65t33 -51.5t49 -34t60 -12.5z" />
    <glyph glyph-name="ydieresis" unicode="&#xff;" horiz-adv-x="554" 
d="M79 54v410q0 23 16 39t39 16t39 -16t16 -39v-279l265 316q16 18 38 18t37 -14t15 -36q0 -20 -12 -33l-517 -617q-17 -18 -38 -18q-23 0 -38 14t-15 36q0 18 12 33zM228 577q-26 0 -45.5 19.5t-19.5 45.5q0 27 19.5 46t45.5 19q27 0 46 -19t19 -46q0 -26 -19 -45.5
t-46 -19.5zM433 577q-26 0 -45.5 19.5t-19.5 45.5q0 27 19.5 46t45.5 19q27 0 46 -19t19 -46q0 -26 -19 -45.5t-46 -19.5z" />
    <glyph glyph-name="Amacron" unicode="&#x100;" horiz-adv-x="699" 
d="M529 686q11 13 23.5 18t24.5 5q24 0 41 -17t17 -42v-600q0 -24 -17 -41.5t-41 -17.5q-25 0 -42 17.5t-17 41.5v97h-136q-23 0 -39 16t-16 39t16 39t39 16h136v244l-410 -490q-8 -8 -20 -14t-23 -6q-23 0 -39 16t-16 39q0 9 2.5 17.5t10.5 18.5zM465 763q-22 0 -36.5 15
t-14.5 36t14.5 36t36.5 15h225q22 0 36.5 -15t14.5 -36t-14.5 -36t-36.5 -15h-225z" />
    <glyph glyph-name="amacron" unicode="&#x101;" 
d="M462 52q-33 -29 -75.5 -45.5t-90.5 -16.5q-54 0 -100.5 20.5t-80 56.5t-53 84t-19.5 104q0 55 19.5 103.5t53 84.5t80 56.5t100.5 20.5q48 0 90.5 -16.5t75.5 -46.5v7q0 23 16 39t39 16t39 -16t16 -39v-417q0 -23 -16 -39.5t-39 -16.5t-39 16.5t-16 39.5v5zM308 92
q31 0 58.5 11.5t48.5 32.5t33 49.5t14 62.5v7q0 35 -12 65t-33 51.5t-49 34t-60 12.5t-60 -12.5t-49 -34t-33 -51.5t-12 -65t12 -65t33 -51.5t49 -34t60 -12.5zM217 577q-21 0 -36 15t-15 36q0 22 15 36.5t36 14.5h219q21 0 36 -14.5t15 -36.5q0 -21 -15 -36t-36 -15h-219z
" />
    <glyph glyph-name="Abreve" unicode="&#x102;" horiz-adv-x="699" 
d="M529 686q11 13 23.5 18t24.5 5q24 0 41 -17t17 -42v-600q0 -24 -17 -41.5t-41 -17.5q-25 0 -42 17.5t-17 41.5v97h-136q-23 0 -39 16t-16 39t16 39t39 16h136v244l-410 -490q-8 -8 -20 -14t-23 -6q-23 0 -39 16t-16 39q0 9 2.5 17.5t10.5 18.5zM579 735q-33 0 -63.5 11
t-54 30.5t-38 44.5t-14.5 54q-1 21 14 36t36 15q20 0 32 -12t15 -23q5 -21 24 -39t49 -18q29 0 48 18t23 39q3 11 15.5 23t32.5 12q21 0 36 -15t15 -36q-1 -29 -15.5 -54t-38.5 -44.5t-54 -30.5t-62 -11z" />
    <glyph glyph-name="abreve" unicode="&#x103;" 
d="M462 52q-33 -29 -75.5 -45.5t-90.5 -16.5q-54 0 -100.5 20.5t-80 56.5t-53 84t-19.5 104q0 55 19.5 103.5t53 84.5t80 56.5t100.5 20.5q48 0 90.5 -16.5t75.5 -46.5v7q0 23 16 39t39 16t39 -16t16 -39v-417q0 -23 -16 -39.5t-39 -16.5t-39 16.5t-16 39.5v5zM308 92
q32 0 60 12.5t49 34t33 51.5t12 65v7q-2 33 -14 61.5t-33 49.5t-48.5 33t-58.5 12q-32 0 -60 -12.5t-49 -34t-33 -51.5t-12 -65t12 -65t33 -51.5t49 -34t60 -12.5zM323 554q-32 0 -61 11t-52 30t-37 44t-14 52q-1 20 13.5 34.5t34.5 14.5t31.5 -11.5t14.5 -22.5
q4 -20 22.5 -38t47.5 -18t47 18t23 38q3 11 14 22.5t32 11.5q20 0 34 -14.5t14 -34.5q-1 -27 -15 -52t-36.5 -44t-52 -30t-60.5 -11z" />
    <glyph glyph-name="Aogonek" unicode="&#x104;" horiz-adv-x="699" 
d="M529 686q11 13 23.5 18t24.5 5q24 0 41 -17t17 -42v-600q0 -6 -2 -14q-2 -17 -9 -31t-17 -23l-32 -33q-3 -3 -6 -9t-3 -14q0 -14 8.5 -23t21.5 -9h6q22 0 36 -12.5t14 -33.5q0 -22 -16 -35t-39 -13h-7q-60 1 -91.5 33.5t-31.5 77.5q0 26 10 48t25 36l24 25q-8 14 -8 30
v97h-136q-23 0 -39 16t-16 39t16 39t39 16h136v244l-410 -490q-8 -8 -20 -14t-23 -6q-23 0 -39 16t-16 39q0 9 2.5 17.5t10.5 18.5z" />
    <glyph glyph-name="aogonek" unicode="&#x105;" 
d="M462 52q-33 -29 -75.5 -45.5t-90.5 -16.5q-54 0 -100.5 20.5t-80 56.5t-53 84t-19.5 104q0 55 19.5 103.5t53 84.5t80 56.5t100.5 20.5q48 0 90.5 -16.5t75.5 -46.5v7q0 23 16 39t39 16t39 -16t16 -39v-417q0 -5 -0.5 -8.5t-1.5 -7.5q-3 -16 -10 -28.5t-16 -20.5l-32 -33
q-3 -3 -6 -9t-3 -14q0 -14 8.5 -23t21.5 -9h6q22 0 36 -12.5t14 -33.5q0 -22 -16 -35t-39 -13h-7q-60 1 -91.5 33.5t-31.5 77.5q0 26 10 48t25 36l27 29q-4 9 -4 23v5zM308 92q32 0 60 12.5t49 34t33 51.5t12 65t-12 65t-33 51.5t-49 34t-60 12.5t-60 -12.5t-49 -34
t-33 -51.5t-12 -65t12 -65t33 -51.5t49 -34t60 -12.5z" />
    <glyph glyph-name="Cacute" unicode="&#x106;" horiz-adv-x="727" 
d="M401 -10q-75 0 -140.5 28t-113.5 76.5t-76 114.5t-28 141t28 141t76 114.5t113.5 76.5t140.5 28q82 0 150 -32t114 -84q8 -8 12 -19t4 -21q0 -24 -17 -41t-42 -17q-21 0 -47 23q-32 35 -76 56.5t-98 21.5q-50 0 -93 -19t-75 -52.5t-50.5 -78.5t-18.5 -97q0 -51 18.5 -96
t50.5 -78.5t75 -52.5t93 -19q54 0 98 21.5t76 56.5q26 23 47 23q25 0 42 -17t17 -41q0 -10 -4 -21t-12 -19q-46 -53 -114 -85t-150 -32zM407 921q17 20 43 20q23 0 39 -15.5t16 -38.5q0 -9 -3 -18.5t-10 -17.5l-82 -98q-17 -20 -43 -20q-23 0 -39 16t-16 39q0 9 3 18t10 17z
" />
    <glyph glyph-name="cacute" unicode="&#x107;" horiz-adv-x="556" 
d="M313 738q16 19 41 19q22 0 38 -15.5t16 -37.5q0 -18 -12 -33l-85 -102q-8 -8 -18.5 -13.5t-21.5 -5.5q-21 0 -38 15.5t-17 37.5q0 17 13 33zM308 -10q-57 0 -105.5 20.5t-84 56.5t-55.5 84t-20 104q0 55 20 103.5t55.5 84.5t84 56.5t105.5 20.5q63 0 113 -23.5t79 -57.5
q16 -19 16 -38q0 -23 -15.5 -37t-38.5 -14q-17 0 -26.5 7t-20.5 16q-19 19 -45 32t-62 13q-32 0 -60 -12.5t-49 -34.5t-33 -52t-12 -64t12 -63.5t33 -51.5t49 -35t60 -13q35 0 61.5 13t44.5 32q11 9 21 17t27 8q23 0 38.5 -15t15.5 -38q0 -18 -16 -36q-29 -35 -78.5 -59
t-113.5 -24z" />
    <glyph glyph-name="Ccircumflex" unicode="&#x108;" horiz-adv-x="727" 
d="M401 -10q-75 0 -140.5 28t-113.5 76.5t-76 114.5t-28 141t28 141t76 114.5t113.5 76.5t140.5 28q82 0 150 -32t114 -84q8 -8 12 -19t4 -21q0 -24 -17 -41t-42 -17q-21 0 -47 23q-32 35 -76 56.5t-98 21.5q-50 0 -93 -19t-75 -52.5t-50.5 -78.5t-18.5 -97q0 -51 18.5 -96
t50.5 -78.5t75 -52.5t93 -19q54 0 98 21.5t76 56.5q26 23 47 23q25 0 42 -17t17 -41q0 -10 -4 -21t-12 -19q-46 -53 -114 -85t-150 -32zM364 927q15 10 30 10q11 0 18 -3t12 -7l115 -88q21 -15 21 -39q0 -23 -15 -38.5t-37 -15.5q-19 0 -38 14l-76 63l-75 -63
q-19 -14 -39 -14q-23 0 -37.5 17t-14.5 37q0 23 21 39z" />
    <glyph glyph-name="ccircumflex" unicode="&#x109;" horiz-adv-x="556" 
d="M258 733q17 17 39 17q24 0 39 -17l96 -99q13 -13 13 -33t-15.5 -34.5t-35.5 -14.5q-18 0 -32 15l-65 73l-64 -73q-14 -15 -33 -15q-20 0 -35.5 14.5t-15.5 34.5t14 33zM308 -10q-57 0 -105.5 20.5t-84 56.5t-55.5 84t-20 104q0 55 20 103.5t55.5 84.5t84 56.5t105.5 20.5
q63 0 113 -23.5t79 -57.5q16 -19 16 -38q0 -23 -15.5 -37t-38.5 -14q-17 0 -26.5 7t-20.5 16q-19 19 -45 32t-62 13q-32 0 -60 -12.5t-49 -34.5t-33 -52t-12 -64t12 -63.5t33 -51.5t49 -35t60 -13q35 0 61.5 13t44.5 32q11 9 21 17t27 8q23 0 38.5 -15t15.5 -38
q0 -18 -16 -36q-29 -35 -78.5 -59t-113.5 -24z" />
    <glyph glyph-name="Cdotaccent" unicode="&#x10a;" horiz-adv-x="727" 
d="M399 759q-29 0 -49 20t-20 49t20 48.5t49 19.5t49 -19.5t20 -48.5t-20 -49t-49 -20zM401 -10q-75 0 -140.5 28t-113.5 76.5t-76 114.5t-28 141t28 141t76 114.5t113.5 76.5t140.5 28q82 0 150 -32t114 -84q8 -8 12 -19t4 -21q0 -24 -17 -41t-42 -17q-21 0 -47 23
q-32 35 -76 56.5t-98 21.5q-50 0 -93 -19t-75 -52.5t-50.5 -78.5t-18.5 -97q0 -51 18.5 -96t50.5 -78.5t75 -52.5t93 -19q54 0 98 21.5t76 56.5q26 23 47 23q25 0 42 -17t17 -41q0 -10 -4 -21t-12 -19q-46 -53 -114 -85t-150 -32z" />
    <glyph glyph-name="cdotaccent" unicode="&#x10b;" horiz-adv-x="556" 
d="M308 -10q-57 0 -105.5 20.5t-84 56.5t-55.5 84t-20 104q0 55 20 103.5t55.5 84.5t84 56.5t105.5 20.5q63 0 113 -23.5t79 -57.5q16 -19 16 -38q0 -23 -15.5 -37t-38.5 -14q-17 0 -26.5 7t-20.5 16q-19 19 -45 32t-62 13q-32 0 -60 -12.5t-49 -34.5t-33 -52t-12 -64
t12 -63.5t33 -51.5t49 -35t60 -13q35 0 61.5 13t44.5 32q11 9 21 17t27 8q23 0 38.5 -15t15.5 -38q0 -18 -16 -36q-29 -35 -78.5 -59t-113.5 -24zM302 577q-26 0 -45.5 19.5t-19.5 45.5q0 27 19.5 46t45.5 19q27 0 46 -19t19 -46q0 -26 -19 -45.5t-46 -19.5z" />
    <glyph glyph-name="Ccaron" unicode="&#x10c;" horiz-adv-x="727" 
d="M401 -10q-75 0 -140.5 28t-113.5 76.5t-76 114.5t-28 141t28 141t76 114.5t113.5 76.5t140.5 28q82 0 150 -32t114 -84q8 -8 12 -19t4 -21q0 -24 -17 -41t-42 -17q-21 0 -47 23q-32 35 -76 56.5t-98 21.5q-50 0 -93 -19t-75 -52.5t-50.5 -78.5t-18.5 -97q0 -51 18.5 -96
t50.5 -78.5t75 -52.5t93 -19q54 0 98 21.5t76 56.5q26 23 47 23q25 0 42 -17t17 -41q0 -10 -4 -21t-12 -19q-46 -53 -114 -85t-150 -32zM249 837q-21 15 -21 39q0 20 14.5 37t37.5 17q21 0 39 -15l75 -62l76 62q18 15 38 15q22 0 37 -16t15 -38q0 -11 -5 -21.5t-16 -17.5
l-115 -88q-5 -5 -12 -8t-18 -3q-8 0 -15.5 3t-14.5 8z" />
    <glyph glyph-name="ccaron" unicode="&#x10d;" horiz-adv-x="556" 
d="M165 668q-14 13 -14 33t15.5 34.5t35.5 14.5q19 0 33 -15l64 -73l65 73q14 15 32 15q20 0 35.5 -14.5t15.5 -34.5t-13 -33l-96 -99q-15 -17 -39 -17q-22 0 -39 17zM308 -10q-57 0 -105.5 20.5t-84 56.5t-55.5 84t-20 104q0 55 20 103.5t55.5 84.5t84 56.5t105.5 20.5
q63 0 113 -23.5t79 -57.5q16 -19 16 -38q0 -23 -15.5 -37t-38.5 -14q-17 0 -26.5 7t-20.5 16q-19 19 -45 32t-62 13q-32 0 -60 -12.5t-49 -34.5t-33 -52t-12 -64t12 -63.5t33 -51.5t49 -35t60 -13q35 0 61.5 13t44.5 32q11 9 21 17t27 8q23 0 38.5 -15t15.5 -38
q0 -18 -16 -36q-29 -35 -78.5 -59t-113.5 -24z" />
    <glyph glyph-name="Dcaron" unicode="&#x10e;" horiz-adv-x="711" 
d="M64 642q0 24 17.5 41t41.5 17h186q80 0 146 -27.5t113.5 -74.5t73.5 -111t26 -137t-26 -137t-73.5 -111t-113.5 -74.5t-147 -27.5h-185q-24 0 -41.5 17.5t-17.5 41.5v583zM309 110q55 0 99 18.5t75 51t47.5 76.5t16.5 94t-16.5 94t-47.5 76.5t-75 51.5t-99 19h-127v-481
h127zM157 837q-21 15 -21 39q0 20 14.5 37t37.5 17q21 0 39 -15l75 -62l76 62q18 15 38 15q22 0 37 -16t15 -38q0 -11 -5 -21.5t-16 -17.5l-115 -88q-5 -5 -12 -8t-18 -3q-8 0 -15.5 3t-14.5 8z" />
    <glyph glyph-name="dcaron" unicode="&#x10f;" horiz-adv-x="730" 
d="M462 52q-33 -29 -75.5 -45.5t-90.5 -16.5q-54 0 -100.5 20.5t-80 56.5t-53 84t-19.5 104q0 55 19.5 103.5t53 84.5t80 56.5t100.5 20.5q48 0 90.5 -16.5t75.5 -46.5v197q0 23 16 39t39 16t39 -16t16 -39v-607q0 -23 -16 -39.5t-39 -16.5t-39 16.5t-16 39.5v5zM308 92
q32 0 60 12.5t49 34t33 51.5t12 65v7q-2 33 -14 61.5t-33 49.5t-48.5 33t-58.5 12q-32 0 -60 -12.5t-49 -34t-33 -51.5t-12 -65t12 -65t33 -51.5t49 -34t60 -12.5zM659 733q5 18 18 28.5t30 10.5q27 0 42 -20t9 -44l-40 -162q-5 -17 -18 -27.5t-30 -10.5q-13 0 -23.5 5
t-17.5 14t-9.5 20.5t0.5 24.5z" />
    <glyph glyph-name="Dcroat" unicode="&#x110;" horiz-adv-x="711" 
d="M20 297q-22 0 -37.5 15.5t-15.5 37.5t15.5 37.5t37.5 15.5h44v239q0 24 17.5 41t41.5 17h186q80 0 146 -27.5t113.5 -74.5t73.5 -111t26 -137t-26 -137t-73.5 -111t-113.5 -74.5t-147 -27.5h-185q-24 0 -41.5 17.5t-17.5 41.5v238h-44zM309 110q55 0 99 18.5t75 51
t47.5 76.5t16.5 94t-16.5 94t-47.5 76.5t-75 51.5t-99 19h-127v-188h112q22 0 37.5 -15.5t15.5 -37.5t-15.5 -37.5t-37.5 -15.5h-112v-187h127z" />
    <glyph glyph-name="dcroat" unicode="&#x111;" 
d="M379 539q-21 0 -36 15t-15 36q0 22 15 36.5t36 14.5h83v13q0 23 16 39t39 16t39 -16t16 -39v-13h26q21 0 36 -14.5t15 -36.5q0 -21 -15 -36t-36 -15h-26v-492q0 -23 -16 -39.5t-39 -16.5t-39 16.5t-16 39.5v5q-33 -29 -75.5 -45.5t-90.5 -16.5q-54 0 -100.5 20.5
t-80 56.5t-53 84t-19.5 104q0 55 19.5 103.5t53 84.5t80 56.5t100.5 20.5q48 0 90.5 -16.5t75.5 -46.5v82h-83zM308 92q32 0 60 12.5t49 34t33 51.5t12 65t-12 65t-33 51.5t-49 34t-60 12.5t-60 -12.5t-49 -34t-33 -51.5t-12 -65t12 -65t33 -51.5t49 -34t60 -12.5z" />
    <glyph glyph-name="Emacron" unicode="&#x112;" horiz-adv-x="490" 
d="M64 642q0 24 17.5 41t41.5 17h270q23 0 38.5 -15.5t15.5 -38.5t-15.5 -39t-38.5 -16h-211v-186h211q23 0 38.5 -16t15.5 -39t-15.5 -38.5t-38.5 -15.5h-211v-186h211q23 0 38.5 -16t15.5 -39t-15.5 -39t-38.5 -16h-270q-24 0 -41.5 17.5t-17.5 41.5v583zM142 763
q-22 0 -36.5 15t-14.5 36t14.5 36t36.5 15h225q22 0 36.5 -15t14.5 -36t-14.5 -36t-36.5 -15h-225z" />
    <glyph glyph-name="emacron" unicode="&#x113;" horiz-adv-x="555" 
d="M308 -10q-57 0 -105.5 20.5t-84 56.5t-55.5 84t-20 104q0 55 20 103.5t55.5 84.5t84 56.5t105.5 20.5q59 0 103 -19.5t70 -42.5q20 -18 20 -42q0 -11 -3.5 -20t-12.5 -20l-154 -183q-15 -18 -38 -18t-37.5 14t-14.5 36q0 9 2.5 17.5t9.5 15.5l121 142q-13 9 -31 13.5
t-35 4.5q-32 0 -60 -12.5t-49 -34.5t-33 -52t-12 -64t12 -63.5t32.5 -51.5t48.5 -35t61 -13q35 0 61.5 13t44.5 32q12 10 22 17.5t26 7.5q23 0 38.5 -15t15.5 -38q0 -18 -16 -36q-29 -35 -78.5 -59t-113.5 -24zM188 577q-21 0 -36 15t-15 36q0 22 15 36.5t36 14.5h219
q21 0 36 -14.5t15 -36.5q0 -21 -15 -36t-36 -15h-219z" />
    <glyph glyph-name="Ebreve" unicode="&#x114;" horiz-adv-x="490" 
d="M64 642q0 24 17.5 41t41.5 17h270q23 0 38.5 -15.5t15.5 -38.5t-15.5 -39t-38.5 -16h-211v-186h211q23 0 38.5 -16t15.5 -39t-15.5 -38.5t-38.5 -15.5h-211v-186h211q23 0 38.5 -16t15.5 -39t-15.5 -39t-38.5 -16h-270q-24 0 -41.5 17.5t-17.5 41.5v583zM260 735
q-33 0 -63.5 11t-54 30.5t-38 44.5t-14.5 54q-1 21 14 36t36 15q20 0 32 -12t15 -23q5 -21 24 -39t49 -18q29 0 48 18t23 39q3 11 15.5 23t32.5 12q21 0 36 -15t15 -36q-1 -29 -15.5 -54t-38.5 -44.5t-54 -30.5t-62 -11z" />
    <glyph glyph-name="ebreve" unicode="&#x115;" horiz-adv-x="555" 
d="M308 -10q-57 0 -105.5 20.5t-84 56.5t-55.5 84t-20 104q0 55 20 103.5t55.5 84.5t84 56.5t105.5 20.5q59 0 103 -19.5t70 -42.5q20 -18 20 -42q0 -11 -3.5 -20t-12.5 -20l-154 -183q-15 -18 -38 -18t-37.5 14t-14.5 36q0 9 2.5 17.5t9.5 15.5l121 142q-13 9 -31 13.5
t-35 4.5q-32 0 -60 -12.5t-49 -34.5t-33 -52t-12 -64t12 -63.5t32.5 -51.5t48.5 -35t61 -13q35 0 61.5 13t44.5 32q12 10 22 17.5t26 7.5q23 0 38.5 -15t15.5 -38q0 -18 -16 -36q-29 -35 -78.5 -59t-113.5 -24zM294 554q-32 0 -61 11t-52 30t-37 44t-14 52q-1 20 13.5 34.5
t34.5 14.5t31.5 -11.5t14.5 -22.5q4 -20 22.5 -38t47.5 -18t47 18t23 38q3 11 14 22.5t32 11.5q20 0 34 -14.5t14 -34.5q-1 -27 -15 -52t-36.5 -44t-52 -30t-60.5 -11z" />
    <glyph glyph-name="Edotaccent" unicode="&#x116;" horiz-adv-x="490" 
d="M251 759q-29 0 -49 20t-20 49t20 48.5t49 19.5t49 -19.5t20 -48.5t-20 -49t-49 -20zM64 642q0 24 17.5 41t41.5 17h270q23 0 38.5 -15.5t15.5 -38.5t-15.5 -39t-38.5 -16h-211v-186h211q23 0 38.5 -16t15.5 -39t-15.5 -38.5t-38.5 -15.5h-211v-186h211q23 0 38.5 -16
t15.5 -39t-15.5 -39t-38.5 -16h-270q-24 0 -41.5 17.5t-17.5 41.5v583z" />
    <glyph glyph-name="edotaccent" unicode="&#x117;" horiz-adv-x="555" 
d="M308 -10q-57 0 -105.5 20.5t-84 56.5t-55.5 84t-20 104q0 55 20 103.5t55.5 84.5t84 56.5t105.5 20.5q59 0 103 -19.5t70 -42.5q20 -18 20 -42q0 -11 -3.5 -20t-12.5 -20l-154 -183q-15 -18 -38 -18t-37.5 14t-14.5 36q0 9 2.5 17.5t9.5 15.5l121 142q-13 9 -31 13.5
t-35 4.5q-32 0 -60 -12.5t-49 -34.5t-33 -52t-12 -64t12 -63.5t32.5 -51.5t48.5 -35t61 -13q35 0 61.5 13t44.5 32q12 10 22 17.5t26 7.5q23 0 38.5 -15t15.5 -38q0 -18 -16 -36q-29 -35 -78.5 -59t-113.5 -24zM287 577q-26 0 -45.5 19.5t-19.5 45.5q0 27 19.5 46t45.5 19
q27 0 46 -19t19 -46q0 -26 -19 -45.5t-46 -19.5z" />
    <glyph glyph-name="Eogonek" unicode="&#x118;" horiz-adv-x="490" 
d="M64 642q0 24 17.5 41t41.5 17h270q23 0 38.5 -15.5t15.5 -38.5t-15.5 -39t-38.5 -16h-211v-186h211q23 0 38.5 -16t15.5 -39t-15.5 -38.5t-38.5 -15.5h-211v-186h211q23 0 38.5 -16t15.5 -39q0 -17 -8 -30t-22 -20l-26 -23l-32 -33q-3 -3 -6 -9t-3 -14q0 -14 8.5 -23
t21.5 -9h6q22 0 36 -12.5t14 -33.5q0 -22 -16.5 -35t-39.5 -13h-7q-60 1 -91 33.5t-31 77.5q0 26 10 48t24 36l5 5h-167q-24 0 -41.5 17.5t-17.5 41.5v583z" />
    <glyph glyph-name="eogonek" unicode="&#x119;" horiz-adv-x="555" 
d="M308 -10q-57 0 -105.5 20.5t-84 56.5t-55.5 84t-20 104q0 55 20 103.5t55.5 84.5t84 56.5t105.5 20.5q59 0 103 -19.5t70 -42.5q20 -18 20 -42q0 -11 -3.5 -20t-12.5 -20l-154 -183q-15 -18 -38 -18t-37.5 14t-14.5 36q0 9 2.5 17.5t9.5 15.5l121 142q-13 9 -31 13.5
t-35 4.5q-32 0 -60 -12.5t-49 -34.5t-33 -52t-12 -64t12 -63.5t32.5 -51.5t48.5 -35t61 -13q35 0 61.5 13t44.5 32q12 10 22 17.5t26 7.5q23 0 38.5 -15t15.5 -38q0 -18 -16 -36q-17 -20 -39 -36q-2 -3 -4.5 -6.5t-4.5 -5.5l-65 -76q-3 -3 -6 -9t-3 -14q0 -14 8.5 -23
t21.5 -9h6q22 0 36 -12.5t14 -33.5q0 -22 -16 -35t-39 -13h-7q-60 1 -91.5 33.5t-31.5 77.5q0 23 11.5 44t25.5 35h-8v0z" />
    <glyph glyph-name="Ecaron" unicode="&#x11a;" horiz-adv-x="490" 
d="M64 642q0 24 17.5 41t41.5 17h270q23 0 38.5 -15.5t15.5 -38.5t-15.5 -39t-38.5 -16h-211v-186h211q23 0 38.5 -16t15.5 -39t-15.5 -38.5t-38.5 -15.5h-211v-186h211q23 0 38.5 -16t15.5 -39t-15.5 -39t-38.5 -16h-270q-24 0 -41.5 17.5t-17.5 41.5v583zM110 837
q-21 15 -21 39q0 20 14.5 37t37.5 17q21 0 39 -15l75 -62l76 62q18 15 38 15q22 0 37 -16t15 -38q0 -11 -5 -21.5t-16 -17.5l-115 -88q-5 -5 -12 -8t-18 -3q-8 0 -15.5 3t-14.5 8z" />
    <glyph glyph-name="ecaron" unicode="&#x11b;" horiz-adv-x="555" 
d="M157 668q-14 13 -14 33t15.5 34.5t35.5 14.5q19 0 33 -15l64 -73l65 73q14 15 32 15q20 0 35.5 -14.5t15.5 -34.5t-13 -33l-96 -99q-15 -17 -39 -17q-22 0 -39 17zM308 -10q-57 0 -105.5 20.5t-84 56.5t-55.5 84t-20 104q0 55 20 103.5t55.5 84.5t84 56.5t105.5 20.5
q59 0 103 -19.5t70 -42.5q20 -18 20 -42q0 -11 -3.5 -20t-12.5 -20l-154 -183q-15 -18 -38 -18t-37.5 14t-14.5 36q0 9 2.5 17.5t9.5 15.5l121 142q-13 9 -31 13.5t-35 4.5q-32 0 -60 -12.5t-49 -34.5t-33 -52t-12 -64t12 -63.5t32.5 -51.5t48.5 -35t61 -13q35 0 61.5 13
t44.5 32q12 10 22 17.5t26 7.5q23 0 38.5 -15t15.5 -38q0 -18 -16 -36q-29 -35 -78.5 -59t-113.5 -24z" />
    <glyph glyph-name="Gcircumflex" unicode="&#x11c;" horiz-adv-x="792" 
d="M370 927q15 10 30 10q11 0 18 -3t12 -7l115 -88q21 -15 21 -39q0 -23 -15 -38.5t-37 -15.5q-19 0 -38 14l-76 63l-75 -63q-19 -14 -39 -14q-23 0 -37.5 17t-14.5 37q0 23 21 39zM401 -10q-75 0 -140.5 28t-113.5 76.5t-76 114.5t-28 141t28 141t76 114.5t113.5 76.5
t140.5 28q82 0 150 -32t114 -84q8 -8 12 -19t4 -21q0 -24 -17 -41t-42 -17q-11 0 -23.5 6t-23.5 17q-32 35 -76 56.5t-98 21.5q-50 0 -93 -19t-75 -52.5t-50.5 -78.5t-18.5 -97q0 -51 18.5 -96t50.5 -78.5t75 -52.5t93 -19q39 0 74.5 12t65 34.5t51 54.5t33.5 71h-171
q-23 0 -39 15.5t-16 38.5t16 39t39 16h249q23 0 38.5 -16t15.5 -42q-2 -62 -29 -122.5t-74 -108t-111.5 -77t-141.5 -29.5z" />
    <glyph glyph-name="gcircumflex" unicode="&#x11d;" 
d="M296 -10q-54 0 -100.5 20.5t-80 56.5t-53 84t-19.5 104q0 55 19.5 103.5t53 84.5t80 56.5t100.5 20.5q48 0 90.5 -16.5t75.5 -46.5v7q0 23 16 39t39 16t39 -16t16 -39v-399q0 -56 -21 -104.5t-57.5 -84t-86 -56t-105.5 -20.5q-64 0 -113 23.5t-78 56.5q-16 19 -16 37
q0 23 15.5 37.5t38.5 14.5q17 0 27 -8t21 -17q20 -19 46 -30.5t59 -11.5t61 12t49 32t34 47.5t15 58.5q-33 -29 -75 -45.5t-90 -16.5zM308 92q32 0 60 12.5t49 34t33 51.5t12 65t-12 65t-33 51.5t-49 34t-60 12.5t-60 -12.5t-49 -34t-33 -51.5t-12 -65t12 -65t33 -51.5
t49 -34t60 -12.5zM279 733q17 17 39 17q24 0 39 -17l96 -99q13 -13 13 -33t-15.5 -34.5t-35.5 -14.5q-18 0 -32 15l-65 73l-64 -73q-14 -15 -33 -15q-20 0 -35.5 14.5t-15.5 34.5t14 33z" />
    <glyph glyph-name="Gbreve" unicode="&#x11e;" horiz-adv-x="792" 
d="M401 -10q-75 0 -140.5 28t-113.5 76.5t-76 114.5t-28 141t28 141t76 114.5t113.5 76.5t140.5 28q82 0 150 -32t114 -84q8 -8 12 -19t4 -21q0 -24 -17 -41t-42 -17q-11 0 -23.5 6t-23.5 17q-32 35 -76 56.5t-98 21.5q-50 0 -93 -19t-75 -52.5t-50.5 -78.5t-18.5 -97
q0 -51 18.5 -96t50.5 -78.5t75 -52.5t93 -19q39 0 74.5 12t65 34.5t51 54.5t33.5 71h-171q-23 0 -39 15.5t-16 38.5t16 39t39 16h249q23 0 38.5 -16t15.5 -42q-2 -62 -29 -122.5t-74 -108t-111.5 -77t-141.5 -29.5zM400 735q-33 0 -63.5 11t-54 30.5t-38 44.5t-14.5 54
q-1 21 14 36t36 15q20 0 32 -12t15 -23q5 -21 24 -39t49 -18q29 0 48 18t23 39q3 11 15.5 23t32.5 12q21 0 36 -15t15 -36q-1 -29 -15.5 -54t-38.5 -44.5t-54 -30.5t-62 -11z" />
    <glyph glyph-name="gbreve" unicode="&#x11f;" 
d="M296 -10q-54 0 -100.5 20.5t-80 56.5t-53 84t-19.5 104q0 55 19.5 103.5t53 84.5t80 56.5t100.5 20.5q48 0 90.5 -16.5t75.5 -46.5v7q0 23 16 39t39 16t39 -16t16 -39v-399q0 -56 -21 -104.5t-57.5 -84t-86 -56t-105.5 -20.5q-64 0 -113 23.5t-78 56.5q-16 19 -16 37
q0 23 15.5 37.5t38.5 14.5q17 0 27 -8t21 -17q20 -19 46 -30.5t59 -11.5t61 12t49 32t34 47.5t15 58.5q-33 -29 -75 -45.5t-90 -16.5zM308 92q32 0 60 12.5t49 34t33 51.5t12 65t-12 65t-33 51.5t-49 34t-60 12.5t-60 -12.5t-49 -34t-33 -51.5t-12 -65t12 -65t33 -51.5
t49 -34t60 -12.5zM326 554q-32 0 -61 11t-52 30t-37 44t-14 52q-1 20 13.5 34.5t34.5 14.5t31.5 -11.5t14.5 -22.5q4 -20 22.5 -38t47.5 -18t47 18t23 38q3 11 14 22.5t32 11.5q20 0 34 -14.5t14 -34.5q-1 -27 -15 -52t-36.5 -44t-52 -30t-60.5 -11z" />
    <glyph glyph-name="Gdotaccent" unicode="&#x120;" horiz-adv-x="792" 
d="M401 759q-29 0 -49 20t-20 49t20 48.5t49 19.5t49 -19.5t20 -48.5t-20 -49t-49 -20zM401 -10q-75 0 -140.5 28t-113.5 76.5t-76 114.5t-28 141t28 141t76 114.5t113.5 76.5t140.5 28q82 0 150 -32t114 -84q8 -8 12 -19t4 -21q0 -24 -17 -41t-42 -17q-11 0 -23.5 6
t-23.5 17q-32 35 -76 56.5t-98 21.5q-50 0 -93 -19t-75 -52.5t-50.5 -78.5t-18.5 -97q0 -51 18.5 -96t50.5 -78.5t75 -52.5t93 -19q39 0 74.5 12t65 34.5t51 54.5t33.5 71h-171q-23 0 -39 15.5t-16 38.5t16 39t39 16h249q23 0 38.5 -16t15.5 -42q-2 -62 -29 -122.5t-74 -108
t-111.5 -77t-141.5 -29.5z" />
    <glyph glyph-name="gdotaccent" unicode="&#x121;" 
d="M296 -10q-54 0 -100.5 20.5t-80 56.5t-53 84t-19.5 104q0 55 19.5 103.5t53 84.5t80 56.5t100.5 20.5q48 0 90.5 -16.5t75.5 -46.5v7q0 23 16 39t39 16t39 -16t16 -39v-399q0 -56 -21 -104.5t-57.5 -84t-86 -56t-105.5 -20.5q-64 0 -113 23.5t-78 56.5q-16 19 -16 37
q0 23 15.5 37.5t38.5 14.5q17 0 27 -8t21 -17q20 -19 46 -30.5t59 -11.5t61 12t49 32t34 47.5t15 58.5q-33 -29 -75 -45.5t-90 -16.5zM308 92q31 0 58.5 11.5t48.5 32.5t33 49.5t14 62.5v14q-2 33 -14 61.5t-33 49.5t-48.5 33t-58.5 12q-32 0 -60 -12.5t-49 -34t-33 -51.5
t-12 -65t12 -65t33 -51.5t49 -34t60 -12.5zM318 577q-26 0 -45.5 19.5t-19.5 45.5q0 27 19.5 46t45.5 19q27 0 46 -19t19 -46q0 -26 -19 -45.5t-46 -19.5z" />
    <glyph glyph-name="Gcommaaccent" unicode="&#x122;" horiz-adv-x="792" 
d="M352 -66q5 13 17.5 22.5t28.5 9.5q20 0 37 -13.5t17 -36.5q0 -10 -5 -22l-40 -102q-5 -13 -18 -22t-29 -9q-20 0 -37 13.5t-17 35.5q0 8 5 23zM401 -10q-75 0 -140.5 28t-113.5 76.5t-76 114.5t-28 141t28 141t76 114.5t113.5 76.5t140.5 28q82 0 150 -32t114 -84
q8 -8 12 -19t4 -21q0 -24 -17 -41t-42 -17q-11 0 -23.5 6t-23.5 17q-32 35 -76 56.5t-98 21.5q-50 0 -93 -19t-75 -52.5t-50.5 -78.5t-18.5 -97q0 -51 18.5 -96t50.5 -78.5t75 -52.5t93 -19q39 0 74.5 12t65 34.5t51 54.5t33.5 71h-171q-23 0 -39 15.5t-16 38.5t16 39t39 16
h249q23 0 38.5 -16t15.5 -42q-2 -62 -29 -122.5t-74 -108t-111.5 -77t-141.5 -29.5z" />
    <glyph glyph-name="gcommaaccent" unicode="&#x123;" 
d="M296 -10q-54 0 -100.5 20.5t-80 56.5t-53 84t-19.5 104q0 55 19.5 103.5t53 84.5t80 56.5t100.5 20.5q48 0 90.5 -16.5t75.5 -46.5v7q0 23 16 39t39 16t39 -16t16 -39v-399q0 -56 -21 -104.5t-57.5 -84t-86 -56t-105.5 -20.5q-64 0 -113 23.5t-78 56.5q-16 19 -16 37
q0 23 15.5 37.5t38.5 14.5q17 0 27 -8t21 -17q20 -19 46 -30.5t59 -11.5t61 12t49 32t34 47.5t15 58.5q-33 -29 -75 -45.5t-90 -16.5zM308 92q32 0 60 12.5t49 34t33 51.5t12 65t-12 65t-33 51.5t-49 34t-60 12.5t-60 -12.5t-49 -34t-33 -51.5t-12 -65t12 -65t33 -51.5
t49 -34t60 -12.5zM308 719q5 13 17.5 22.5t28.5 9.5q20 0 37 -13.5t17 -36.5q0 -10 -5 -22l-40 -102q-5 -13 -18 -22t-29 -9q-20 0 -37 13.5t-17 35.5q0 8 5 23z" />
    <glyph glyph-name="Hcircumflex" unicode="&#x124;" horiz-adv-x="643" 
d="M64 650q0 25 17.5 42t41.5 17t41.5 -17t17.5 -42v-245h280v245q0 25 17 42t41 17q25 0 42 -17t17 -42v-600q0 -24 -17 -41.5t-42 -17.5q-24 0 -41 17.5t-17 41.5v246h-280v-246q0 -24 -17.5 -41.5t-41.5 -17.5t-41.5 17.5t-17.5 41.5v600zM291 927q15 10 30 10
q11 0 18 -3t12 -7l115 -88q21 -15 21 -39q0 -23 -15 -38.5t-37 -15.5q-19 0 -38 14l-76 63l-75 -63q-19 -14 -39 -14q-23 0 -37.5 17t-14.5 37q0 23 21 39z" />
    <glyph glyph-name="hcircumflex" unicode="&#x125;" horiz-adv-x="577" 
d="M64 654q0 23 16 39t39 16t39 -16t16 -39v-178q24 19 56 31.5t71 12.5q45 0 83.5 -16.5t67.5 -46.5t45.5 -73t16.5 -97v-240q0 -23 -16 -39.5t-39 -16.5t-39 16.5t-16 39.5v244q0 63 -33.5 95t-81.5 32q-24 0 -44.5 -8t-36.5 -24t-25 -40t-9 -55v-244q0 -23 -16 -39.5
t-39 -16.5t-39 16.5t-16 39.5v607z" />
    <glyph glyph-name="Hbar" unicode="&#x126;" horiz-adv-x="643" 
d="M64 488h-23q-21 0 -36 15t-15 36t15 36t36 15h23v60q0 25 17.5 42t41.5 17t41.5 -17t17.5 -42v-60h280v60q0 25 17 42t41 17q25 0 42 -17t17 -42v-60h23q21 0 36 -15t15 -36t-15 -36t-36 -15h-23v-438q0 -24 -17 -41.5t-42 -17.5q-24 0 -41 17.5t-17 41.5v223h-280v-223
q0 -24 -17.5 -41.5t-41.5 -17.5t-41.5 17.5t-17.5 41.5v438zM462 383v105h-280v-105h280z" />
    <glyph glyph-name="hbar" unicode="&#x127;" horiz-adv-x="577" 
d="M41 539q-21 0 -36 14.5t-15 36.5q0 21 15 36t36 15h23v13q0 23 16 39t39 16t39 -16t16 -39v-13h71q21 0 36 -15t15 -36q0 -22 -15 -36.5t-36 -14.5h-71v-63q24 19 56 31.5t71 12.5q45 0 83.5 -16.5t67.5 -46.5t45.5 -73t16.5 -97v-240q0 -23 -16 -39.5t-39 -16.5
t-39 16.5t-16 39.5v244q0 63 -33.5 95t-81.5 32q-24 0 -44.5 -8t-36.5 -24t-25 -40t-9 -55v-244q0 -23 -16 -39.5t-39 -16.5t-39 16.5t-16 39.5v492h-23z" />
    <glyph glyph-name="Itilde" unicode="&#x128;" horiz-adv-x="245" 
d="M64 650q0 25 17.5 42t41.5 17t41.5 -17t17.5 -42v-600q0 -24 -17.5 -41.5t-41.5 -17.5t-41.5 17.5t-17.5 41.5v600zM69 806q-12 0 -19 -5t-12 -12.5t-8.5 -15.5t-8.5 -14q-10 -12 -29 -12q-23 0 -39.5 12.5t-16.5 35.5q0 2 1.5 10t3.5 14q6 13 15.5 28.5t23.5 29.5
t33 23.5t43 9.5q25 0 44 -9t35 -20.5t28.5 -20.5t23.5 -9q13 0 20.5 6t12.5 14.5t9 17.5t12 15q4 2 9.5 4t12.5 2q23 0 39.5 -12.5t16.5 -35.5q0 -2 -1.5 -10t-3.5 -14q-6 -13 -15.5 -28.5t-23.5 -29.5t-33 -23.5t-43 -9.5t-43.5 9t-35 20.5t-28 20.5t-23.5 9z" />
    <glyph glyph-name="itilde" unicode="&#x129;" horiz-adv-x="238" 
d="M64 464q0 23 16 39t39 16t39 -16t16 -39v-417q0 -23 -16 -39.5t-39 -16.5t-39 16.5t-16 39.5v417zM69 619q-19 0 -27 -12.5t-13 -23.5q-4 -8 -11 -14.5t-23 -6.5q-22 0 -38 11.5t-16 33.5q0 3 1.5 10.5t3.5 13.5q5 13 14.5 28t23 28.5t32 22.5t41.5 9q24 0 43 -9
t34 -19.5t27 -19.5t23 -9q12 0 19 5.5t12 13.5t9.5 16t10.5 14q5 4 10 6t13 2q22 0 38 -11.5t16 -33.5q0 -3 -1.5 -10.5t-3.5 -13.5q-5 -13 -14.5 -28t-23 -28.5t-32 -22.5t-41.5 -9q-24 0 -42.5 9t-33.5 19.5t-27.5 19.5t-23.5 9z" />
    <glyph glyph-name="Imacron" unicode="&#x12a;" horiz-adv-x="245" 
d="M64 650q0 25 17.5 42t41.5 17t41.5 -17t17.5 -42v-600q0 -24 -17.5 -41.5t-41.5 -17.5t-41.5 17.5t-17.5 41.5v600zM11 763q-22 0 -36.5 15t-14.5 36t14.5 36t36.5 15h225q22 0 36.5 -15t14.5 -36t-14.5 -36t-36.5 -15h-225z" />
    <glyph glyph-name="imacron" unicode="&#x12b;" horiz-adv-x="238" 
d="M64 464q0 23 16 39t39 16t39 -16t16 -39v-417q0 -23 -16 -39.5t-39 -16.5t-39 16.5t-16 39.5v417zM10 577q-21 0 -36 15t-15 36q0 22 15 36.5t36 14.5h219q21 0 36 -14.5t15 -36.5q0 -21 -15 -36t-36 -15h-219z" />
    <glyph glyph-name="Ibreve" unicode="&#x12c;" horiz-adv-x="245" 
d="M64 650q0 25 17.5 42t41.5 17t41.5 -17t17.5 -42v-600q0 -24 -17.5 -41.5t-41.5 -17.5t-41.5 17.5t-17.5 41.5v600zM124 735q-33 0 -63.5 11t-54 30.5t-38 44.5t-14.5 54q-1 21 14 36t36 15q20 0 32 -12t15 -23q5 -21 24 -39t49 -18q29 0 48 18t23 39q3 11 15.5 23
t32.5 12q21 0 36 -15t15 -36q-1 -29 -15.5 -54t-38.5 -44.5t-54 -30.5t-62 -11z" />
    <glyph glyph-name="ibreve" unicode="&#x12d;" horiz-adv-x="238" 
d="M64 464q0 23 16 39t39 16t39 -16t16 -39v-417q0 -23 -16 -39.5t-39 -16.5t-39 16.5t-16 39.5v417zM120 554q-32 0 -61 11t-52 30t-37 44t-14 52q-1 20 13.5 34.5t34.5 14.5t31.5 -11.5t14.5 -22.5q4 -20 22.5 -38t47.5 -18t47 18t23 38q3 11 14 22.5t32 11.5
q20 0 34 -14.5t14 -34.5q-1 -27 -15 -52t-36.5 -44t-52 -30t-60.5 -11z" />
    <glyph glyph-name="Iogonek" unicode="&#x12e;" horiz-adv-x="245" 
d="M64 650q0 25 17.5 42t41.5 17t41.5 -17t17.5 -42v-600q0 -6 -2 -14q-2 -17 -9 -31t-17 -23l-32 -33q-3 -3 -6 -9t-3 -14q0 -14 8.5 -23t21.5 -9h6q22 0 36 -12.5t14 -33.5q0 -22 -16 -35t-39 -13h-7q-60 1 -91.5 33.5t-31.5 77.5q0 26 10 48t25 36l23 24q-8 14 -8 31v600
z" />
    <glyph glyph-name="iogonek" unicode="&#x12f;" horiz-adv-x="238" 
d="M64 464q0 23 16 39t39 16t39 -16t16 -39v-417v-5q-1 -19 -8.5 -34.5t-18.5 -25.5l-32 -33q-3 -3 -6 -9t-3 -14q0 -14 8.5 -23t21.5 -9h6q22 0 36 -12.5t14 -33.5q0 -22 -16 -35t-39 -13h-7q-60 1 -91.5 33.5t-31.5 77.5q0 26 10 48t25 36l27 28q-5 12 -5 24v417zM119 577
q-27 0 -46 19.5t-19 45.5q0 27 19 46t46 19t46 -19t19 -46q0 -26 -19 -45.5t-46 -19.5z" />
    <glyph glyph-name="Idotaccent" unicode="&#x130;" horiz-adv-x="245" 
d="M64 650q0 25 17.5 42t41.5 17t41.5 -17t17.5 -42v-600q0 -24 -17.5 -41.5t-41.5 -17.5t-41.5 17.5t-17.5 41.5v600zM122 759q-29 0 -49 20t-20 49t20 48.5t49 19.5t49 -19.5t20 -48.5t-20 -49t-49 -20z" />
    <glyph glyph-name="dotlessi" unicode="&#x131;" horiz-adv-x="238" 
d="M64 464q0 23 16 39t39 16t39 -16t16 -39v-417q0 -23 -16 -39.5t-39 -16.5t-39 16.5t-16 39.5v417z" />
    <glyph glyph-name="IJ" unicode="&#x132;" horiz-adv-x="642" 
d="M64 650q0 25 17.5 42t41.5 17t41.5 -17t17.5 -42v-600q0 -24 -17.5 -41.5t-41.5 -17.5t-41.5 17.5t-17.5 41.5v600zM259 55q0 23 16 39t39 16h7q30 0 56 11.5t44.5 31t29 46.5t10.5 59v392q0 25 17 42t41 17q25 0 42 -17t17 -42v-385q0 -59 -19 -107.5t-53.5 -83.5
t-81.5 -54.5t-103 -19.5h-7q-23 0 -39 16t-16 39z" />
    <glyph glyph-name="ij" unicode="&#x133;" horiz-adv-x="490" 
d="M64 464q0 23 16 39t39 16t39 -16t16 -39v-417q0 -23 -16 -39.5t-39 -16.5t-39 16.5t-16 39.5v417zM119 577q-27 0 -46 19.5t-19 45.5q0 27 19 46t46 19t46 -19t19 -46q0 -26 -19 -45.5t-46 -19.5zM316 464q0 23 16 39t39 16t39 -16t16 -39v-426q0 -54 -17.5 -98
t-48 -74.5t-72 -47t-90.5 -16.5q-21 0 -36 15t-15 36t15 36t36 15q52 0 85 33.5t33 100.5v426zM371 577q-27 0 -46 19.5t-19 45.5q0 27 19 46t46 19t46 -19t19 -46q0 -26 -19 -45.5t-46 -19.5z" />
    <glyph glyph-name="Jcircumflex" unicode="&#x134;" horiz-adv-x="397" 
d="M14 55q0 23 16 39t39 16h7q30 0 56 11.5t44.5 31t29 46.5t10.5 59v392q0 25 17 42t41 17q25 0 42 -17t17 -42v-385q0 -59 -19 -107.5t-53.5 -83.5t-81.5 -54.5t-103 -19.5h-7q-23 0 -39 16t-16 39zM243 927q15 10 30 10q11 0 18 -3t12 -7l115 -88q21 -15 21 -39
q0 -23 -15 -38.5t-37 -15.5q-19 0 -38 14l-76 63l-75 -63q-19 -14 -39 -14q-23 0 -37.5 17t-14.5 37q0 23 21 39z" />
    <glyph glyph-name="jcircumflex" unicode="&#x135;" horiz-adv-x="253" 
d="M79 464q0 23 16 39t39 16t39 -16t16 -39v-426q0 -54 -17.5 -98t-48 -74.5t-72 -47t-90.5 -16.5q-21 0 -36 15t-15 36t15 36t36 15q52 0 85 33.5t33 100.5v426zM95 733q17 17 39 17q24 0 39 -17l96 -99q13 -13 13 -33t-15.5 -34.5t-35.5 -14.5q-18 0 -32 15l-65 73
l-64 -73q-14 -15 -33 -15q-20 0 -35.5 14.5t-15.5 34.5t14 33z" />
    <glyph glyph-name="Kcommaaccent" unicode="&#x136;" horiz-adv-x="595" 
d="M238 -66q5 13 17.5 22.5t28.5 9.5q20 0 37 -13.5t17 -36.5q0 -10 -5 -22l-40 -102q-5 -13 -18 -22t-29 -9q-20 0 -37 13.5t-17 35.5q0 8 5 23zM64 650q0 25 17.5 42t41.5 17t41.5 -17t17.5 -42v-600q0 -24 -17.5 -41.5t-41.5 -17.5t-41.5 17.5t-17.5 41.5v600zM220 314
q-5 6 -9 15t-4 21q0 21 12 36l255 303q8 10 19 15t23 5q23 0 39 -16t16 -39q0 -20 -13 -36l-220 -261l225 -269q14 -18 14 -39q0 -24 -17 -41t-41 -17q-28 0 -46 22z" />
    <glyph glyph-name="kcommaaccent" unicode="&#x137;" horiz-adv-x="497" 
d="M201 -66q5 13 17.5 22.5t28.5 9.5q20 0 37 -13.5t17 -36.5q0 -10 -5 -22l-40 -102q-5 -13 -18 -22t-29 -9q-20 0 -37 13.5t-17 35.5q0 8 5 23zM64 654q0 23 16 39t39 16t39 -16t16 -39v-607q0 -23 -16 -39.5t-39 -16.5t-39 16.5t-16 39.5v607zM214 217q-6 8 -10.5 18.5
t-4.5 22.5q0 9 4 19.5t11 18.5l172 205q16 18 38 18t37 -14t15 -36q0 -20 -12 -33l-145 -173l153 -181q13 -16 13 -36q0 -23 -17 -39t-39 -16q-11 0 -22 5t-19 15z" />
    <glyph glyph-name="Lacute" unicode="&#x139;" horiz-adv-x="461" 
d="M158 921q17 20 43 20q23 0 39 -15.5t16 -38.5q0 -9 -3 -18.5t-10 -17.5l-82 -98q-17 -20 -43 -20q-23 0 -39 16t-16 39q0 9 3 18t10 17zM64 650q0 25 17.5 42t41.5 17t41.5 -17t17.5 -42v-540h211q23 0 38.5 -16t15.5 -39t-15.5 -39t-38.5 -16h-270q-24 0 -41.5 17.5
t-17.5 41.5v591z" />
    <glyph glyph-name="lacute" unicode="&#x13a;" horiz-adv-x="238" 
d="M158 921q17 20 43 20q23 0 39 -15.5t16 -38.5q0 -9 -3 -18.5t-10 -17.5l-82 -98q-17 -20 -43 -20q-23 0 -39 16t-16 39q0 9 3 18t10 17zM64 654q0 23 16 39t39 16t39 -16t16 -39v-607q0 -23 -16 -39.5t-39 -16.5t-39 16.5t-16 39.5v607z" />
    <glyph glyph-name="Lcommaaccent" unicode="&#x13b;" horiz-adv-x="461" 
d="M200 -66q5 13 17.5 22.5t28.5 9.5q20 0 37 -13.5t17 -36.5q0 -10 -5 -22l-40 -102q-5 -13 -18 -22t-29 -9q-20 0 -37 13.5t-17 35.5q0 8 5 23zM64 650q0 25 17.5 42t41.5 17t41.5 -17t17.5 -42v-540h211q23 0 38.5 -16t15.5 -39t-15.5 -39t-38.5 -16h-270
q-24 0 -41.5 17.5t-17.5 41.5v591z" />
    <glyph glyph-name="lcommaaccent" unicode="&#x13c;" horiz-adv-x="238" 
d="M74 -66q5 13 17.5 22.5t28.5 9.5q20 0 37 -13.5t17 -36.5q0 -10 -5 -22l-40 -102q-5 -13 -18 -22t-29 -9q-20 0 -37 13.5t-17 35.5q0 8 5 23zM64 654q0 23 16 39t39 16t39 -16t16 -39v-607q0 -23 -16 -39.5t-39 -16.5t-39 16.5t-16 39.5v607z" />
    <glyph glyph-name="Lcaron" unicode="&#x13d;" horiz-adv-x="461" 
d="M290 740q5 18 18 28.5t30 10.5q27 0 42 -20t9 -44l-40 -162q-5 -17 -18 -27.5t-30 -10.5q-13 0 -23.5 5t-17.5 14t-9.5 20.5t0.5 24.5zM64 650q0 25 17.5 42t41.5 17t41.5 -17t17.5 -42v-540h211q23 0 38.5 -16t15.5 -39t-15.5 -39t-38.5 -16h-270q-24 0 -41.5 17.5
t-17.5 41.5v591z" />
    <glyph glyph-name="lcaron" unicode="&#x13e;" horiz-adv-x="325" 
d="M254 733q5 18 18 28.5t30 10.5q27 0 42 -20t9 -44l-40 -162q-5 -17 -18 -27.5t-30 -10.5q-13 0 -23.5 5t-17.5 14t-9.5 20.5t0.5 24.5zM64 654q0 23 16 39t39 16t39 -16t16 -39v-607q0 -23 -16 -39.5t-39 -16.5t-39 16.5t-16 39.5v607z" />
    <glyph glyph-name="Ldot" unicode="&#x13f;" horiz-adv-x="461" 
d="M64 650q0 25 17.5 42t41.5 17t41.5 -17t17.5 -42v-540h211q23 0 38.5 -16t15.5 -39t-15.5 -39t-38.5 -16h-270q-24 0 -41.5 17.5t-17.5 41.5v591zM331 282q-29 0 -49 20t-20 49t20 48.5t49 19.5t49 -19.5t20 -48.5t-20 -49t-49 -20z" />
    <glyph glyph-name="ldot" unicode="&#x140;" horiz-adv-x="367" 
d="M64 654q0 23 16 39t39 16t39 -16t16 -39v-607q0 -23 -16 -39.5t-39 -16.5t-39 16.5t-16 39.5v607zM294 282q-29 0 -49 20t-20 49t20 48.5t49 19.5t49 -19.5t20 -48.5t-20 -49t-49 -20z" />
    <glyph glyph-name="Lslash" unicode="&#x141;" horiz-adv-x="461" 
d="M64 240l-6 -4q-14 -8 -28 -8q-21 0 -37.5 16.5t-16.5 39.5q0 12 5.5 23t18.5 19l64 40v284q0 25 17.5 42t41.5 17t41.5 -17t17.5 -42v-209l66 42q13 9 28 9q21 0 37.5 -16.5t16.5 -38.5q0 -27 -25 -44l-123 -78v-205h211q23 0 38.5 -16t15.5 -39t-15.5 -39t-38.5 -16
h-270q-24 0 -41.5 17.5t-17.5 41.5v181z" />
    <glyph glyph-name="lslash" unicode="&#x142;" horiz-adv-x="238" 
d="M64 249l-21 -13q-14 -8 -28 -8q-22 0 -38 16.5t-16 39.5q0 12 5.5 23t18.5 19l79 50v278q0 23 16 39t39 16t39 -16t16 -39v-209l34 22q12 8 28 8q21 0 37.5 -16.5t16.5 -38.5q0 -28 -25 -43l-91 -58v-272q0 -23 -16 -39.5t-39 -16.5t-39 16.5t-16 39.5v202z" />
    <glyph glyph-name="Nacute" unicode="&#x143;" horiz-adv-x="685" 
d="M353 921q17 20 43 20q23 0 39 -15.5t16 -38.5q0 -9 -3 -18.5t-10 -17.5l-82 -98q-17 -20 -43 -20q-23 0 -39 16t-16 39q0 9 3 18t10 17zM64 647q0 26 17.5 44t43.5 18q15 0 27.5 -6t19.5 -15l321 -383v345q0 25 17 42t42 17q24 0 41 -17t17 -42v-600q0 -24 -17 -41.5
t-41 -17.5q-25 0 -42 17.5t-17 41.5v73l-311 371v-444q0 -24 -17.5 -41.5t-41.5 -17.5t-41.5 17.5t-17.5 41.5v597z" />
    <glyph glyph-name="nacute" unicode="&#x144;" horiz-adv-x="577" 
d="M297 738q16 19 41 19q22 0 38 -15.5t16 -37.5q0 -18 -12 -33l-85 -102q-8 -8 -18.5 -13.5t-21.5 -5.5q-21 0 -38 15.5t-17 37.5q0 17 13 33zM64 287q0 54 17.5 97t48 73t71.5 46.5t88 16.5t88 -16.5t71.5 -46.5t48 -73t17.5 -97v-240q0 -23 -16 -39.5t-39 -16.5t-39 16.5
t-16 39.5v244q0 63 -33.5 95t-81.5 32t-81.5 -32t-33.5 -95v-244q0 -23 -16 -39.5t-39 -16.5t-39 16.5t-16 39.5v240z" />
    <glyph glyph-name="Ncommaaccent" unicode="&#x145;" horiz-adv-x="685" 
d="M297 -66q5 13 17.5 22.5t28.5 9.5q20 0 37 -13.5t17 -36.5q0 -10 -5 -22l-40 -102q-5 -13 -18 -22t-29 -9q-20 0 -37 13.5t-17 35.5q0 8 5 23zM64 647q0 26 17.5 44t43.5 18q15 0 27.5 -6t19.5 -15l321 -383v345q0 25 17 42t42 17q24 0 41 -17t17 -42v-600
q0 -24 -17 -41.5t-41 -17.5q-25 0 -42 17.5t-17 41.5v73l-311 371v-444q0 -24 -17.5 -41.5t-41.5 -17.5t-41.5 17.5t-17.5 41.5v597z" />
    <glyph glyph-name="ncommaaccent" unicode="&#x146;" horiz-adv-x="577" 
d="M232 -66q5 13 17.5 22.5t28.5 9.5q20 0 37 -13.5t17 -36.5q0 -10 -5 -22l-40 -102q-5 -13 -18 -22t-29 -9q-20 0 -37 13.5t-17 35.5q0 8 5 23zM64 287q0 54 17.5 97t48 73t71.5 46.5t88 16.5t88 -16.5t71.5 -46.5t48 -73t17.5 -97v-240q0 -23 -16 -39.5t-39 -16.5
t-39 16.5t-16 39.5v244q0 63 -33.5 95t-81.5 32t-81.5 -32t-33.5 -95v-244q0 -23 -16 -39.5t-39 -16.5t-39 16.5t-16 39.5v240z" />
    <glyph glyph-name="Ncaron" unicode="&#x147;" horiz-adv-x="685" 
d="M64 647q0 26 17.5 44t43.5 18q15 0 27.5 -6t19.5 -15l321 -383v345q0 25 17 42t42 17q24 0 41 -17t17 -42v-600q0 -24 -17 -41.5t-41 -17.5q-25 0 -42 17.5t-17 41.5v73l-311 371v-444q0 -24 -17.5 -41.5t-41.5 -17.5t-41.5 17.5t-17.5 41.5v597zM197 837q-21 15 -21 39
q0 20 14.5 37t37.5 17q21 0 39 -15l75 -62l76 62q18 15 38 15q22 0 37 -16t15 -38q0 -11 -5 -21.5t-16 -17.5l-115 -88q-5 -5 -12 -8t-18 -3q-8 0 -15.5 3t-14.5 8z" />
    <glyph glyph-name="ncaron" unicode="&#x148;" horiz-adv-x="577" 
d="M154 668q-14 13 -14 33t15.5 34.5t35.5 14.5q19 0 33 -15l64 -73l65 73q14 15 32 15q20 0 35.5 -14.5t15.5 -34.5t-13 -33l-96 -99q-15 -17 -39 -17q-22 0 -39 17zM64 287q0 54 17.5 97t48 73t71.5 46.5t88 16.5t88 -16.5t71.5 -46.5t48 -73t17.5 -97v-240
q0 -23 -16 -39.5t-39 -16.5t-39 16.5t-16 39.5v244q0 63 -33.5 95t-81.5 32t-81.5 -32t-33.5 -95v-244q0 -23 -16 -39.5t-39 -16.5t-39 16.5t-16 39.5v240z" />
    <glyph glyph-name="Eng" unicode="&#x14a;" horiz-adv-x="685" 
d="M64 647q0 26 17.5 44t43.5 18q15 0 27.5 -6t19.5 -15l321 -383v345q0 25 17 42t42 17q24 0 41 -17t17 -42v-575q0 -58 -19 -106.5t-52.5 -84t-80 -55t-101.5 -19.5h-11q-23 0 -39 15.5t-16 38.5t16 39t39 16h10q30 0 55 11.5t43.5 32t28.5 47.5t10 58v55l-311 371v-444
q0 -24 -17.5 -41.5t-41.5 -17.5t-41.5 17.5t-17.5 41.5v597z" />
    <glyph glyph-name="eng" unicode="&#x14b;" horiz-adv-x="577" 
d="M64 287q0 54 17.5 97t48 73t71.5 46.5t88 16.5t88 -16.5t71.5 -46.5t48 -73t17.5 -97v-249q0 -54 -17.5 -98t-48 -74.5t-72 -47t-90.5 -16.5q-21 0 -36 15t-15 36t15 36t36 15q51 0 84.5 33.5t33.5 100.5v253q0 63 -33.5 95t-81.5 32t-81.5 -32t-33.5 -95v-244
q0 -23 -16 -39.5t-39 -16.5t-39 16.5t-16 39.5v240z" />
    <glyph glyph-name="Omacron" unicode="&#x14c;" horiz-adv-x="802" 
d="M401 -10q-75 0 -140.5 28t-113.5 76.5t-76 114.5t-28 141t28 141t76 114.5t113.5 76.5t140.5 28t140.5 -28t114 -76.5t76.5 -114.5t28 -141t-28 -141t-76.5 -114.5t-114 -76.5t-140.5 -28zM401 104q50 0 93.5 19t75.5 52.5t50.5 78.5t18.5 96q0 52 -18.5 97t-50.5 78.5
t-75.5 52.5t-93.5 19t-93 -19t-75 -52.5t-50.5 -78.5t-18.5 -97q0 -51 18.5 -96t50.5 -78.5t75 -52.5t93 -19zM289 763q-22 0 -36.5 15t-14.5 36t14.5 36t36.5 15h225q22 0 36.5 -15t14.5 -36t-14.5 -36t-36.5 -15h-225z" />
    <glyph glyph-name="omacron" unicode="&#x14d;" horiz-adv-x="616" 
d="M197 577q-21 0 -36 15t-15 36q0 22 15 36.5t36 14.5h219q21 0 36 -14.5t15 -36.5q0 -21 -15 -36t-36 -15h-219zM308 -10q-57 0 -105.5 20.5t-84 56.5t-55.5 84t-20 104q0 55 20 103.5t55.5 84.5t84 56.5t105.5 20.5t106 -20.5t84 -56.5t55 -84.5t20 -103.5
q0 -56 -20 -104t-55 -84t-84 -56.5t-106 -20.5zM308 92q33 0 61 13t49 35t32.5 52t11.5 63q0 34 -11.5 63.5t-32.5 51.5t-49 35t-61 13t-61 -13t-49 -35t-32.5 -51.5t-11.5 -63.5q0 -33 11.5 -63t32.5 -52t49 -35t61 -13z" />
    <glyph glyph-name="Obreve" unicode="&#x14e;" horiz-adv-x="802" 
d="M401 -10q-75 0 -140.5 28t-113.5 76.5t-76 114.5t-28 141t28 141t76 114.5t113.5 76.5t140.5 28t140.5 -28t114 -76.5t76.5 -114.5t28 -141t-28 -141t-76.5 -114.5t-114 -76.5t-140.5 -28zM401 104q50 0 93.5 19t75.5 52.5t50.5 78.5t18.5 96q0 52 -18.5 97t-50.5 78.5
t-75.5 52.5t-93.5 19t-93 -19t-75 -52.5t-50.5 -78.5t-18.5 -97q0 -51 18.5 -96t50.5 -78.5t75 -52.5t93 -19zM401 735q-33 0 -63.5 11t-54 30.5t-38 44.5t-14.5 54q-1 21 14 36t36 15q20 0 32 -12t15 -23q5 -21 24 -39t49 -18q29 0 48 18t23 39q3 11 15.5 23t32.5 12
q21 0 36 -15t15 -36q-1 -29 -15.5 -54t-38.5 -44.5t-54 -30.5t-62 -11z" />
    <glyph glyph-name="obreve" unicode="&#x14f;" horiz-adv-x="616" 
d="M308 -10q-57 0 -105.5 20.5t-84 56.5t-55.5 84t-20 104q0 55 20 103.5t55.5 84.5t84 56.5t105.5 20.5t106 -20.5t84 -56.5t55 -84.5t20 -103.5q0 -56 -20 -104t-55 -84t-84 -56.5t-106 -20.5zM308 92q33 0 61 13t49 35t32.5 52t11.5 63q0 34 -11.5 63.5t-32.5 51.5
t-49 35t-61 13t-61 -13t-49 -35t-32.5 -51.5t-11.5 -63.5q0 -33 11.5 -63t32.5 -52t49 -35t61 -13zM307 554q-32 0 -61 11t-52 30t-37 44t-14 52q-1 20 13.5 34.5t34.5 14.5t31.5 -11.5t14.5 -22.5q4 -20 22.5 -38t47.5 -18t47 18t23 38q3 11 14 22.5t32 11.5q20 0 34 -14.5
t14 -34.5q-1 -27 -15 -52t-36.5 -44t-52 -30t-60.5 -11z" />
    <glyph glyph-name="Ohungarumlaut" unicode="&#x150;" horiz-adv-x="802" 
d="M334 921q17 20 43 20q23 0 39 -15.5t16 -38.5q0 -9 -3 -18.5t-10 -17.5l-82 -98q-17 -20 -43 -20q-23 0 -39 16t-16 39q0 9 3 18t10 17zM529 921q17 20 43 20q23 0 39 -15.5t16 -38.5q0 -9 -3 -18.5t-10 -17.5l-82 -98q-17 -20 -43 -20q-23 0 -39 16t-16 39q0 9 3 18
t10 17zM401 -10q-75 0 -140.5 28t-113.5 76.5t-76 114.5t-28 141t28 141t76 114.5t113.5 76.5t140.5 28t140.5 -28t114 -76.5t76.5 -114.5t28 -141t-28 -141t-76.5 -114.5t-114 -76.5t-140.5 -28zM401 104q50 0 93.5 19t75.5 52.5t50.5 78.5t18.5 96q0 52 -18.5 97
t-50.5 78.5t-75.5 52.5t-93.5 19t-93 -19t-75 -52.5t-50.5 -78.5t-18.5 -97q0 -51 18.5 -96t50.5 -78.5t75 -52.5t93 -19z" />
    <glyph glyph-name="ohungarumlaut" unicode="&#x151;" horiz-adv-x="616" 
d="M245 738q16 19 41 19q22 0 38 -15.5t16 -37.5q0 -18 -12 -33l-85 -102q-8 -8 -18.5 -13.5t-21.5 -5.5q-21 0 -38 15.5t-17 37.5q0 17 13 33zM436 738q16 19 41 19q21 0 37.5 -15.5t16.5 -37.5q0 -18 -13 -33l-84 -102q-8 -8 -18.5 -13.5t-21.5 -5.5q-21 0 -38 15.5
t-17 37.5q0 16 12 33zM308 -10q-57 0 -105.5 20.5t-84 56.5t-55.5 84t-20 104q0 55 20 103.5t55.5 84.5t84 56.5t105.5 20.5t106 -20.5t84 -56.5t55 -84.5t20 -103.5q0 -56 -20 -104t-55 -84t-84 -56.5t-106 -20.5zM308 92q33 0 61 13t49 35t32.5 52t11.5 63
q0 34 -11.5 63.5t-32.5 51.5t-49 35t-61 13t-61 -13t-49 -35t-32.5 -51.5t-11.5 -63.5q0 -33 11.5 -63t32.5 -52t49 -35t61 -13z" />
    <glyph glyph-name="OE" unicode="&#x152;" horiz-adv-x="1065" 
d="M401 -10q-75 0 -140.5 28t-113.5 76.5t-76 114.5t-28 141t28 141t76 114.5t113.5 76.5t140.5 28q69 0 129.5 -23.5t108.5 -65.5v21q0 24 17.5 41t41.5 17h270q23 0 38.5 -15.5t15.5 -38.5t-15.5 -39t-38.5 -16h-211v-186h211q23 0 38.5 -16t15.5 -39t-15.5 -38.5
t-38.5 -15.5h-211v-186h211q23 0 38.5 -16t15.5 -39t-15.5 -39t-38.5 -16h-270q-24 0 -41.5 17.5t-17.5 41.5v20q-48 -42 -108.5 -65.5t-129.5 -23.5zM401 104q50 0 93.5 19t75.5 52.5t50.5 78.5t18.5 96q0 54 -19 99t-51.5 78t-76 51.5t-91.5 18.5q-50 0 -93 -19t-75 -52.5
t-50.5 -78.5t-18.5 -97q0 -51 18.5 -96t50.5 -78.5t75 -52.5t93 -19z" />
    <glyph glyph-name="oe" unicode="&#x153;" horiz-adv-x="974" 
d="M308 -10q-57 0 -105.5 20.5t-84 56.5t-55.5 84t-20 104q0 55 20 103.5t55.5 84.5t84 56.5t105.5 20.5q66 0 120 -27t89 -72q36 46 90 72.5t120 26.5q59 0 103 -19.5t70 -42.5q20 -18 20 -42q0 -11 -3.5 -20t-12.5 -20l-154 -183q-15 -18 -38 -18t-37.5 14t-14.5 36
q0 9 2.5 17.5t9.5 15.5l121 142q-13 9 -31 13.5t-35 4.5q-32 0 -60 -12.5t-49 -34.5t-33 -52t-12 -64t12 -63.5t32.5 -51.5t48.5 -35t61 -13q35 0 61.5 13t44.5 32q12 10 22 17.5t26 7.5q23 0 38.5 -15t15.5 -38q0 -18 -16 -36q-29 -35 -78.5 -59t-113.5 -24
q-66 0 -120 26.5t-89 72.5q-36 -46 -90 -72.5t-120 -26.5zM308 92q33 0 61 13t49 35t32.5 52t11.5 63q0 35 -12 65t-33 51.5t-49 34t-60 12.5q-33 0 -61 -13t-49 -35t-32.5 -51.5t-11.5 -63.5q0 -33 11.5 -63t32.5 -52t49 -35t61 -13z" />
    <glyph glyph-name="Racute" unicode="&#x154;" horiz-adv-x="585" 
d="M64 642q0 24 17.5 41t41.5 17h170q49 0 89.5 -16.5t69.5 -45t45 -67t16 -81.5q0 -36 -10.5 -66t-28.5 -53t-41.5 -38.5t-49.5 -21.5l-13 -1l186 -222q8 -10 11 -19t3 -20q0 -24 -17 -41t-41 -17q-28 0 -46 22l-234 278q-6 8 -12 19.5t-6 26.5q0 23 15.5 38t37.5 15h22
q22 0 41 8t32.5 21.5t21 31.5t7.5 39q0 42 -28.5 71.5t-73.5 29.5h-107v-541q0 -24 -17.5 -41.5t-41.5 -17.5t-41.5 17.5t-17.5 41.5v592zM280 921q17 20 43 20q23 0 39 -15.5t16 -38.5q0 -9 -3 -18.5t-10 -17.5l-82 -98q-17 -20 -43 -20q-23 0 -39 16t-16 39q0 9 3 18
t10 17z" />
    <glyph glyph-name="racute" unicode="&#x155;" horiz-adv-x="355" 
d="M223 738q16 19 41 19q22 0 38 -15.5t16 -37.5q0 -18 -12 -33l-85 -102q-8 -8 -18.5 -13.5t-21.5 -5.5q-21 0 -38 15.5t-17 37.5q0 17 13 33zM64 286q0 53 17 96.5t47 74t71 47t90 16.5q21 0 36 -14.5t15 -36.5q0 -21 -15 -36t-36 -15q-50 0 -82.5 -33t-32.5 -99v-239
q0 -23 -16 -39.5t-39 -16.5t-39 16.5t-16 39.5v239z" />
    <glyph glyph-name="Rcommaaccent" unicode="&#x156;" horiz-adv-x="585" 
d="M247 -66q5 13 17.5 22.5t28.5 9.5q20 0 37 -13.5t17 -36.5q0 -10 -5 -22l-40 -102q-5 -13 -18 -22t-29 -9q-20 0 -37 13.5t-17 35.5q0 8 5 23zM64 642q0 24 17.5 41t41.5 17h170q49 0 89.5 -16.5t69.5 -45t45 -67t16 -81.5q0 -36 -10.5 -66t-28.5 -53t-41.5 -38.5
t-49.5 -21.5l-13 -1l186 -222q8 -10 11 -19t3 -20q0 -24 -17 -41t-41 -17q-28 0 -46 22l-234 278q-6 8 -12 19.5t-6 26.5q0 23 15.5 38t37.5 15h22q22 0 41 8t32.5 21.5t21 31.5t7.5 39q0 42 -28.5 71.5t-73.5 29.5h-107v-541q0 -24 -17.5 -41.5t-41.5 -17.5t-41.5 17.5
t-17.5 41.5v592z" />
    <glyph glyph-name="rcommaaccent" unicode="&#x157;" horiz-adv-x="355" 
d="M74 -66q5 13 17.5 22.5t28.5 9.5q20 0 37 -13.5t17 -36.5q0 -10 -5 -22l-40 -102q-5 -13 -18 -22t-29 -9q-20 0 -37 13.5t-17 35.5q0 8 5 23zM64 286q0 53 17 96.5t47 74t71 47t90 16.5q21 0 36 -14.5t15 -36.5q0 -21 -15 -36t-36 -15q-50 0 -82.5 -33t-32.5 -99v-239
q0 -23 -16 -39.5t-39 -16.5t-39 16.5t-16 39.5v239z" />
    <glyph glyph-name="Rcaron" unicode="&#x158;" horiz-adv-x="585" 
d="M64 642q0 24 17.5 41t41.5 17h170q49 0 89.5 -16.5t69.5 -45t45 -67t16 -81.5q0 -36 -10.5 -66t-28.5 -53t-41.5 -38.5t-49.5 -21.5l-13 -1l186 -222q8 -10 11 -19t3 -20q0 -24 -17 -41t-41 -17q-28 0 -46 22l-234 278q-6 8 -12 19.5t-6 26.5q0 23 15.5 38t37.5 15h22
q22 0 41 8t32.5 21.5t21 31.5t7.5 39q0 42 -28.5 71.5t-73.5 29.5h-107v-541q0 -24 -17.5 -41.5t-41.5 -17.5t-41.5 17.5t-17.5 41.5v592zM118 837q-21 15 -21 39q0 20 14.5 37t37.5 17q21 0 39 -15l75 -62l76 62q18 15 38 15q22 0 37 -16t15 -38q0 -11 -5 -21.5t-16 -17.5
l-115 -88q-5 -5 -12 -8t-18 -3q-8 0 -15.5 3t-14.5 8z" />
    <glyph glyph-name="rcaron" unicode="&#x159;" horiz-adv-x="355" 
d="M70 668q-14 13 -14 33t15.5 34.5t35.5 14.5q19 0 33 -15l64 -73l65 73q14 15 32 15q20 0 35.5 -14.5t15.5 -34.5t-13 -33l-96 -99q-15 -17 -39 -17q-22 0 -39 17zM64 286q0 53 17 96.5t47 74t71 47t90 16.5q21 0 36 -14.5t15 -36.5q0 -21 -15 -36t-36 -15
q-50 0 -82.5 -33t-32.5 -99v-239q0 -23 -16 -39.5t-39 -16.5t-39 16.5t-16 39.5v239z" />
    <glyph glyph-name="Sacute" unicode="&#x15a;" horiz-adv-x="526" 
d="M259 -10q-47 0 -87.5 16t-69.5 40t-45.5 52.5t-16.5 54.5q0 24 17 41t41 17q20 0 32 -9.5t19 -23.5q5 -12 13.5 -26t21.5 -25.5t31.5 -19t43.5 -7.5q23 0 42 8t33 22t21.5 32t7.5 38q0 24 -9.5 41t-24.5 28.5t-34.5 19.5t-38.5 14l-51 15q-26 8 -54 21.5t-51.5 36.5
t-38.5 57t-15 83q0 42 16.5 77.5t45 61.5t67.5 40.5t84 14.5q48 0 86.5 -15t65.5 -38t42 -50t15 -52q0 -24 -17 -41t-41 -17q-20 0 -31.5 9.5t-17.5 23.5q-5 12 -13 24.5t-20 23t-29 17t-40 6.5q-42 0 -68.5 -27.5t-26.5 -64.5q0 -23 9.5 -39t24 -27.5t32 -18.5t33.5 -11
l44 -14q28 -9 58.5 -22t56 -36t42.5 -59t17 -90q0 -42 -17 -79t-47 -64.5t-70.5 -43t-87.5 -15.5zM281 921q17 20 43 20q23 0 39 -15.5t16 -38.5q0 -9 -3 -18.5t-10 -17.5l-82 -98q-17 -20 -43 -20q-23 0 -39 16t-16 39q0 9 3 18t10 17z" />
    <glyph glyph-name="sacute" unicode="&#x15b;" horiz-adv-x="419" 
d="M228 738q16 19 41 19q22 0 38 -15.5t16 -37.5q0 -18 -12 -33l-85 -102q-8 -8 -18.5 -13.5t-21.5 -5.5q-21 0 -38 15.5t-17 37.5q0 17 13 33zM43 110q0 21 14.5 36t35.5 15q26 0 38 -20q11 -17 29 -34.5t50 -17.5q25 0 41 16t16 38q0 31 -25 46t-60 27q-24 8 -47.5 18.5
t-43 27t-31.5 42t-12 64.5q0 32 12.5 59.5t34 48t51 32.5t64.5 12q32 0 61.5 -9t52 -25t36 -36.5t13.5 -44.5q0 -21 -15 -35t-36 -14q-8 0 -17.5 3.5t-14.5 14.5q-6 7 -14 15.5t-18 15.5t-21.5 12t-26.5 5q-26 0 -41 -16t-15 -38q0 -15 7.5 -26t20 -18.5t29.5 -14t36 -12.5
q23 -7 46 -17.5t42 -27.5t30.5 -43t11.5 -63q0 -32 -13 -60t-35.5 -49.5t-53 -34t-65.5 -12.5q-33 0 -63.5 10t-53.5 26.5t-36.5 38.5t-13.5 45z" />
    <glyph glyph-name="Scircumflex" unicode="&#x15c;" horiz-adv-x="526" 
d="M259 -10q-47 0 -87.5 16t-69.5 40t-45.5 52.5t-16.5 54.5q0 24 17 41t41 17q20 0 32 -9.5t19 -23.5q5 -12 13.5 -26t21.5 -25.5t31.5 -19t43.5 -7.5q23 0 42 8t33 22t21.5 32t7.5 38q0 24 -9.5 41t-24.5 28.5t-34.5 19.5t-38.5 14l-51 15q-26 8 -54 21.5t-51.5 36.5
t-38.5 57t-15 83q0 42 16.5 77.5t45 61.5t67.5 40.5t84 14.5q48 0 86.5 -15t65.5 -38t42 -50t15 -52q0 -24 -17 -41t-41 -17q-20 0 -31.5 9.5t-17.5 23.5q-5 12 -13 24.5t-20 23t-29 17t-40 6.5q-42 0 -68.5 -27.5t-26.5 -64.5q0 -23 9.5 -39t24 -27.5t32 -18.5t33.5 -11
l44 -14q28 -9 58.5 -22t56 -36t42.5 -59t17 -90q0 -42 -17 -79t-47 -64.5t-70.5 -43t-87.5 -15.5zM231 927q15 10 30 10q11 0 18 -3t12 -7l115 -88q21 -15 21 -39q0 -23 -15 -38.5t-37 -15.5q-19 0 -38 14l-76 63l-75 -63q-19 -14 -39 -14q-23 0 -37.5 17t-14.5 37
q0 23 21 39z" />
    <glyph glyph-name="scircumflex" unicode="&#x15d;" horiz-adv-x="419" 
d="M170 733q17 17 39 17q24 0 39 -17l96 -99q13 -13 13 -33t-15.5 -34.5t-35.5 -14.5q-18 0 -32 15l-65 73l-64 -73q-14 -15 -33 -15q-20 0 -35.5 14.5t-15.5 34.5t14 33zM43 110q0 21 14.5 36t35.5 15q26 0 38 -20q11 -17 29 -34.5t50 -17.5q25 0 41 16t16 38q0 31 -25 46
t-60 27q-24 8 -47.5 18.5t-43 27t-31.5 42t-12 64.5q0 32 12.5 59.5t34 48t51 32.5t64.5 12q32 0 61.5 -9t52 -25t36 -36.5t13.5 -44.5q0 -21 -15 -35t-36 -14q-8 0 -17.5 3.5t-14.5 14.5q-6 7 -14 15.5t-18 15.5t-21.5 12t-26.5 5q-26 0 -41 -16t-15 -38q0 -15 7.5 -26
t20 -18.5t29.5 -14t36 -12.5q23 -7 46 -17.5t42 -27.5t30.5 -43t11.5 -63q0 -32 -13 -60t-35.5 -49.5t-53 -34t-65.5 -12.5q-33 0 -63.5 10t-53.5 26.5t-36.5 38.5t-13.5 45z" />
    <glyph glyph-name="Scedilla" unicode="&#x15e;" horiz-adv-x="526" 
d="M167 -190q-21 0 -36 14.5t-15 36.5q0 20 14 35t37 15h17q22 0 36.5 13t14.5 39v28q-43 4 -78.5 20.5t-61.5 40t-40.5 50.5t-14.5 51t17 41t41 17q20 0 32 -9.5t19 -23.5q5 -12 13.5 -26t21.5 -25.5t31.5 -19t43.5 -7.5q23 0 42 8t33 22t21.5 32t7.5 38q0 24 -9.5 41
t-24.5 28.5t-34.5 19.5t-38.5 14l-51 15q-26 8 -54 21.5t-51.5 36.5t-38.5 57t-15 83q0 42 16.5 77.5t45 61.5t67.5 40.5t84 14.5q48 0 86.5 -15t65.5 -38t42 -50t15 -52q0 -24 -17 -41t-41 -17q-20 0 -31.5 9.5t-17.5 23.5q-5 12 -13 24.5t-20 23t-29 17t-40 6.5
q-42 0 -68.5 -27.5t-26.5 -64.5q0 -23 9.5 -39t24 -27.5t32 -18.5t33.5 -11l44 -14q28 -9 58.5 -22t56 -36t42.5 -59t17 -90q0 -67 -40.5 -118t-104.5 -72v-52q0 -63 -37 -101.5t-99 -38.5h-33v0z" />
    <glyph glyph-name="scedilla" unicode="&#x15f;" horiz-adv-x="419" 
d="M110 -190q-21 0 -36 14.5t-15 36.5q0 20 14 35t37 15h17q22 0 36.5 13t14.5 39v30q-28 4 -52.5 15t-43 27t-29 35t-10.5 40t14.5 36t35.5 15q26 0 38 -20q11 -17 29 -34.5t50 -17.5q25 0 41 16t16 38q0 31 -25 46t-60 27q-24 8 -47.5 18.5t-43 27t-31.5 42t-12 64.5
q0 32 12.5 59.5t34 48t51 32.5t64.5 12q32 0 61.5 -9t52 -25t36 -36.5t13.5 -44.5q0 -21 -15 -35t-36 -14q-8 0 -17.5 3.5t-14.5 14.5q-6 7 -14 15.5t-18 15.5t-21.5 12t-26.5 5q-26 0 -41 -16t-15 -38q0 -15 7.5 -26t20 -18.5t29.5 -14t36 -12.5q23 -7 46 -17.5t42 -27.5
t30.5 -43t11.5 -63q0 -47 -27 -85t-71 -57v-54q0 -63 -37 -101.5t-99 -38.5h-33v0z" />
    <glyph glyph-name="Scaron" unicode="&#x160;" horiz-adv-x="526" 
d="M259 -10q-47 0 -87.5 16t-69.5 40t-45.5 52.5t-16.5 54.5q0 24 17 41t41 17q20 0 32 -9.5t19 -23.5q5 -12 13.5 -26t21.5 -25.5t31.5 -19t43.5 -7.5q23 0 42 8t33 22t21.5 32t7.5 38q0 24 -9.5 41t-24.5 28.5t-34.5 19.5t-38.5 14l-51 15q-26 8 -54 21.5t-51.5 36.5
t-38.5 57t-15 83q0 42 16.5 77.5t45 61.5t67.5 40.5t84 14.5q48 0 86.5 -15t65.5 -38t42 -50t15 -52q0 -24 -17 -41t-41 -17q-20 0 -31.5 9.5t-17.5 23.5q-5 12 -13 24.5t-20 23t-29 17t-40 6.5q-42 0 -68.5 -27.5t-26.5 -64.5q0 -23 9.5 -39t24 -27.5t32 -18.5t33.5 -11
l44 -14q28 -9 58.5 -22t56 -36t42.5 -59t17 -90q0 -42 -17 -79t-47 -64.5t-70.5 -43t-87.5 -15.5zM116 837q-21 15 -21 39q0 20 14.5 37t37.5 17q21 0 39 -15l75 -62l76 62q18 15 38 15q22 0 37 -16t15 -38q0 -11 -5 -21.5t-16 -17.5l-115 -88q-5 -5 -12 -8t-18 -3
q-8 0 -15.5 3t-14.5 8z" />
    <glyph glyph-name="scaron" unicode="&#x161;" horiz-adv-x="419" 
d="M79 668q-14 13 -14 33t15.5 34.5t35.5 14.5q19 0 33 -15l64 -73l65 73q14 15 32 15q20 0 35.5 -14.5t15.5 -34.5t-13 -33l-96 -99q-15 -17 -39 -17q-22 0 -39 17zM43 110q0 21 14.5 36t35.5 15q26 0 38 -20q11 -17 29 -34.5t50 -17.5q25 0 41 16t16 38q0 31 -25 46
t-60 27q-24 8 -47.5 18.5t-43 27t-31.5 42t-12 64.5q0 32 12.5 59.5t34 48t51 32.5t64.5 12q32 0 61.5 -9t52 -25t36 -36.5t13.5 -44.5q0 -21 -15 -35t-36 -14q-8 0 -17.5 3.5t-14.5 14.5q-6 7 -14 15.5t-18 15.5t-21.5 12t-26.5 5q-26 0 -41 -16t-15 -38q0 -15 7.5 -26
t20 -18.5t29.5 -14t36 -12.5q23 -7 46 -17.5t42 -27.5t30.5 -43t11.5 -63q0 -32 -13 -60t-35.5 -49.5t-53 -34t-65.5 -12.5q-33 0 -63.5 10t-53.5 26.5t-36.5 38.5t-13.5 45z" />
    <glyph glyph-name="uni0162" unicode="&#x162;" horiz-adv-x="519" 
d="M201 591h-133q-23 0 -39 16t-16 39t16 38.5t39 15.5h384q23 0 39 -15.5t16 -38.5t-16 -39t-39 -16h-133v-541q0 -16 -8 -30v-70q0 -63 -37 -101.5t-99 -38.5h-33q-21 0 -36 14.5t-15 36.5q0 20 14 35t37 15h17q22 0 36 13t14 39v57q-8 14 -8 30v541z" />
    <glyph glyph-name="uni0163" unicode="&#x163;" horiz-adv-x="409" 
d="M64 408q-21 0 -36 15t-15 36q0 22 15 36.5t36 14.5h36v75q0 23 16 39t39 16t39 -16t16 -39v-75h117q21 0 36 -14.5t15 -36.5q0 -21 -15 -36t-36 -15h-117v-181q0 -66 33 -99.5t84 -33.5q21 0 36 -15t15 -36q0 -22 -15 -37t-36 -15q-8 0 -15.5 0.5t-15.5 1.5v-40
q0 -32 -10 -58t-28.5 -45t-44 -29.5t-55.5 -10.5h-31q-21 0 -36 14.5t-15 36.5q0 20 14 35t37 15h14q23 0 38 14t15 41v64q-44 30 -69 80t-25 117v181h-36v0z" />
    <glyph glyph-name="Tcaron" unicode="&#x164;" horiz-adv-x="519" 
d="M201 591h-133q-23 0 -39 16t-16 39t16 38.5t39 15.5h384q23 0 39 -15.5t16 -38.5t-16 -39t-39 -16h-133v-541q0 -24 -17.5 -41.5t-41.5 -17.5t-41.5 17.5t-17.5 41.5v541zM114 837q-21 15 -21 39q0 20 14.5 37t37.5 17q21 0 39 -15l75 -62l76 62q18 15 38 15q22 0 37 -16
t15 -38q0 -11 -5 -21.5t-16 -17.5l-115 -88q-5 -5 -12 -8t-18 -3q-8 0 -15.5 3t-14.5 8z" />
    <glyph glyph-name="tcaron" unicode="&#x165;" horiz-adv-x="409" 
d="M64 408q-21 0 -36 15t-15 36q0 22 15 36.5t36 14.5h36v75q0 23 16 39t39 16t39 -16t16 -39v-75h117q21 0 36 -14.5t15 -36.5q0 -21 -15 -36t-36 -15h-117v-181q0 -66 33 -99.5t84 -33.5q21 0 36 -15t15 -36q0 -22 -15 -37t-36 -15q-48 0 -89.5 16.5t-72 47t-48 74.5
t-17.5 98v181h-36zM280 775q5 18 18 28.5t30 10.5q27 0 42 -20t9 -44l-40 -162q-5 -17 -18 -27.5t-30 -10.5q-13 0 -23.5 5t-17.5 14t-9.5 20.5t0.5 24.5z" />
    <glyph glyph-name="Tbar" unicode="&#x166;" horiz-adv-x="519" 
d="M156 299q-21 0 -36 15t-15 36q0 22 15 36.5t36 14.5h45v190h-133q-23 0 -39 16t-16 39t16 38.5t39 15.5h384q23 0 39 -15.5t16 -38.5t-16 -39t-39 -16h-133v-190h70q21 0 36 -14.5t15 -36.5q0 -21 -15 -36t-36 -15h-70v-249q0 -24 -17.5 -41.5t-41.5 -17.5t-41.5 17.5
t-17.5 41.5v249h-45v0z" />
    <glyph glyph-name="tbar" unicode="&#x167;" horiz-adv-x="409" 
d="M64 408q-21 0 -36 15t-15 36q0 22 15 36.5t36 14.5h36v75q0 23 16 39t39 16t39 -16t16 -39v-75h117q21 0 36 -14.5t15 -36.5q0 -21 -15 -36t-36 -15h-117v-86h76q21 0 36 -14.5t15 -36.5q0 -21 -15 -36t-36 -15h-76q2 -63 34.5 -94.5t82.5 -31.5q21 0 36 -15t15 -36
q0 -22 -15 -37t-36 -15q-48 0 -89 16t-71 45.5t-48 72t-19 95.5h-33q-21 0 -36 15t-15 36q0 22 15 36.5t36 14.5h33v86h-36v0z" />
    <glyph glyph-name="Utilde" unicode="&#x168;" horiz-adv-x="655" 
d="M327 -10q-55 0 -103 19.5t-83.5 55.5t-56 87t-20.5 114v384q0 25 17.5 42t41.5 17t41.5 -17t17.5 -42v-391q0 -38 11.5 -68t31 -50t46 -30.5t56.5 -10.5q31 0 58 10.5t46.5 30.5t31 50t11.5 68v391q0 25 17.5 42t41.5 17t41.5 -17t17.5 -42v-384q0 -63 -20.5 -114
t-56.5 -87t-84.5 -55.5t-103.5 -19.5zM273 806q-12 0 -19 -5t-12 -12.5t-8.5 -15.5t-8.5 -14q-10 -12 -29 -12q-23 0 -39.5 12.5t-16.5 35.5q0 2 1.5 10t3.5 14q6 13 15.5 28.5t23.5 29.5t33 23.5t43 9.5q25 0 44 -9t35 -20.5t28.5 -20.5t23.5 -9q13 0 20.5 6t12.5 14.5
t9 17.5t12 15q4 2 9.5 4t12.5 2q23 0 39.5 -12.5t16.5 -35.5q0 -2 -1.5 -10t-3.5 -14q-6 -13 -15.5 -28.5t-23.5 -29.5t-33 -23.5t-43 -9.5t-43.5 9t-35 20.5t-28 20.5t-23.5 9z" />
    <glyph glyph-name="utilde" unicode="&#x169;" horiz-adv-x="577" 
d="M64 464q0 23 16 39t39 16t39 -16t16 -39v-244q0 -63 33.5 -95.5t81.5 -32.5t81.5 32.5t33.5 95.5v244q0 23 16 39t39 16t39 -16t16 -39v-240q0 -54 -17.5 -97t-48 -73.5t-71.5 -47t-88 -16.5t-88 16.5t-71.5 47t-48 73.5t-17.5 97v240zM238 619q-19 0 -27 -12.5
t-13 -23.5q-4 -8 -11 -14.5t-23 -6.5q-22 0 -38 11.5t-16 33.5q0 3 1.5 10.5t3.5 13.5q5 13 14.5 28t23 28.5t32 22.5t41.5 9q24 0 43 -9t34 -19.5t27 -19.5t23 -9q12 0 19 5.5t12 13.5t9.5 16t10.5 14q5 4 10 6t13 2q22 0 38 -11.5t16 -33.5q0 -3 -1.5 -10.5t-3.5 -13.5
q-5 -13 -14.5 -28t-23 -28.5t-32 -22.5t-41.5 -9q-24 0 -42.5 9t-33.5 19.5t-27.5 19.5t-23.5 9z" />
    <glyph glyph-name="Umacron" unicode="&#x16a;" horiz-adv-x="655" 
d="M327 -10q-55 0 -103 19.5t-83.5 55.5t-56 87t-20.5 114v384q0 25 17.5 42t41.5 17t41.5 -17t17.5 -42v-391q0 -38 11.5 -68t31 -50t46 -30.5t56.5 -10.5q31 0 58 10.5t46.5 30.5t31 50t11.5 68v391q0 25 17.5 42t41.5 17t41.5 -17t17.5 -42v-384q0 -63 -20.5 -114
t-56.5 -87t-84.5 -55.5t-103.5 -19.5zM215 763q-22 0 -36.5 15t-14.5 36t14.5 36t36.5 15h225q22 0 36.5 -15t14.5 -36t-14.5 -36t-36.5 -15h-225z" />
    <glyph glyph-name="umacron" unicode="&#x16b;" horiz-adv-x="577" 
d="M64 464q0 23 16 39t39 16t39 -16t16 -39v-244q0 -63 33.5 -95.5t81.5 -32.5t81.5 32.5t33.5 95.5v244q0 23 16 39t39 16t39 -16t16 -39v-240q0 -54 -17.5 -97t-48 -73.5t-71.5 -47t-88 -16.5t-88 16.5t-71.5 47t-48 73.5t-17.5 97v240zM179 577q-21 0 -36 15t-15 36
q0 22 15 36.5t36 14.5h219q21 0 36 -14.5t15 -36.5q0 -21 -15 -36t-36 -15h-219z" />
    <glyph glyph-name="Ubreve" unicode="&#x16c;" horiz-adv-x="655" 
d="M327 -10q-55 0 -103 19.5t-83.5 55.5t-56 87t-20.5 114v384q0 25 17.5 42t41.5 17t41.5 -17t17.5 -42v-391q0 -38 11.5 -68t31 -50t46 -30.5t56.5 -10.5q31 0 58 10.5t46.5 30.5t31 50t11.5 68v391q0 25 17.5 42t41.5 17t41.5 -17t17.5 -42v-384q0 -63 -20.5 -114
t-56.5 -87t-84.5 -55.5t-103.5 -19.5zM328 735q-33 0 -63.5 11t-54 30.5t-38 44.5t-14.5 54q-1 21 14 36t36 15q20 0 32 -12t15 -23q5 -21 24 -39t49 -18q29 0 48 18t23 39q3 11 15.5 23t32.5 12q21 0 36 -15t15 -36q-1 -29 -15.5 -54t-38.5 -44.5t-54 -30.5t-62 -11z" />
    <glyph glyph-name="ubreve" unicode="&#x16d;" horiz-adv-x="577" 
d="M64 464q0 23 16 39t39 16t39 -16t16 -39v-244q0 -63 33.5 -95.5t81.5 -32.5t81.5 32.5t33.5 95.5v244q0 23 16 39t39 16t39 -16t16 -39v-240q0 -54 -17.5 -97t-48 -73.5t-71.5 -47t-88 -16.5t-88 16.5t-71.5 47t-48 73.5t-17.5 97v240zM289 554q-32 0 -61 11t-52 30
t-37 44t-14 52q-1 20 13.5 34.5t34.5 14.5t31.5 -11.5t14.5 -22.5q4 -20 22.5 -38t47.5 -18t47 18t23 38q3 11 14 22.5t32 11.5q20 0 34 -14.5t14 -34.5q-1 -27 -15 -52t-36.5 -44t-52 -30t-60.5 -11z" />
    <glyph glyph-name="Uring" unicode="&#x16e;" horiz-adv-x="655" 
d="M327 713q-27 0 -50.5 9.5t-40.5 26.5t-27 39.5t-10 48.5t10 48.5t27 39.5t40.5 26.5t50.5 9.5t50.5 -9.5t40.5 -26.5t27 -39.5t10 -48.5t-10 -48.5t-27 -39.5t-40.5 -26.5t-50.5 -9.5zM327 790q20 0 33.5 13.5t13.5 33.5q0 19 -13.5 33t-33.5 14q-19 0 -32.5 -14
t-13.5 -33q0 -20 13.5 -33.5t32.5 -13.5zM327 -10q-55 0 -103 19.5t-83.5 55.5t-56 87t-20.5 114v384q0 25 17.5 42t41.5 17t41.5 -17t17.5 -42v-391q0 -38 11.5 -68t31 -50t46 -30.5t56.5 -10.5q31 0 58 10.5t46.5 30.5t31 50t11.5 68v391q0 25 17.5 42t41.5 17t41.5 -17
t17.5 -42v-384q0 -63 -20.5 -114t-56.5 -87t-84.5 -55.5t-103.5 -19.5z" />
    <glyph glyph-name="uring" unicode="&#x16f;" horiz-adv-x="577" 
d="M289 532q-27 0 -50 9.5t-40 26.5t-26.5 39t-9.5 48q0 25 9.5 47.5t26.5 39t40 26t50 9.5q26 0 49 -9.5t40 -26t27 -39t10 -47.5q0 -26 -10 -48t-27 -39t-40 -26.5t-49 -9.5zM289 609q18 0 31.5 13.5t13.5 32.5q0 18 -13.5 31.5t-31.5 13.5q-19 0 -32 -13.5t-13 -31.5
q0 -19 13 -32.5t32 -13.5zM64 464q0 23 16 39t39 16t39 -16t16 -39v-244q0 -63 33.5 -95.5t81.5 -32.5t81.5 32.5t33.5 95.5v244q0 23 16 39t39 16t39 -16t16 -39v-240q0 -54 -17.5 -97t-48 -73.5t-71.5 -47t-88 -16.5t-88 16.5t-71.5 47t-48 73.5t-17.5 97v240z" />
    <glyph glyph-name="Uhungarumlaut" unicode="&#x170;" horiz-adv-x="655" 
d="M250 921q17 20 43 20q23 0 39 -15.5t16 -38.5q0 -9 -3 -18.5t-10 -17.5l-82 -98q-17 -20 -43 -20q-23 0 -39 16t-16 39q0 9 3 18t10 17zM445 921q17 20 43 20q23 0 39 -15.5t16 -38.5q0 -9 -3 -18.5t-10 -17.5l-82 -98q-17 -20 -43 -20q-23 0 -39 16t-16 39q0 9 3 18
t10 17zM327 -10q-55 0 -103 19.5t-83.5 55.5t-56 87t-20.5 114v384q0 25 17.5 42t41.5 17t41.5 -17t17.5 -42v-391q0 -38 11.5 -68t31 -50t46 -30.5t56.5 -10.5q31 0 58 10.5t46.5 30.5t31 50t11.5 68v391q0 25 17.5 42t41.5 17t41.5 -17t17.5 -42v-384q0 -63 -20.5 -114
t-56.5 -87t-84.5 -55.5t-103.5 -19.5z" />
    <glyph glyph-name="uhungarumlaut" unicode="&#x171;" horiz-adv-x="577" 
d="M64 464q0 23 16 39t39 16t39 -16t16 -39v-244q0 -63 33.5 -95.5t81.5 -32.5t81.5 32.5t33.5 95.5v244q0 23 16 39t39 16t39 -16t16 -39v-240q0 -54 -17.5 -97t-48 -73.5t-71.5 -47t-88 -16.5t-88 16.5t-71.5 47t-48 73.5t-17.5 97v240zM224 738q16 19 41 19
q22 0 38 -15.5t16 -37.5q0 -18 -12 -33l-85 -102q-8 -8 -18.5 -13.5t-21.5 -5.5q-21 0 -38 15.5t-17 37.5q0 17 13 33zM415 738q16 19 41 19q21 0 37.5 -15.5t16.5 -37.5q0 -18 -13 -33l-84 -102q-8 -8 -18.5 -13.5t-21.5 -5.5q-21 0 -38 15.5t-17 37.5q0 16 12 33z" />
    <glyph glyph-name="Uogonek" unicode="&#x172;" horiz-adv-x="655" 
d="M327 -10q-55 0 -103 19.5t-83.5 55.5t-56 87t-20.5 114v384q0 25 17.5 42t41.5 17t41.5 -17t17.5 -42v-391q0 -38 11.5 -68t31 -50t46 -30.5t56.5 -10.5q31 0 58 10.5t46.5 30.5t31 50t11.5 68v391q0 25 17.5 42t41.5 17t41.5 -17t17.5 -42v-384q0 -63 -21 -114.5
t-57 -87.5q-17 -20 -33 -38.5t-29.5 -36t-21.5 -33.5t-8 -30t10 -23t23 -9h9q22 0 36 -12.5t14 -33.5q0 -22 -16 -35t-39 -13h-10q-64 0 -95 31t-31 74q0 30 12 51t27 36q-8 -1 -17.5 -1.5t-17.5 -0.5z" />
    <glyph glyph-name="uogonek" unicode="&#x173;" horiz-adv-x="577" 
d="M64 464q0 23 16 39t39 16t39 -16t16 -39v-244q0 -63 33.5 -95.5t81.5 -32.5t81.5 32.5t33.5 95.5v244q0 23 16 39t39 16t39 -16t16 -39v-240q0 -50 -15 -90.5t-41 -70.5q-16 -20 -32.5 -38.5t-29.5 -35.5t-21 -33t-8 -30t10.5 -23t23.5 -9h8q22 0 36.5 -12.5t14.5 -33.5
q0 -22 -16.5 -35t-39.5 -13h-10q-64 0 -94.5 31t-30.5 74q0 29 11 50t25 36q-4 -1 -8 -1h-8q-47 0 -88 16.5t-71.5 47t-48 73.5t-17.5 97v240z" />
    <glyph glyph-name="Wcircumflex" unicode="&#x174;" horiz-adv-x="1082" 
d="M494 927q15 10 30 10q11 0 18 -3t12 -7l115 -88q21 -15 21 -39q0 -23 -15 -38.5t-37 -15.5q-19 0 -38 14l-76 63l-75 -63q-19 -14 -39 -14q-23 0 -37.5 17t-14.5 37q0 23 21 39zM64 650q0 25 17.5 42t41.5 17t41.5 -17t17.5 -42v-450l265 316v134q0 25 17 42t41 17
q25 0 42 -17t17 -42v-450l410 489q8 10 20 15t23 5q23 0 39 -16t16 -39q0 -8 -2.5 -17t-10.5 -18l-506 -604q-11 -14 -23.5 -19t-24.5 -5q-24 0 -41 17.5t-17 41.5v295l-277 -330q-11 -14 -23 -19t-24 -5q-24 0 -41.5 17.5t-17.5 41.5v600z" />
    <glyph glyph-name="wcircumflex" unicode="&#x175;" horiz-adv-x="815" 
d="M356 733q17 17 39 17q24 0 39 -17l96 -99q13 -13 13 -33t-15.5 -34.5t-35.5 -14.5q-18 0 -32 15l-65 73l-64 -73q-14 -15 -33 -15q-20 0 -35.5 14.5t-15.5 34.5t14 33zM119 -9q-23 0 -39 16.5t-16 39.5v417q0 23 16 39t39 16t39 -16t16 -39v-279l166 199v80q0 23 16 39
t39 16t39 -16t16 -39v-279l265 316q16 18 38 18q23 0 37.5 -14t14.5 -36q0 -18 -12 -33l-357 -426q-15 -19 -41 -19q-23 0 -39 16.5t-16 39.5v178l-180 -215q-16 -19 -41 -19z" />
    <glyph glyph-name="Ycircumflex" unicode="&#x176;" horiz-adv-x="651" 
d="M267 329l-238 284q-14 17 -14 38q0 25 17 41.5t41 16.5q28 0 46 -21l209 -249l211 250q8 10 19.5 15t23.5 5q23 0 38.5 -16t15.5 -39q0 -20 -12 -35l-239 -285v-284q0 -24 -17.5 -41.5t-41.5 -17.5t-41.5 17.5t-17.5 41.5v279zM295 927q15 10 30 10q11 0 18 -3t12 -7
l115 -88q21 -15 21 -39q0 -23 -15 -38.5t-37 -15.5q-19 0 -38 14l-76 63l-75 -63q-19 -14 -39 -14q-23 0 -37.5 17t-14.5 37q0 23 21 39z" />
    <glyph glyph-name="ycircumflex" unicode="&#x177;" horiz-adv-x="554" 
d="M79 54v410q0 23 16 39t39 16t39 -16t16 -39v-279l265 316q16 18 38 18t37 -14t15 -36q0 -20 -12 -33l-517 -617q-17 -18 -38 -18q-23 0 -38 14t-15 36q0 18 12 33zM290 733q17 17 39 17q24 0 39 -17l96 -99q13 -13 13 -33t-15.5 -34.5t-35.5 -14.5q-18 0 -32 15l-65 73
l-64 -73q-14 -15 -33 -15q-20 0 -35.5 14.5t-15.5 34.5t14 33z" />
    <glyph glyph-name="Ydieresis" unicode="&#x178;" horiz-adv-x="651" 
d="M267 329l-238 284q-14 17 -14 38q0 25 17 41.5t41 16.5q28 0 46 -21l209 -249l211 250q8 10 19.5 15t23.5 5q23 0 38.5 -16t15.5 -39q0 -20 -12 -35l-239 -285v-284q0 -24 -17.5 -41.5t-41.5 -17.5t-41.5 17.5t-17.5 41.5v279zM217 759q-29 0 -49 20t-20 49t20 48.5
t49 19.5t49 -19.5t20 -48.5t-20 -49t-49 -20zM434 759q-29 0 -49 20t-20 49t20 48.5t49 19.5t49 -19.5t20 -48.5t-20 -49t-49 -20z" />
    <glyph glyph-name="Zacute" unicode="&#x179;" horiz-adv-x="657" 
d="M77 0q-23 0 -38.5 16t-15.5 39q0 12 4.5 21.5t10.5 17.5l417 497h-332q-22 0 -38 15.5t-16 39.5q0 23 16 38.5t38 15.5h451q20 0 37 -15t17 -40q0 -11 -4.5 -20.5t-11.5 -17.5l-417 -497h374q23 0 38.5 -16t15.5 -39t-15.5 -39t-38.5 -16h-492zM355 921q17 20 43 20
q23 0 39 -15.5t16 -38.5q0 -9 -3 -18.5t-10 -17.5l-82 -98q-17 -20 -43 -20q-23 0 -39 16t-16 39q0 9 3 18t10 17z" />
    <glyph glyph-name="zacute" unicode="&#x17a;" horiz-adv-x="504" 
d="M281 738q16 19 41 19q22 0 38 -15.5t16 -37.5q0 -18 -12 -33l-85 -102q-8 -8 -18.5 -13.5t-21.5 -5.5q-21 0 -38 15.5t-17 37.5q0 17 13 33zM312 408h-221q-21 0 -36 15t-15 36q0 22 15 36.5t36 14.5h331q21 0 36 -14.5t15 -36.5q0 -19 -16 -36l-269 -321h234
q21 0 36 -14.5t15 -36.5q0 -21 -15 -36t-36 -15h-343q-21 0 -36 15t-15 37q0 12 4.5 20t10.5 16z" />
    <glyph glyph-name="Zdotaccent" unicode="&#x17b;" horiz-adv-x="657" 
d="M336 759q-29 0 -49 20t-20 49t20 48.5t49 19.5t49 -19.5t20 -48.5t-20 -49t-49 -20zM77 0q-23 0 -38.5 16t-15.5 39q0 12 4.5 21.5t10.5 17.5l417 497h-332q-22 0 -38 15.5t-16 39.5q0 23 16 38.5t38 15.5h451q20 0 37 -15t17 -40q0 -11 -4.5 -20.5t-11.5 -17.5
l-417 -497h374q23 0 38.5 -16t15.5 -39t-15.5 -39t-38.5 -16h-492z" />
    <glyph glyph-name="zdotaccent" unicode="&#x17c;" horiz-adv-x="504" 
d="M312 408h-221q-21 0 -36 15t-15 36q0 22 15 36.5t36 14.5h331q21 0 36 -14.5t15 -36.5q0 -19 -16 -36l-269 -321h234q21 0 36 -14.5t15 -36.5q0 -21 -15 -36t-36 -15h-343q-21 0 -36 15t-15 37q0 12 4.5 20t10.5 16zM254 577q-26 0 -45.5 19.5t-19.5 45.5q0 27 19.5 46
t45.5 19q27 0 46 -19t19 -46q0 -26 -19 -45.5t-46 -19.5z" />
    <glyph glyph-name="Zcaron" unicode="&#x17d;" horiz-adv-x="657" 
d="M77 0q-23 0 -38.5 16t-15.5 39q0 12 4.5 21.5t10.5 17.5l417 497h-332q-22 0 -38 15.5t-16 39.5q0 23 16 38.5t38 15.5h451q20 0 37 -15t17 -40q0 -11 -4.5 -20.5t-11.5 -17.5l-417 -497h374q23 0 38.5 -16t15.5 -39t-15.5 -39t-38.5 -16h-492zM197 837q-21 15 -21 39
q0 20 14.5 37t37.5 17q21 0 39 -15l75 -62l76 62q18 15 38 15q22 0 37 -16t15 -38q0 -11 -5 -21.5t-16 -17.5l-115 -88q-5 -5 -12 -8t-18 -3q-8 0 -15.5 3t-14.5 8z" />
    <glyph glyph-name="zcaron" unicode="&#x17e;" horiz-adv-x="504" 
d="M120 668q-14 13 -14 33t15.5 34.5t35.5 14.5q19 0 33 -15l64 -73l65 73q14 15 32 15q20 0 35.5 -14.5t15.5 -34.5t-13 -33l-96 -99q-15 -17 -39 -17q-22 0 -39 17zM312 408h-221q-21 0 -36 15t-15 36q0 22 15 36.5t36 14.5h331q21 0 36 -14.5t15 -36.5q0 -19 -16 -36
l-269 -321h234q21 0 36 -14.5t15 -36.5q0 -21 -15 -36t-36 -15h-343q-21 0 -36 15t-15 37q0 12 4.5 20t10.5 16z" />
    <glyph glyph-name="longs" unicode="&#x17f;" horiz-adv-x="385" 
d="M77 474q0 54 17.5 97.5t48 74t72 47t89.5 16.5q21 0 36 -15t15 -36t-15 -36t-36 -15q-51 0 -84 -33.5t-33 -99.5v-427q0 -23 -16 -39.5t-39 -16.5t-39 16.5t-16 39.5v427z" />
    <glyph glyph-name="florin" unicode="&#x192;" horiz-adv-x="467" 
d="M180 510q3 41 17.5 77t39.5 62.5t60.5 42.5t80.5 16h9q21 0 36 -14.5t15 -36.5q0 -21 -15 -36t-36 -15q-42 0 -66.5 -28t-30.5 -68h97q21 0 36 -14.5t15 -36.5q0 -21 -15 -36t-36 -15h-98v-193q0 -45 -13 -85t-38.5 -70.5t-63 -49t-86.5 -18.5h-8q-21 0 -36 15.5
t-15 36.5t15 36t36 15q23 0 41.5 9.5t31 26t19.5 38t7 45.5v194h-99q-21 0 -36 15t-15 36q0 22 15 36.5t36 14.5h100z" />
    <glyph glyph-name="uni0218" unicode="&#x218;" horiz-adv-x="526" 
d="M218 -66q5 13 17.5 22.5t28.5 9.5q20 0 37 -13.5t17 -36.5q0 -10 -5 -22l-40 -102q-5 -13 -18 -22t-29 -9q-20 0 -37 13.5t-17 35.5q0 8 5 23zM259 -10q-47 0 -87.5 16t-69.5 40t-45.5 52.5t-16.5 54.5q0 24 17 41t41 17q20 0 32 -9.5t19 -23.5q5 -12 13.5 -26
t21.5 -25.5t31.5 -19t43.5 -7.5q23 0 42 8t33 22t21.5 32t7.5 38q0 24 -9.5 41t-24.5 28.5t-34.5 19.5t-38.5 14l-51 15q-26 8 -54 21.5t-51.5 36.5t-38.5 57t-15 83q0 42 16.5 77.5t45 61.5t67.5 40.5t84 14.5q48 0 86.5 -15t65.5 -38t42 -50t15 -52q0 -24 -17 -41t-41 -17
q-20 0 -31.5 9.5t-17.5 23.5q-5 12 -13 24.5t-20 23t-29 17t-40 6.5q-42 0 -68.5 -27.5t-26.5 -64.5q0 -23 9.5 -39t24 -27.5t32 -18.5t33.5 -11l44 -14q28 -9 58.5 -22t56 -36t42.5 -59t17 -90q0 -42 -17 -79t-47 -64.5t-70.5 -43t-87.5 -15.5z" />
    <glyph glyph-name="uni0219" unicode="&#x219;" horiz-adv-x="419" 
d="M165 -66q5 13 17.5 22.5t28.5 9.5q20 0 37 -13.5t17 -36.5q0 -10 -5 -22l-40 -102q-5 -13 -18 -22t-29 -9q-20 0 -37 13.5t-17 35.5q0 8 5 23zM43 110q0 21 14.5 36t35.5 15q26 0 38 -20q11 -17 29 -34.5t50 -17.5q25 0 41 16t16 38q0 31 -25 46t-60 27q-24 8 -47.5 18.5
t-43 27t-31.5 42t-12 64.5q0 32 12.5 59.5t34 48t51 32.5t64.5 12q32 0 61.5 -9t52 -25t36 -36.5t13.5 -44.5q0 -21 -15 -35t-36 -14q-8 0 -17.5 3.5t-14.5 14.5q-6 7 -14 15.5t-18 15.5t-21.5 12t-26.5 5q-26 0 -41 -16t-15 -38q0 -15 7.5 -26t20 -18.5t29.5 -14t36 -12.5
q23 -7 46 -17.5t42 -27.5t30.5 -43t11.5 -63q0 -32 -13 -60t-35.5 -49.5t-53 -34t-65.5 -12.5q-33 0 -63.5 10t-53.5 26.5t-36.5 38.5t-13.5 45z" />
    <glyph glyph-name="uni021A" unicode="&#x21a;" horiz-adv-x="519" 
d="M218 -66q5 13 17.5 22.5t28.5 9.5q20 0 37 -13.5t17 -36.5q0 -10 -5 -22l-40 -102q-5 -13 -18 -22t-29 -9q-20 0 -37 13.5t-17 35.5q0 8 5 23zM201 591h-133q-23 0 -39 16t-16 39t16 38.5t39 15.5h384q23 0 39 -15.5t16 -38.5t-16 -39t-39 -16h-133v-541
q0 -24 -17.5 -41.5t-41.5 -17.5t-41.5 17.5t-17.5 41.5v541z" />
    <glyph glyph-name="uni021B" unicode="&#x21b;" horiz-adv-x="409" 
d="M64 408q-21 0 -36 15t-15 36q0 22 15 36.5t36 14.5h36v75q0 23 16 39t39 16t39 -16t16 -39v-75h117q21 0 36 -14.5t15 -36.5q0 -21 -15 -36t-36 -15h-117v-181q0 -66 33 -99.5t84 -33.5q21 0 36 -15t15 -36q0 -22 -15 -37t-36 -15q-48 0 -89.5 16.5t-72 47t-48 74.5
t-17.5 98v181h-36zM174 -66q5 13 17.5 22.5t28.5 9.5q20 0 37 -13.5t17 -36.5q0 -10 -5 -22l-40 -102q-5 -13 -18 -22t-29 -9q-20 0 -37 13.5t-17 35.5q0 8 5 23z" />
    <glyph glyph-name="circumflex" unicode="&#x2c6;" horiz-adv-x="396" 
d="M159 733q17 17 39 17q24 0 39 -17l96 -99q13 -13 13 -33t-15.5 -34.5t-35.5 -14.5q-18 0 -32 15l-65 73l-64 -73q-14 -15 -33 -15q-20 0 -35.5 14.5t-15.5 34.5t14 33z" />
    <glyph glyph-name="caron" unicode="&#x2c7;" horiz-adv-x="396" 
d="M64 668q-14 13 -14 33t15.5 34.5t35.5 14.5q19 0 33 -15l64 -73l65 73q14 15 32 15q20 0 35.5 -14.5t15.5 -34.5t-13 -33l-96 -99q-15 -17 -39 -17q-22 0 -39 17z" />
    <glyph glyph-name="breve" unicode="&#x2d8;" horiz-adv-x="429" 
d="M215 554q-32 0 -61 11t-52 30t-37 44t-14 52q-1 20 13.5 34.5t34.5 14.5t31.5 -11.5t14.5 -22.5q4 -20 22.5 -38t47.5 -18t47 18t23 38q3 11 14 22.5t32 11.5q20 0 34 -14.5t14 -34.5q-1 -27 -15 -52t-36.5 -44t-52 -30t-60.5 -11z" />
    <glyph glyph-name="dotaccent" unicode="&#x2d9;" horiz-adv-x="230" 
d="M115 577q-26 0 -45.5 19.5t-19.5 45.5q0 27 19.5 46t45.5 19q27 0 46 -19t19 -46q0 -26 -19 -45.5t-46 -19.5z" />
    <glyph glyph-name="ring" unicode="&#x2da;" horiz-adv-x="346" 
d="M173 532q-27 0 -50 9.5t-40 26.5t-26.5 39t-9.5 48q0 25 9.5 47.5t26.5 39t40 26t50 9.5q26 0 49 -9.5t40 -26t27 -39t10 -47.5q0 -26 -10 -48t-27 -39t-40 -26.5t-49 -9.5zM173 609q18 0 31.5 13.5t13.5 32.5q0 18 -13.5 31.5t-31.5 13.5q-19 0 -32 -13.5t-13 -31.5
q0 -19 13 -32.5t32 -13.5z" />
    <glyph glyph-name="ogonek" unicode="&#x2db;" horiz-adv-x="285" 
d="M217 46q0 -20 -8 -37t-19 -27l-32 -33q-3 -3 -6 -9t-3 -14q0 -14 8.5 -23t21.5 -9h6q22 0 36 -12.5t14 -33.5q0 -22 -16 -35t-39 -13h-7q-60 1 -91.5 33.5t-31.5 77.5q0 26 10 48t25 36l39 41z" />
    <glyph glyph-name="tilde" unicode="&#x2dc;" horiz-adv-x="458" 
d="M173 619q-19 0 -27 -12.5t-13 -23.5q-4 -8 -11 -14.5t-23 -6.5q-22 0 -38 11.5t-16 33.5q0 3 1.5 10.5t3.5 13.5q5 13 14.5 28t23 28.5t32 22.5t41.5 9q24 0 43 -9t34 -19.5t27 -19.5t23 -9q12 0 19 5.5t12 13.5t9.5 16t10.5 14q5 4 10 6t13 2q22 0 38 -11.5t16 -33.5
q0 -3 -1.5 -10.5t-3.5 -13.5q-5 -13 -14.5 -28t-23 -28.5t-32 -22.5t-41.5 -9q-24 0 -42.5 9t-33.5 19.5t-27.5 19.5t-23.5 9z" />
    <glyph glyph-name="hungarumlaut" unicode="&#x2dd;" horiz-adv-x="483" 
d="M147 738q16 19 41 19q22 0 38 -15.5t16 -37.5q0 -18 -12 -33l-85 -102q-8 -8 -18.5 -13.5t-21.5 -5.5q-21 0 -38 15.5t-17 37.5q0 17 13 33zM338 738q16 19 41 19q21 0 37.5 -15.5t16.5 -37.5q0 -18 -13 -33l-84 -102q-8 -8 -18.5 -13.5t-21.5 -5.5q-21 0 -38 15.5
t-17 37.5q0 16 12 33z" />
    <glyph glyph-name="pi" unicode="&#x3c0;" horiz-adv-x="631" 
d="M177 -9q-23 0 -39 16.5t-16 39.5v361h-61q-21 0 -36 15t-15 36q0 22 15 36.5t36 14.5h509q21 0 36 -14.5t15 -36.5q0 -21 -15 -36t-36 -15h-61v-361q0 -23 -16 -39.5t-39 -16.5t-39 16.5t-16 39.5v361h-167v-361q0 -23 -16 -39.5t-39 -16.5z" />
    <glyph glyph-name="Wgrave" unicode="&#x1e80;" horiz-adv-x="1082" 
d="M383 851q-13 14 -13 34q0 23 17 39.5t40 16.5q25 0 43 -20l81 -98q13 -14 13 -34q0 -23 -17 -39t-40 -16q-26 0 -42 19zM64 650q0 25 17.5 42t41.5 17t41.5 -17t17.5 -42v-450l265 316v134q0 25 17 42t41 17q25 0 42 -17t17 -42v-450l410 489q8 10 20 15t23 5
q23 0 39 -16t16 -39q0 -8 -2.5 -17t-10.5 -18l-506 -604q-11 -14 -23.5 -19t-24.5 -5q-24 0 -41 17.5t-17 41.5v295l-277 -330q-11 -14 -23 -19t-24 -5q-24 0 -41.5 17.5t-17.5 41.5v600z" />
    <glyph glyph-name="wgrave" unicode="&#x1e81;" horiz-adv-x="815" 
d="M119 -9q-23 0 -39 16.5t-16 39.5v417q0 23 16 39t39 16t39 -16t16 -39v-279l166 199v80q0 23 16 39t39 16t39 -16t16 -39v-279l265 316q16 18 38 18q23 0 37.5 -14t14.5 -36q0 -18 -12 -33l-357 -426q-15 -19 -41 -19q-23 0 -39 16.5t-16 39.5v178l-180 -215
q-16 -19 -41 -19zM271 671q-13 15 -13 33q0 22 16.5 38t37.5 16q24 0 42 -20l84 -102q12 -15 12 -33q0 -22 -17 -37.5t-37 -15.5q-12 0 -22.5 5.5t-18.5 13.5z" />
    <glyph glyph-name="Wacute" unicode="&#x1e82;" horiz-adv-x="1082" 
d="M541 921q17 20 43 20q23 0 39 -15.5t16 -38.5q0 -9 -3 -18.5t-10 -17.5l-82 -98q-17 -20 -43 -20q-23 0 -39 16t-16 39q0 9 3 18t10 17zM64 650q0 25 17.5 42t41.5 17t41.5 -17t17.5 -42v-450l265 316v134q0 25 17 42t41 17q25 0 42 -17t17 -42v-450l410 489q8 10 20 15
t23 5q23 0 39 -16t16 -39q0 -8 -2.5 -17t-10.5 -18l-506 -604q-11 -14 -23.5 -19t-24.5 -5q-24 0 -41 17.5t-17 41.5v295l-277 -330q-11 -14 -23 -19t-24 -5q-24 0 -41.5 17.5t-17.5 41.5v600z" />
    <glyph glyph-name="wacute" unicode="&#x1e83;" horiz-adv-x="815" 
d="M437 738q16 19 41 19q22 0 38 -15.5t16 -37.5q0 -18 -12 -33l-85 -102q-8 -8 -18.5 -13.5t-21.5 -5.5q-21 0 -38 15.5t-17 37.5q0 17 13 33zM119 -9q-23 0 -39 16.5t-16 39.5v417q0 23 16 39t39 16t39 -16t16 -39v-279l166 199v80q0 23 16 39t39 16t39 -16t16 -39v-279
l265 316q16 18 38 18q23 0 37.5 -14t14.5 -36q0 -18 -12 -33l-357 -426q-15 -19 -41 -19q-23 0 -39 16.5t-16 39.5v178l-180 -215q-16 -19 -41 -19z" />
    <glyph glyph-name="Wdieresis" unicode="&#x1e84;" horiz-adv-x="1082" 
d="M64 650q0 25 17.5 42t41.5 17t41.5 -17t17.5 -42v-450l265 316v134q0 25 17 42t41 17q25 0 42 -17t17 -42v-450l410 489q8 10 20 15t23 5q23 0 39 -16t16 -39q0 -8 -2.5 -17t-10.5 -18l-506 -604q-11 -14 -23.5 -19t-24.5 -5q-24 0 -41 17.5t-17 41.5v295l-277 -330
q-11 -14 -23 -19t-24 -5q-24 0 -41.5 17.5t-17.5 41.5v600zM416 759q-29 0 -49 20t-20 49t20 48.5t49 19.5t49 -19.5t20 -48.5t-20 -49t-49 -20zM633 759q-29 0 -49 20t-20 49t20 48.5t49 19.5t49 -19.5t20 -48.5t-20 -49t-49 -20z" />
    <glyph glyph-name="wdieresis" unicode="&#x1e85;" horiz-adv-x="815" 
d="M292 577q-26 0 -45.5 19.5t-19.5 45.5q0 27 19.5 46t45.5 19q27 0 46 -19t19 -46q0 -26 -19 -45.5t-46 -19.5zM497 577q-26 0 -45.5 19.5t-19.5 45.5q0 27 19.5 46t45.5 19q27 0 46 -19t19 -46q0 -26 -19 -45.5t-46 -19.5zM119 -9q-23 0 -39 16.5t-16 39.5v417
q0 23 16 39t39 16t39 -16t16 -39v-279l166 199v80q0 23 16 39t39 16t39 -16t16 -39v-279l265 316q16 18 38 18q23 0 37.5 -14t14.5 -36q0 -18 -12 -33l-357 -426q-15 -19 -41 -19q-23 0 -39 16.5t-16 39.5v178l-180 -215q-16 -19 -41 -19z" />
    <glyph glyph-name="Ygrave" unicode="&#x1ef2;" horiz-adv-x="651" 
d="M267 329l-238 284q-14 17 -14 38q0 25 17 41.5t41 16.5q28 0 46 -21l209 -249l211 250q8 10 19.5 15t23.5 5q23 0 38.5 -16t15.5 -39q0 -20 -12 -35l-239 -285v-284q0 -24 -17.5 -41.5t-41.5 -17.5t-41.5 17.5t-17.5 41.5v279zM211 851q-13 14 -13 34q0 23 17 39.5
t40 16.5q25 0 43 -20l81 -98q13 -14 13 -34q0 -23 -17 -39t-40 -16q-26 0 -42 19z" />
    <glyph glyph-name="ygrave" unicode="&#x1ef3;" horiz-adv-x="554" 
d="M79 54v410q0 23 16 39t39 16t39 -16t16 -39v-279l265 316q16 18 38 18t37 -14t15 -36q0 -20 -12 -33l-517 -617q-17 -18 -38 -18q-23 0 -38 14t-15 36q0 18 12 33zM208 671q-13 15 -13 33q0 22 16.5 38t37.5 16q24 0 42 -20l84 -102q12 -15 12 -33q0 -22 -17 -37.5
t-37 -15.5q-12 0 -22.5 5.5t-18.5 13.5z" />
    <glyph glyph-name="endash" unicode="&#x2013;" horiz-adv-x="500" 
d="M398 308q22 0 37 -15.5t15 -37.5t-15 -37.5t-37 -15.5h-295q-22 0 -37.5 15.5t-15.5 37.5t15.5 37.5t37.5 15.5h295z" />
    <glyph glyph-name="emdash" unicode="&#x2014;" horiz-adv-x="1000" 
d="M898 308q22 0 37 -15.5t15 -37.5t-15 -37.5t-37 -15.5h-795q-22 0 -37.5 15.5t-15.5 37.5t15.5 37.5t37.5 15.5h795z" />
    <glyph glyph-name="quoteleft" unicode="&#x2018;" horiz-adv-x="259" 
d="M124 759q8 21 23.5 28.5t29.5 7.5t25.5 -6.5t19 -17t9 -23.5t-3.5 -27l-70 -191q-8 -21 -23 -28.5t-29 -7.5t-25.5 6.5t-19 17t-9.5 23.5t3 27z" />
    <glyph glyph-name="quoteright" unicode="&#x2019;" horiz-adv-x="259" 
d="M124 759q8 21 23.5 28.5t29.5 7.5t25.5 -6.5t19 -17t9 -23.5t-3.5 -27l-70 -191q-8 -21 -23 -28.5t-29 -7.5t-25.5 6.5t-19 17t-9.5 23.5t3 27z" />
    <glyph glyph-name="quotesinglbase" unicode="&#x201a;" horiz-adv-x="259" 
d="M102 114q8 21 23 28.5t29 7.5t25.5 -6.5t19 -17t9.5 -23.5t-3 -27l-70 -192q-8 -21 -23.5 -28.5t-29.5 -7.5t-25.5 6.5t-18.5 17t-9 23.5t3 27z" />
    <glyph glyph-name="quotedblleft" unicode="&#x201c;" horiz-adv-x="431" 
d="M124 759q8 21 23.5 28.5t29.5 7.5t25.5 -6.5t19 -17t9 -23.5t-3.5 -27l-70 -191q-8 -21 -23 -28.5t-29 -7.5t-25.5 6.5t-19 17t-9.5 23.5t3 27zM297 759q8 21 23 28.5t29 7.5t25.5 -6.5t19 -17t9.5 -23.5t-3 -27l-70 -191q-8 -21 -23.5 -28.5t-29.5 -7.5t-25.5 6.5
t-18.5 17t-9 23.5t3 27z" />
    <glyph glyph-name="quotedblright" unicode="&#x201d;" horiz-adv-x="431" 
d="M124 759q8 21 23.5 28.5t29.5 7.5t25.5 -6.5t19 -17t9 -23.5t-3.5 -27l-70 -191q-8 -21 -23 -28.5t-29 -7.5t-25.5 6.5t-19 17t-9.5 23.5t3 27zM297 759q8 21 23 28.5t29 7.5t25.5 -6.5t19 -17t9.5 -23.5t-3 -27l-70 -191q-8 -21 -23.5 -28.5t-29.5 -7.5t-25.5 6.5
t-18.5 17t-9 23.5t3 27z" />
    <glyph glyph-name="quotedblbase" unicode="&#x201e;" horiz-adv-x="431" 
d="M102 114q8 21 23 28.5t29 7.5t25.5 -6.5t19 -17t9.5 -23.5t-3 -27l-70 -192q-8 -21 -23.5 -28.5t-29.5 -7.5t-25.5 6.5t-18.5 17t-9 23.5t3 27zM274 114q8 21 23.5 28.5t29.5 7.5t25.5 -6.5t19 -17t9 -23.5t-3.5 -27l-70 -192q-8 -21 -23 -28.5t-29 -7.5t-25.5 6.5
t-19 17t-9.5 23.5t3 27z" />
    <glyph glyph-name="dagger" unicode="&#x2020;" horiz-adv-x="530" 
d="M208 419h-113q-22 0 -37 15t-15 37q0 23 15 38.5t37 15.5h113v127q0 23 17 40t40 17q24 0 40.5 -17t16.5 -40v-127h113q22 0 37 -15.5t15 -38.5q0 -22 -15 -37t-37 -15h-113v-370q0 -24 -16.5 -41t-40.5 -17q-23 0 -40 17t-17 41v370z" />
    <glyph glyph-name="daggerdbl" unicode="&#x2021;" horiz-adv-x="530" 
d="M208 176h-113q-22 0 -37 15.5t-15 37.5t15 37.5t37 15.5h113v137h-113q-22 0 -37 15t-15 37q0 23 15 38.5t37 15.5h113v127q0 23 17 40t40 17q24 0 40.5 -17t16.5 -40v-127h113q22 0 37 -15.5t15 -38.5q0 -22 -15 -37t-37 -15h-113v-137h113q22 0 37 -15.5t15 -37.5
t-15 -37.5t-37 -15.5h-113v-127q0 -24 -16.5 -41t-40.5 -17q-23 0 -40 17t-17 41v127z" />
    <glyph glyph-name="bullet" unicode="&#x2022;" horiz-adv-x="391" 
d="M195 203q-30 0 -56.5 11.5t-46 31t-31 46t-11.5 56.5t11.5 56.5t31 46t46 31t56.5 11.5t57 -11.5t46.5 -31t31 -46t11.5 -56.5t-11.5 -56.5t-31 -46t-46.5 -31t-57 -11.5z" />
    <glyph glyph-name="ellipsis" unicode="&#x2026;" horiz-adv-x="803" 
d="M119 -9q-29 0 -49 20t-20 49t20 49t49 20t49 -20t20 -49t-20 -49t-49 -20zM402 -9q-29 0 -49 20t-20 49t20 49t49 20t49 -20t20 -49t-20 -49t-49 -20zM685 -9q-29 0 -49 20t-20 49t20 49t49 20t48.5 -20t19.5 -49t-19.5 -49t-48.5 -20z" />
    <glyph glyph-name="perthousand" unicode="&#x2030;" horiz-adv-x="1229" 
d="M221 378q-36 0 -67 13t-54.5 36t-36.5 54t-13 67q0 35 13 66.5t36.5 55t54.5 37t67 13.5q35 0 66 -13.5t54 -37t36.5 -55t13.5 -66.5q0 -36 -13.5 -67t-36.5 -54t-54 -36t-66 -13zM221 478q29 0 49.5 20.5t20.5 49.5q0 30 -20.5 51t-49.5 21t-49.5 -21t-20.5 -51
q0 -29 20.5 -49.5t49.5 -20.5zM623 -20q-36 0 -67 13t-54 36.5t-36 54.5t-13 67q0 35 13 66.5t36 55t54 37t67 13.5q35 0 66 -13.5t54.5 -37t37 -55t13.5 -66.5q0 -36 -13.5 -67t-37 -54.5t-54.5 -36.5t-66 -13zM623 81q29 0 49.5 20.5t20.5 49.5q0 30 -20.5 51t-49.5 21
t-49.5 -21t-20.5 -51q0 -29 20.5 -49.5t49.5 -20.5zM1008 -20q-36 0 -67 13t-54 36.5t-36 54.5t-13 67q0 35 13 66.5t36 55t54 37t67 13.5q35 0 66 -13.5t54.5 -37t37 -55t13.5 -66.5q0 -36 -13.5 -67t-37 -54.5t-54.5 -36.5t-66 -13zM1008 81q29 0 49.5 20.5t20.5 49.5
q0 30 -20.5 51t-49.5 21t-49.5 -21t-20.5 -51q0 -29 20.5 -49.5t49.5 -20.5zM161 -9q-21 0 -36 15t-15 37q0 8 2.5 16.5t9.5 16.5l516 615q16 18 40 18q21 0 36 -15t15 -36q0 -8 -2.5 -16.5t-9.5 -16.5l-516 -615q-16 -19 -40 -19z" />
    <glyph glyph-name="guilsinglleft" unicode="&#x2039;" horiz-adv-x="348" 
d="M52 217q-8 9 -12.5 18t-4.5 20t4.5 20.5t12.5 18.5l168 178q8 8 18 12.5t21 4.5q23 0 38.5 -15t15.5 -38q0 -18 -14 -34l-141 -147l141 -147q6 -7 10 -15.5t4 -17.5q0 -23 -15.5 -38.5t-38.5 -15.5q-22 0 -40 18z" />
    <glyph glyph-name="guilsinglright" unicode="&#x203a;" horiz-adv-x="348" 
d="M190 255l-141 147q-14 16 -14 34q0 23 15.5 38t38.5 15q11 0 21 -4.5t18 -12.5l168 -178q8 -9 12.5 -18.5t4.5 -20.5t-4.5 -20t-12.5 -18l-167 -178q-18 -18 -40 -18q-23 0 -38.5 15.5t-15.5 38.5q0 9 4 17.5t10 15.5z" />
    <glyph glyph-name="fraction" unicode="&#x2044;" horiz-adv-x="640" 
d="M537 689q8 8 19.5 14t22.5 6q21 0 36 -15t15 -36q0 -8 -2.5 -16.5t-9.5 -16.5l-516 -615q-16 -19 -40 -19q-21 0 -36 15t-15 37q0 18 13 34z" />
    <glyph glyph-name="Euro" unicode="&#x20ac;" horiz-adv-x="753" 
d="M112 401q7 66 34 122.5t70.5 98t101 65t126.5 23.5q81 0 141 -28t107 -80q15 -18 15 -41q0 -24 -17 -41t-41 -17q-22 0 -48 23q-32 35 -67.5 53t-89.5 18q-44 0 -79.5 -14.5t-62.5 -41t-44.5 -62.5t-24.5 -78h196q21 0 36 -14.5t15 -36.5q0 -21 -15 -36t-36 -15h-196
q7 -42 24.5 -77.5t44.5 -62t62.5 -41t79.5 -14.5q54 0 89.5 17.5t67.5 52.5q25 23 48 23q24 0 41 -16.5t17 -41.5q0 -10 -3.5 -21t-11.5 -19q-46 -53 -106.5 -81t-141.5 -28q-69 0 -126.5 23.5t-101 64.5t-70.5 98t-34 123h-40q-22 0 -37 15t-15 36q0 22 15 36.5t37 14.5h40
z" />
    <glyph glyph-name="uni2117" unicode="&#x2117;" horiz-adv-x="822" 
d="M411 -10q-75 0 -141 28t-115 77t-77 114.5t-28 140.5t28 141t77 114.5t115 76.5t141 28t141 -28t115 -76.5t77 -114.5t28 -141t-28 -140.5t-77 -114.5t-115 -77t-141 -28zM410 76q56 0 105.5 22t86 60.5t58 89.5t21.5 109t-21.5 107t-58 85t-86 56t-105.5 20t-105 -21.5
t-85.5 -58.5t-58 -87t-21.5 -108t21.5 -108t58 -87t85.5 -58t105 -21zM279 515q0 19 14 33t34 14h107q41 0 72.5 -11.5t52.5 -31.5t32 -47.5t11 -59.5q0 -34 -12.5 -61t-33.5 -46t-49.5 -29.5t-59.5 -10.5h-12q-18 0 -28.5 11t-10.5 28q0 11 6.5 22.5t20.5 16.5h14
q71 12 71 69q0 28 -20 46.5t-54 18.5h-64v-295q0 -19 -12.5 -32t-32.5 -13q-19 0 -32.5 13t-13.5 32v333z" />
    <glyph glyph-name="trademark" unicode="&#x2122;" horiz-adv-x="711" 
d="M136 628h-49q-15 0 -26 9.5t-11 26.5q0 14 11 25t26 11h175q15 0 26 -11t11 -25q0 -17 -11 -26.5t-26 -9.5h-50v-178q0 -17 -10.5 -28.5t-26.5 -11.5t-27.5 11.5t-11.5 28.5v178zM433 681q12 14 20 19.5t22 5.5q16 0 26.5 -11t10.5 -28v-67l68 81q12 14 20 19.5t22 5.5
q17 0 28 -11t11 -28v-217q0 -17 -11.5 -28.5t-26.5 -11.5q-17 0 -27.5 11.5t-10.5 28.5v133l-73 -88v-45q0 -17 -11 -28.5t-27 -11.5q-15 0 -26.5 11.5t-11.5 28.5v125l-132 -152q-11 -13 -28 -13q-14 0 -26 10t-12 27q0 5 2 11.5t7 11.5z" />
    <glyph glyph-name="uni2126" unicode="&#x2126;" horiz-adv-x="811" 
d="M83 0q-23 0 -39 16t-16 39t16 39t39 16h95q-29 17 -53 43t-41 57.5t-27 67t-10 72.5q0 75 28 141t76.5 114.5t114 76.5t140.5 28t140.5 -28t113.5 -76.5t76 -114.5t28 -141q0 -36 -9.5 -71t-26.5 -66.5t-41 -58t-53 -44.5h95q23 0 39 -16t16 -39t-16 -39t-39 -16h-222
q-23 0 -39 16t-16 39t16 38.5t40 32.5q66 36 100.5 94.5t34.5 129.5q0 52 -18.5 97t-50.5 78.5t-75.5 52.5t-92.5 19q-50 0 -93 -19t-75 -52.5t-50.5 -78.5t-18.5 -97q0 -44 12 -80t31.5 -64t43.5 -48t47 -32q24 -17 40.5 -32.5t16.5 -38.5t-16 -39t-39 -16h-222v0z" />
    <glyph glyph-name="partialdiff" unicode="&#x2202;" horiz-adv-x="570" 
d="M285 -10q-53 0 -97 18.5t-76.5 51t-50.5 75.5t-18 93q0 38 12.5 73.5t36 64.5t58 50t78.5 30q13 2 24.5 2t24.5 -2l-147 173q-13 16 -13 35q0 24 17 39.5t39 15.5q25 0 41 -19l248 -295q33 -39 49 -79.5t16 -87.5q0 -50 -18 -93t-50 -75.5t-76.5 -51t-97.5 -18.5zM285 93
q28 0 52 10.5t42 29t28 43t10 52.5t-10 53t-28 44t-42 29.5t-52 10.5t-52 -10.5t-41.5 -29.5t-27.5 -44t-10 -53t10 -52.5t27.5 -43t41.5 -29t52 -10.5z" />
    <glyph glyph-name="uni2206" unicode="&#x2206;" horiz-adv-x="678" 
d="M71 0q-13 1 -24 8.5t-18 18t-8 24t5 27.5l263 599q7 14 20 23t30 9t30 -9t20 -23l264 -599q6 -14 4.5 -27.5t-8 -25t-17 -18.5t-23.5 -7h-538zM517 110l-178 413l-178 -413h356z" />
    <glyph glyph-name="product" unicode="&#x220f;" horiz-adv-x="643" 
d="M64 642q0 24 17.5 41t41.5 17h397q25 0 42 -17t17 -41v-592q0 -24 -17 -41.5t-42 -17.5q-24 0 -41 17.5t-17 41.5v541h-280v-541q0 -24 -17.5 -41.5t-41.5 -17.5t-41.5 17.5t-17.5 41.5v592z" />
    <glyph glyph-name="summation" unicode="&#x2211;" horiz-adv-x="566" 
d="M275 344l-218 259q-14 17 -14 39q0 24 17 41t41 17h368q23 0 39 -15.5t16 -38.5t-16 -39t-39 -16h-249l172 -205q5 -5 9 -14t4 -22q0 -21 -12 -35l-174 -205h250q23 0 39 -16t16 -39t-16 -39t-39 -16h-368q-23 0 -38.5 16t-15.5 39q0 20 13 36z" />
    <glyph glyph-name="minus" unicode="&#x2212;" horiz-adv-x="536" 
d="M103 298q-22 0 -37.5 15t-15.5 37q0 23 15.5 38.5t37.5 15.5h330q22 0 37.5 -15.5t15.5 -37.5q0 -23 -15.5 -38t-37.5 -15h-330v0z" />
    <glyph glyph-name="radical" unicode="&#x221a;" horiz-adv-x="796" 
d="M160 408h-99q-21 0 -36 15t-15 36q0 22 15 36.5t36 14.5h154q23 0 39 -15.5t16 -38.5v-271l425 506q8 9 18 13.5t21 4.5q21 0 36 -15t15 -36q0 -8 -2.5 -16.5t-9.5 -16.5l-514 -612q-18 -22 -44 -22q-23 0 -39 16.5t-16 39.5v361z" />
    <glyph glyph-name="infinity" unicode="&#x221e;" horiz-adv-x="712" 
d="M201 287q20 0 35 11t28 24l24 22l-24 23q-13 13 -28 24t-35 11q-23 0 -40 -17.5t-17 -40.5t17 -40t40 -17zM322 235q-54 -51 -119 -51q-33 0 -62 13t-50.5 34.5t-34.5 50.5t-13 62t13 62.5t34.5 51t50.5 34.5t62 13q65 0 119 -51l34 -32l35 32q53 51 118 51q33 0 62 -13
t51 -34.5t34.5 -51t12.5 -62.5t-12.5 -62t-34.5 -50.5t-51 -34.5t-62 -13q-65 0 -118 51l-35 32zM510 287q24 0 41 17t17 40t-17 40.5t-41 17.5q-18 0 -33.5 -11t-28.5 -24l-23 -23l23 -22q13 -13 28.5 -24t33.5 -11z" />
    <glyph glyph-name="integral" unicode="&#x222b;" horiz-adv-x="467" 
d="M179 613q0 52 17.5 96t48 75t72 48.5t89.5 17.5q21 0 36 -14.5t15 -36.5q0 -21 -15 -36t-36 -15q-49 0 -83 -35.5t-34 -99.5v-575q0 -53 -17.5 -96.5t-48.5 -75t-72.5 -49t-89.5 -17.5q-21 0 -36 14.5t-15 36.5q0 21 15 36t36 15q49 0 83.5 35.5t34.5 100.5v575z" />
    <glyph glyph-name="approxequal" unicode="&#x2248;" horiz-adv-x="539" 
d="M201 437q-14 0 -22.5 -5.5t-14.5 -14t-10.5 -17.5t-8.5 -16q-5 -8 -12.5 -13.5t-22.5 -5.5q-24 0 -42 13.5t-18 38.5q0 4 1.5 12.5t4.5 15.5q6 15 17 33t27 34t37.5 27t49.5 11t50.5 -11.5t40.5 -25t33 -25t28 -11.5q14 0 23 6.5t15.5 16t11 20t10.5 17.5q5 5 12.5 9
t18.5 4q24 0 41.5 -14t17.5 -39q0 -3 -1.5 -11.5t-4.5 -15.5q-6 -15 -17 -33.5t-27 -34t-37.5 -26.5t-48.5 -11q-28 0 -50.5 11t-40.5 24.5t-33 25t-28 11.5zM201 206q-14 0 -22.5 -5.5t-14.5 -13.5t-10.5 -17.5t-8.5 -16.5q-5 -7 -12.5 -12.5t-22.5 -5.5q-24 0 -42 13.5
t-18 38.5q0 3 1.5 12t4.5 15q6 15 17 33t27 34t37.5 27t49.5 11t50.5 -11.5t40.5 -25t33 -25t28 -11.5q14 0 23 6.5t15.5 16t11 20t10.5 17.5q11 13 31 13q24 0 41.5 -14t17.5 -39q0 -3 -1.5 -11.5t-4.5 -15.5q-6 -15 -17 -33t-27 -34t-37.5 -27t-48.5 -11q-28 0 -50.5 11
t-40.5 24.5t-33 25t-28 11.5z" />
    <glyph glyph-name="notequal" unicode="&#x2260;" horiz-adv-x="536" 
d="M50 442q0 23 15.5 38.5t37.5 15.5h188l55 102q16 29 46 29q17 0 31 -12t14 -32q0 -15 -7 -28l-32 -59h35q22 0 37.5 -15.5t15.5 -37.5q0 -23 -15.5 -38t-37.5 -15h-92l-42 -78h134q22 0 37.5 -15.5t15.5 -37.5q0 -23 -15.5 -38t-37.5 -15h-191l-54 -101q-18 -29 -47 -29
q-16 0 -30.5 11.5t-14.5 31.5q0 14 7 28l32 59h-32q-22 0 -37.5 15t-15.5 37q0 23 15.5 38.5t37.5 15.5h89l42 78h-131q-22 0 -37.5 15t-15.5 37z" />
    <glyph glyph-name="lessequal" unicode="&#x2264;" horiz-adv-x="536" 
d="M103 0q-22 0 -37.5 15.5t-15.5 37.5q0 23 15.5 38t37.5 15h330q22 0 37.5 -15t15.5 -37q0 -23 -15.5 -38.5t-37.5 -15.5h-330zM442 259q26 -18 26 -46q0 -22 -15 -37.5t-38 -15.5q-14 0 -27 7l-289 165q-14 8 -22 19.5t-8 28.5t8 29t22 20l289 165q16 7 27 7
q23 0 38 -15.5t15 -38.5q0 -29 -26 -45l-216 -122z" />
    <glyph glyph-name="greaterequal" unicode="&#x2265;" horiz-adv-x="536" 
d="M103 0q-22 0 -37.5 15.5t-15.5 37.5q0 23 15.5 38t37.5 15h330q22 0 37.5 -15t15.5 -37q0 -23 -15.5 -38.5t-37.5 -15.5h-330zM95 502q-26 16 -26 45q0 23 15 38.5t38 15.5q12 0 26 -7l289 -165q31 -16 31 -49q0 -32 -31 -48l-289 -165q-6 -4 -13 -5.5t-13 -1.5
q-23 0 -38 15.5t-15 37.5q0 28 26 46l216 121z" />
    <glyph glyph-name="lozenge" unicode="&#x25ca;" horiz-adv-x="677" 
d="M43 313q-15 20 -15 37q0 20 15 37l255 304q16 18 40 18q26 0 41 -18l255 -304q15 -17 15 -37q0 -17 -15 -37l-255 -303q-7 -9 -18 -14t-23 -5q-24 0 -40 19zM527 350l-189 224l-188 -224l188 -224z" />
    <glyph glyph-name="commaaccent" unicode="&#xf6c3;" horiz-adv-x="246" 
d="M96 -66q5 13 17.5 22.5t28.5 9.5q20 0 37 -13.5t17 -36.5q0 -10 -5 -22l-40 -102q-5 -13 -18 -22t-29 -9q-20 0 -37 13.5t-17 35.5q0 8 5 23z" />
    <glyph glyph-name="s_t" unicode="&#xfb06;" horiz-adv-x="834" 
d="M10 51q0 22 15 36.5t36 14.5h11q30 0 57 10.5t48 30t33 48t12 64.5q0 58 20.5 105t55.5 80.5t82 51.5t100 18h44v75q0 23 16 39t39 16t39 -16t16 -39v-75h117q22 0 36.5 -14.5t14.5 -36.5q0 -21 -14.5 -36t-36.5 -15h-117v-181q0 -66 33 -99.5t84 -33.5q21 0 36 -15
t15 -36q0 -22 -14.5 -37t-36.5 -15q-48 0 -89.5 16.5t-72 47t-48 74.5t-17.5 98v181h-42q-30 0 -57.5 -10t-48 -29.5t-32.5 -48t-12 -65.5q0 -58 -20.5 -105t-56 -80.5t-82.5 -51.5t-100 -18h-12q-21 0 -36 15t-15 36z" />
    <glyph glyph-name="A.ss05" horiz-adv-x="699" 
d="M64 647q0 26 17.5 44t43.5 18q15 0 27.5 -6t19.5 -15l504 -600q8 -10 10.5 -19t2.5 -20q0 -24 -17 -41t-41 -17q-27 0 -45 22l-404 481v-237h131q23 0 39 -16t16 -39t-16 -39t-39 -16h-131v-97q0 -24 -17.5 -41.5t-41.5 -17.5t-41.5 17.5t-17.5 41.5v597z" />
    <glyph glyph-name="A.ss06" horiz-adv-x="699" 
d="M529 686q11 13 23.5 18t24.5 5q24 0 41 -17t17 -42v-600q0 -24 -17 -41.5t-41 -17.5q-25 0 -42 17.5t-17 41.5v451l-410 -490q-8 -10 -20 -15t-23 -5q-23 0 -39 16t-16 39q0 9 2.5 17.5t10.5 18.5z" />
    <glyph glyph-name="A.ss07" horiz-adv-x="699" 
d="M64 647q0 26 17.5 44t43.5 18q15 0 27.5 -6t19.5 -15l504 -600q8 -10 10.5 -19t2.5 -20q0 -24 -17 -41t-41 -17q-27 0 -45 22l-404 481v-444q0 -24 -17.5 -41.5t-41.5 -17.5t-41.5 17.5t-17.5 41.5v597z" />
    <glyph glyph-name="B.ss01" horiz-adv-x="552" 
d="M64 642q0 24 17.5 41t41.5 17h178q42 0 78 -15.5t63 -41.5t42 -61.5t15 -75.5q0 -23 -5.5 -45t-17.5 -42t-31 -36.5t-46 -26.5q28 -10 49 -27t34.5 -38.5t20 -45.5t6.5 -49q0 -41 -15.5 -76.5t-42.5 -62t-63.5 -42t-78.5 -15.5h-40q-23 0 -39 16t-16 39t16 39t39 16h22
q43 0 70 27t27 67q0 19 -7.5 36.5t-20 30t-30 20t-36.5 7.5h-25q-23 0 -39 15.5t-16 38.5t16 39t39 16h17q45 1 68.5 27.5t23.5 64.5t-26.5 65t-68.5 27h-101v-541q0 -24 -17.5 -41.5t-41.5 -17.5t-41.5 17.5t-17.5 41.5v592z" />
    <glyph glyph-name="B.ss02" horiz-adv-x="552" 
d="M64 642q0 24 17.5 41t41.5 17h178q42 0 78 -15.5t63 -41.5t42 -61.5t15 -75.5q0 -23 -5.5 -45t-17.5 -42t-31 -36.5t-46 -26.5q28 -10 49 -27t34.5 -38.5t20 -45.5t6.5 -49q0 -41 -15.5 -76.5t-42.5 -62t-63.5 -42t-78.5 -15.5h-186q-24 0 -41.5 17.5t-17.5 41.5v583z
M291 110q43 0 70 27t27 67q0 19 -7.5 36.5t-20 30t-30 20t-36.5 7.5h-112v-188h109zM286 407q19 0 36 7t29.5 19.5t19.5 29.5t7 36q0 38 -26.5 65t-68.5 27h-101v-184h104z" />
    <glyph glyph-name="D.ss01" horiz-adv-x="711" 
d="M64 642q0 24 17.5 41t41.5 17h186q80 0 146 -27.5t113.5 -74.5t73.5 -111t26 -137q0 -72 -26 -136t-73.5 -111.5t-113.5 -75t-145 -27.5h-41q-23 0 -39 16t-16 39t16 39t39 16h43q54 0 97.5 19t74 51.5t47 76t16.5 93.5t-16.5 94t-47.5 76.5t-75 51.5t-99 19h-127v-541
q0 -24 -17.5 -41.5t-41.5 -17.5t-41.5 17.5t-17.5 41.5v592z" />
    <glyph glyph-name="H.ss01" horiz-adv-x="643" 
d="M64 650q0 25 17.5 42t41.5 17t41.5 -17t17.5 -42v-600q0 -24 -17.5 -41.5t-41.5 -17.5t-41.5 17.5t-17.5 41.5v600zM462 296h-193q-23 0 -39 15.5t-16 38.5t16 39t39 16h193v245q0 25 17 42t41 17q25 0 42 -17t17 -42v-600q0 -24 -17 -41.5t-42 -17.5q-24 0 -41 17.5
t-17 41.5v246z" />
    <glyph glyph-name="M.ss04" horiz-adv-x="1082" 
d="M529 686q11 13 23.5 18t24.5 5q24 0 41 -17t17 -42v-294l277 330q11 13 23 18t24 5q24 0 41.5 -17t17.5 -42v-600q0 -24 -17.5 -41.5t-41.5 -17.5t-41.5 17.5t-17.5 41.5v451l-410 -490q-8 -10 -19.5 -15t-22.5 -5q-23 0 -39 16t-16 39q0 9 2.5 17.5t10.5 18.5l112 134
v285l-410 -490q-8 -10 -20 -15t-23 -5q-23 0 -39 16t-16 39q0 9 2.5 17.5t10.5 18.5z" />
    <glyph glyph-name="M.ss05" horiz-adv-x="1082" 
d="M123 -9q-24 0 -41.5 17.5t-17.5 41.5v597q0 26 17.5 44t43.5 18q15 0 27.5 -6t19.5 -15l274 -327v286q0 26 17.5 44t43.5 18q15 0 27.5 -6t19.5 -15l504 -600q8 -10 10.5 -19t2.5 -20q0 -24 -17 -41t-41 -17q-27 0 -45 22l-404 481v-273l112 -133q8 -10 10.5 -19t2.5 -20
q0 -24 -17 -41t-41 -17q-27 0 -45 22l-404 481v-444q0 -24 -17.5 -41.5t-41.5 -17.5z" />
    <glyph glyph-name="M.ss09" horiz-adv-x="1082" 
d="M123 -9q-24 0 -41.5 17.5t-17.5 41.5v597q0 26 17.5 44t43.5 18q15 0 27.5 -6t19.5 -15l274 -327v286q0 26 17.5 44t43.5 18q15 0 27.5 -6t19.5 -15l504 -600q8 -10 10.5 -19t2.5 -20q0 -24 -17 -41t-41 -17q-27 0 -45 22l-404 481v-444q0 -24 -17.5 -41.5t-41.5 -17.5
t-41.5 17.5t-17.5 41.5v129l-264 315v-444q0 -24 -17.5 -41.5t-41.5 -17.5z" />
    <glyph glyph-name="N.ss04" horiz-adv-x="1153" 
d="M529 686q11 13 23 18t25 5q24 0 41 -17.5t17 -41.5v-450l411 489q8 10 19.5 15t22.5 5q23 0 39 -16t16 -39q0 -8 -2.5 -17t-10.5 -18l-510 -608q-8 -11 -19 -15.5t-24 -4.5q-25 0 -42 17.5t-17 41.5v451l-410 -490q-8 -10 -20 -15t-23 -5q-23 0 -39 16t-16 39
q0 9 2.5 17.5t10.5 18.5z" />
    <glyph glyph-name="N.ss05" horiz-adv-x="1153" 
d="M24 613q-14 17 -14 38q0 25 17 41.5t41 16.5q28 0 46 -21l404 -481v440q0 26 17.5 44t43.5 18q15 0 27 -6t20 -15l503 -600q8 -10 11 -19t3 -20q0 -24 -17 -41t-41 -17q-28 0 -46 22l-404 481v-441q0 -26 -17.5 -44t-43.5 -18q-14 0 -26.5 6.5t-20.5 15.5z" />
    <glyph glyph-name="P.ss02" horiz-adv-x="530" 
d="M64 642q0 24 17.5 41t41.5 17h162q49 0 90 -16.5t69.5 -45t44.5 -67t16 -81.5t-16 -81t-44.5 -66.5t-69.5 -45t-90 -16.5h-103v-231q0 -24 -17.5 -41.5t-41.5 -17.5t-41.5 17.5t-17.5 41.5v592zM281 390q22 0 41 8t33 21.5t21.5 31.5t7.5 39q0 42 -29 71.5t-74 29.5h-99
v-201h99z" />
    <glyph glyph-name="Q.ss02" horiz-adv-x="802" 
d="M401 -10q-75 0 -140.5 28t-113.5 76.5t-76 114.5t-28 141t28 141t76 114.5t113.5 76.5t140.5 28t140.5 -28t114 -76.5t76.5 -114.5t28 -141q0 -61 -18.5 -115t-50.5 -99l40 -48q14 -18 14 -39q0 -24 -17 -41t-41 -17q-28 0 -46 22l-34 41q-44 -31 -96 -47.5t-110 -16.5z
M401 104q36 0 69 10t61 29l-86 104q-8 9 -11 18.5t-3 19.5q0 25 17 41.5t41 16.5q28 0 46 -21l75 -90q14 26 21.5 56t7.5 62q0 52 -18.5 97t-50.5 78.5t-75.5 52.5t-93.5 19t-93 -19t-75 -52.5t-50.5 -78.5t-18.5 -97q0 -51 18.5 -96t50.5 -78.5t75 -52.5t93 -19z" />
    <glyph glyph-name="R.ss02" horiz-adv-x="585" 
d="M64 642q0 24 17.5 41t41.5 17h170q49 0 89.5 -16.5t69.5 -45t45 -67t16 -81.5q0 -36 -10.5 -66.5t-28.5 -53t-41.5 -38t-49.5 -21.5l-13 -1l186 -222q8 -10 11 -19t3 -20q0 -24 -17 -41t-41 -17q-28 0 -46 22l-225 268h-59v-231q0 -24 -17.5 -41.5t-41.5 -17.5
t-41.5 17.5t-17.5 41.5v592zM289 390q22 0 41 8t32.5 21.5t21 31.5t7.5 39q0 42 -28.5 71.5t-73.5 29.5h-107v-201h107z" />
    <glyph glyph-name="S.ss04" horiz-adv-x="711" 
d="M75 110q35 0 74 13t72 41.5t54.5 74.5t21.5 111q0 93 30 159.5t78.5 109t109 62t121.5 19.5h10q23 0 39 -15.5t16 -38.5t-16 -39t-39 -16h-10q-35 0 -74 -13t-72 -42t-54.5 -74.5t-21.5 -110.5q0 -93 -30 -159.5t-78.5 -109t-109 -62.5t-121.5 -20h-10q-23 0 -39 16
t-16 39t16 39t39 16h10z" />
    <glyph glyph-name="V.ss05" horiz-adv-x="699" 
d="M574 -9q-14 0 -26.5 6.5t-20.5 15.5l-503 600q-14 17 -14 38q0 25 17 41.5t41 16.5q26 0 46 -21l404 -481v443q0 25 17 42t42 17q24 0 41 -17t17 -42v-597q0 -26 -17.5 -44t-43.5 -18z" />
    <glyph glyph-name="W.ss04" horiz-adv-x="1082" 
d="M64 650q0 25 17.5 42t41.5 17t41.5 -17t17.5 -42v-450l410 489q8 10 19.5 15t22.5 5q23 0 39 -16t16 -39q0 -8 -2.5 -17t-10.5 -18l-112 -134v-285l410 489q8 10 20 15t23 5q23 0 39 -16t16 -39q0 -8 -2.5 -17t-10.5 -18l-506 -604q-11 -14 -23.5 -19t-24.5 -5
q-24 0 -41 17.5t-17 41.5v295l-277 -330q-11 -14 -23 -19t-24 -5q-24 0 -41.5 17.5t-17.5 41.5v600z" />
    <glyph glyph-name="W.ss05" horiz-adv-x="1082" 
d="M575 -9q-15 0 -27.5 6.5t-19.5 15.5l-504 600q-8 9 -10.5 18.5t-2.5 19.5q0 25 17 41.5t41 16.5q27 0 45 -21l404 -481v273l-112 133q-8 9 -10.5 18.5t-2.5 19.5q0 25 17 41.5t41 16.5q27 0 45 -21l404 -481v443q0 25 17.5 42t41.5 17t41.5 -17t17.5 -42v-597
q0 -26 -17.5 -44t-43.5 -18q-15 0 -27.5 6.5t-19.5 15.5l-274 327v-287q0 -26 -17.5 -44t-43.5 -18z" />
    <glyph glyph-name="W.ss09" horiz-adv-x="1082" 
d="M575 -9q-15 0 -27.5 6.5t-19.5 15.5l-504 600q-8 9 -10.5 18.5t-2.5 19.5q0 25 17 41.5t41 16.5q27 0 45 -21l404 -481v443q0 25 17.5 42t41.5 17t41.5 -17t17.5 -42v-129l264 -314v443q0 25 17.5 42t41.5 17t41.5 -17t17.5 -42v-597q0 -26 -17.5 -44t-43.5 -18
q-15 0 -27.5 6.5t-19.5 15.5l-274 327v-287q0 -26 -17.5 -44t-43.5 -18z" />
    <glyph glyph-name="X.ss08" horiz-adv-x="587" 
d="M236 316v68l-192 229q-14 17 -14 38q0 25 17 41.5t41 16.5q28 0 46 -21l162 -194l165 195q8 10 19.5 15t22.5 5q24 0 39.5 -16t15.5 -39q0 -21 -13 -35l-192 -229v-71l195 -231q8 -10 10.5 -19t2.5 -20q0 -24 -17 -41t-41 -17q-27 0 -45 22l-166 197l-164 -195
q-8 -11 -20.5 -17.5t-26.5 -6.5q-23 0 -38.5 16t-15.5 39q0 21 12 36z" />
    <glyph glyph-name="Y.ss01" horiz-adv-x="581" 
d="M459 -9q-24 0 -41.5 17.5t-17.5 41.5v600q0 25 17.5 42t41.5 17t41.5 -17t17.5 -42v-600q0 -24 -17.5 -41.5t-41.5 -17.5zM310 305q-29 0 -45 21l-241 287q-14 17 -14 38q0 25 17.5 41.5t40.5 16.5q28 0 46 -21l240 -286q8 -10 11 -19.5t3 -19.5q0 -25 -17 -41.5
t-41 -16.5z" />
    <glyph glyph-name="Y.ss10" horiz-adv-x="581" 
d="M64 650q0 25 17.5 42t41.5 17t41.5 -17t17.5 -42v-600q0 -24 -17.5 -41.5t-41.5 -17.5t-41.5 17.5t-17.5 41.5v600zM474 689q8 10 20 15t23 5q23 0 38.5 -16t15.5 -39q0 -9 -2 -17.5t-10 -17.5l-248 -295q-8 -9 -19.5 -14.5t-22.5 -5.5q-23 0 -39 16t-16 39q0 9 2.5 17.5
t10.5 18.5z" />
    <glyph glyph-name="Y.ss04" horiz-adv-x="529" 
d="M64 650q0 25 17.5 42t41.5 17t41.5 -17t17.5 -42v-247l239 286q8 10 20 15t23 5q23 0 39 -16t16 -39q0 -9 -2.5 -17.5t-10.5 -17.5l-324 -387v-182q0 -24 -17.5 -41.5t-41.5 -17.5t-41.5 17.5t-17.5 41.5v600z" />
    <glyph glyph-name="Y.ss05" horiz-adv-x="529" 
d="M347 227l-323 386q-14 17 -14 38q0 25 17 41.5t41 16.5q28 0 46 -21l233 -278v240q0 25 17.5 42t41.5 17t41.5 -17t17.5 -42v-600q0 -24 -17.5 -41.5t-41.5 -17.5t-41.5 17.5t-17.5 41.5v177z" />
    <glyph glyph-name="Eth.ss01" horiz-adv-x="711" 
d="M64 297h-44q-22 0 -37.5 15.5t-15.5 37.5t15.5 37.5t37.5 15.5h44v239q0 24 17.5 41t41.5 17h186q80 0 146 -27.5t113.5 -74.5t73.5 -111t26 -137q0 -72 -26 -136t-73.5 -111.5t-113.5 -75t-145 -27.5h-41q-23 0 -39 16t-16 39t16 39t39 16h43q54 0 97.5 19t74 51.5
t47 76t16.5 93.5t-16.5 94t-47.5 76.5t-75 51.5t-99 19h-127v-188h112q22 0 37.5 -15.5t15.5 -37.5t-15.5 -37.5t-37.5 -15.5h-112v-247q0 -24 -17.5 -41.5t-41.5 -17.5t-41.5 17.5t-17.5 41.5v247z" />
    <glyph glyph-name="Thorn.ss02" horiz-adv-x="530" 
d="M64 650q0 25 17.5 42t41.5 17t41.5 -17t17.5 -42v-90h103q49 0 90 -16.5t69.5 -45t44.5 -67t16 -81.5t-15.5 -81t-44.5 -66.5t-70 -45t-92 -16.5h-101v-91q0 -24 -17.5 -41.5t-41.5 -17.5t-41.5 17.5t-17.5 41.5v600zM281 250q22 0 41 8t33 21.5t21.5 31.5t7.5 39
q0 42 -29 71.5t-74 29.5h-99v-201h99z" />
    <glyph glyph-name="Aacute.ss05" horiz-adv-x="699" 
d="M158 921q17 20 43 20q23 0 39 -15.5t16 -38.5q0 -9 -3 -18.5t-10 -17.5l-82 -98q-17 -20 -43 -20q-23 0 -39 16t-16 39q0 9 3 18t10 17zM64 647q0 26 17.5 44t43.5 18q15 0 27.5 -6t19.5 -15l504 -600q8 -10 10.5 -19t2.5 -20q0 -24 -17 -41t-41 -17q-27 0 -45 22
l-404 481v-237h131q23 0 39 -16t16 -39t-16 -39t-39 -16h-131v-97q0 -24 -17.5 -41.5t-41.5 -17.5t-41.5 17.5t-17.5 41.5v597z" />
    <glyph glyph-name="Abreve.ss05" horiz-adv-x="699" 
d="M64 647q0 26 17.5 44t43.5 18q15 0 27.5 -6t19.5 -15l504 -600q8 -10 10.5 -19t2.5 -20q0 -24 -17 -41t-41 -17q-27 0 -45 22l-404 481v-237h131q23 0 39 -16t16 -39t-16 -39t-39 -16h-131v-97q0 -24 -17.5 -41.5t-41.5 -17.5t-41.5 17.5t-17.5 41.5v597zM124 735
q-33 0 -63.5 11t-54 30.5t-38 44.5t-14.5 54q-1 21 14 36t36 15q20 0 32 -12t15 -23q5 -21 24 -39t49 -18q29 0 48 18t23 39q3 11 15.5 23t32.5 12q21 0 36 -15t15 -36q-1 -29 -15.5 -54t-38.5 -44.5t-54 -30.5t-62 -11z" />
    <glyph glyph-name="Acircumflex.ss05" horiz-adv-x="699" 
d="M93 927q15 10 30 10q11 0 18 -3t12 -7l115 -88q21 -15 21 -39q0 -23 -15 -38.5t-37 -15.5q-19 0 -38 14l-76 63l-75 -63q-19 -14 -39 -14q-23 0 -37.5 17t-14.5 37q0 23 21 39zM64 647q0 26 17.5 44t43.5 18q15 0 27.5 -6t19.5 -15l504 -600q8 -10 10.5 -19t2.5 -20
q0 -24 -17 -41t-41 -17q-27 0 -45 22l-404 481v-237h131q23 0 39 -16t16 -39t-16 -39t-39 -16h-131v-97q0 -24 -17.5 -41.5t-41.5 -17.5t-41.5 17.5t-17.5 41.5v597z" />
    <glyph glyph-name="Adieresis.ss05" horiz-adv-x="699" 
d="M64 647q0 26 17.5 44t43.5 18q15 0 27.5 -6t19.5 -15l504 -600q8 -10 10.5 -19t2.5 -20q0 -24 -17 -41t-41 -17q-27 0 -45 22l-404 481v-237h131q23 0 39 -16t16 -39t-16 -39t-39 -16h-131v-97q0 -24 -17.5 -41.5t-41.5 -17.5t-41.5 17.5t-17.5 41.5v597zM15 759
q-29 0 -49 20t-20 49t20 48.5t49 19.5t49 -19.5t20 -48.5t-20 -49t-49 -20zM232 759q-29 0 -49 20t-20 49t20 48.5t49 19.5t49 -19.5t20 -48.5t-20 -49t-49 -20z" />
    <glyph glyph-name="Agrave.ss05" horiz-adv-x="699" 
d="M-57 851q-13 14 -13 34q0 23 17 39.5t40 16.5q25 0 43 -20l81 -98q13 -14 13 -34q0 -23 -17 -39t-40 -16q-26 0 -42 19zM64 647q0 26 17.5 44t43.5 18q15 0 27.5 -6t19.5 -15l504 -600q8 -10 10.5 -19t2.5 -20q0 -24 -17 -41t-41 -17q-27 0 -45 22l-404 481v-237h131
q23 0 39 -16t16 -39t-16 -39t-39 -16h-131v-97q0 -24 -17.5 -41.5t-41.5 -17.5t-41.5 17.5t-17.5 41.5v597z" />
    <glyph glyph-name="Amacron.ss05" horiz-adv-x="699" 
d="M64 647q0 26 17.5 44t43.5 18q15 0 27.5 -6t19.5 -15l504 -600q8 -10 10.5 -19t2.5 -20q0 -24 -17 -41t-41 -17q-27 0 -45 22l-404 481v-237h131q23 0 39 -16t16 -39t-16 -39t-39 -16h-131v-97q0 -24 -17.5 -41.5t-41.5 -17.5t-41.5 17.5t-17.5 41.5v597zM11 763
q-22 0 -36.5 15t-14.5 36t14.5 36t36.5 15h225q22 0 36.5 -15t14.5 -36t-14.5 -36t-36.5 -15h-225z" />
    <glyph glyph-name="Aogonek.ss05" horiz-adv-x="699" 
d="M64 647q0 26 17.5 44t43.5 18q15 0 27.5 -6t19.5 -15l504 -600q8 -10 10.5 -19t2.5 -20t-5 -23q-5 -13 -14 -23t-17 -18l-33 -36q-3 -3 -6 -9t-3 -14q0 -14 8.5 -23t21.5 -9h6q22 0 36 -12.5t14 -33.5q0 -22 -16.5 -35t-39.5 -13h-7q-60 1 -91 33.5t-31 77.5q0 26 10 48
t24 36l29 30l-393 469v-237h131q23 0 39 -16t16 -39t-16 -39t-39 -16h-131v-97q0 -24 -17.5 -41.5t-41.5 -17.5t-41.5 17.5t-17.5 41.5v597z" />
    <glyph glyph-name="Aring.ss05" horiz-adv-x="699" 
d="M123 743q-27 0 -50.5 9.5t-40.5 26.5t-27 39.5t-10 48.5t10 48.5t27 39.5t40.5 26.5t50.5 9.5t50.5 -9.5t40.5 -26.5t27 -39.5t10 -48.5t-10 -48.5t-27 -39.5t-40.5 -26.5t-50.5 -9.5zM123 820q20 0 33.5 13.5t13.5 33.5q0 19 -13.5 33t-33.5 14q-19 0 -32.5 -14
t-13.5 -33q0 -20 13.5 -33.5t32.5 -13.5zM64 647q0 26 17.5 44t43.5 18q15 0 27.5 -6t19.5 -15l504 -600q8 -10 10.5 -19t2.5 -20q0 -24 -17 -41t-41 -17q-27 0 -45 22l-404 481v-237h131q23 0 39 -16t16 -39t-16 -39t-39 -16h-131v-97q0 -24 -17.5 -41.5t-41.5 -17.5
t-41.5 17.5t-17.5 41.5v597z" />
    <glyph glyph-name="Atilde.ss05" horiz-adv-x="699" 
d="M64 647q0 26 17.5 44t43.5 18q15 0 27.5 -6t19.5 -15l504 -600q8 -10 10.5 -19t2.5 -20q0 -24 -17 -41t-41 -17q-27 0 -45 22l-404 481v-237h131q23 0 39 -16t16 -39t-16 -39t-39 -16h-131v-97q0 -24 -17.5 -41.5t-41.5 -17.5t-41.5 17.5t-17.5 41.5v597zM66 806
q-12 0 -19 -5t-12 -12.5t-8.5 -15.5t-8.5 -14q-10 -12 -29 -12q-23 0 -39.5 12.5t-16.5 35.5q0 2 1.5 10t3.5 14q6 13 15.5 28.5t23.5 29.5t33 23.5t43 9.5q25 0 44 -9t35 -20.5t28.5 -20.5t23.5 -9q13 0 20.5 6t12.5 14.5t9 17.5t12 15q4 2 9.5 4t12.5 2q23 0 39.5 -12.5
t16.5 -35.5q0 -2 -1.5 -10t-3.5 -14q-6 -13 -15.5 -28.5t-23.5 -29.5t-33 -23.5t-43 -9.5t-43.5 9t-35 20.5t-28 20.5t-23.5 9z" />
    <glyph glyph-name="Aacute.ss06" horiz-adv-x="699" 
d="M681 921q17 20 43 20q23 0 39 -15.5t16 -38.5q0 -9 -3 -18.5t-10 -17.5l-82 -98q-17 -20 -43 -20q-23 0 -39 16t-16 39q0 9 3 18t10 17zM529 686q11 13 23.5 18t24.5 5q24 0 41 -17t17 -42v-600q0 -24 -17 -41.5t-41 -17.5q-25 0 -42 17.5t-17 41.5v451l-410 -490
q-8 -10 -20 -15t-23 -5q-23 0 -39 16t-16 39q0 9 2.5 17.5t10.5 18.5z" />
    <glyph glyph-name="Abreve.ss06" horiz-adv-x="699" 
d="M579 735q-33 0 -63.5 11t-54 30.5t-38 44.5t-14.5 54q-1 21 14 36t36 15q20 0 32 -12t15 -23q5 -21 24 -39t49 -18q29 0 48 18t23 39q3 11 15.5 23t32.5 12q21 0 36 -15t15 -36q-1 -29 -15.5 -54t-38.5 -44.5t-54 -30.5t-62 -11zM529 686q11 13 23.5 18t24.5 5
q24 0 41 -17t17 -42v-600q0 -24 -17 -41.5t-41 -17.5q-25 0 -42 17.5t-17 41.5v451l-410 -490q-8 -10 -20 -15t-23 -5q-23 0 -39 16t-16 39q0 9 2.5 17.5t10.5 18.5z" />
    <glyph glyph-name="Acircumflex.ss06" horiz-adv-x="699" 
d="M547 927q15 10 30 10q11 0 18 -3t12 -7l115 -88q21 -15 21 -39q0 -23 -15 -38.5t-37 -15.5q-19 0 -38 14l-76 63l-75 -63q-19 -14 -39 -14q-23 0 -37.5 17t-14.5 37q0 23 21 39zM529 686q11 13 23.5 18t24.5 5q24 0 41 -17t17 -42v-600q0 -24 -17 -41.5t-41 -17.5
q-25 0 -42 17.5t-17 41.5v451l-410 -490q-8 -10 -20 -15t-23 -5q-23 0 -39 16t-16 39q0 9 2.5 17.5t10.5 18.5z" />
    <glyph glyph-name="Adieresis.ss06" horiz-adv-x="699" 
d="M470 759q-29 0 -49 20t-20 49t20 48.5t49 19.5t49 -19.5t20 -48.5t-20 -49t-49 -20zM687 759q-29 0 -49 20t-20 49t20 48.5t49 19.5t49 -19.5t20 -48.5t-20 -49t-49 -20zM529 686q11 13 23.5 18t24.5 5q24 0 41 -17t17 -42v-600q0 -24 -17 -41.5t-41 -17.5
q-25 0 -42 17.5t-17 41.5v451l-410 -490q-8 -10 -20 -15t-23 -5q-23 0 -39 16t-16 39q0 9 2.5 17.5t10.5 18.5z" />
    <glyph glyph-name="Agrave.ss06" horiz-adv-x="699" 
d="M455 851q-13 14 -13 34q0 23 17 39.5t40 16.5q25 0 43 -20l81 -98q13 -14 13 -34q0 -23 -17 -39t-40 -16q-26 0 -42 19zM529 686q11 13 23.5 18t24.5 5q24 0 41 -17t17 -42v-600q0 -24 -17 -41.5t-41 -17.5q-25 0 -42 17.5t-17 41.5v451l-410 -490q-8 -10 -20 -15t-23 -5
q-23 0 -39 16t-16 39q0 9 2.5 17.5t10.5 18.5z" />
    <glyph glyph-name="Amacron.ss06" horiz-adv-x="699" 
d="M465 763q-22 0 -36.5 15t-14.5 36t14.5 36t36.5 15h225q22 0 36.5 -15t14.5 -36t-14.5 -36t-36.5 -15h-225zM529 686q11 13 23.5 18t24.5 5q24 0 41 -17t17 -42v-600q0 -24 -17 -41.5t-41 -17.5q-25 0 -42 17.5t-17 41.5v451l-410 -490q-8 -10 -20 -15t-23 -5
q-23 0 -39 16t-16 39q0 9 2.5 17.5t10.5 18.5z" />
    <glyph glyph-name="Aogonek.ss06" horiz-adv-x="699" 
d="M529 686q11 13 23.5 18t24.5 5q24 0 41 -17t17 -42v-600q0 -6 -2 -14q-2 -17 -9 -31t-17 -23l-32 -33q-3 -3 -6 -9t-3 -14q0 -14 8.5 -23t21.5 -9h6q22 0 36 -12.5t14 -33.5q0 -22 -16 -35t-39 -13h-7q-60 1 -91.5 33.5t-31.5 77.5q0 26 10 48t25 36l24 25q-8 14 -8 30
v451l-410 -490q-8 -10 -20 -15t-23 -5q-23 0 -39 16t-16 39q0 9 2.5 17.5t10.5 18.5z" />
    <glyph glyph-name="Aring.ss06" horiz-adv-x="699" 
d="M577 743q-27 0 -50.5 9.5t-40.5 26.5t-27 39.5t-10 48.5t10 48.5t27 39.5t40.5 26.5t50.5 9.5t50.5 -9.5t40.5 -26.5t27 -39.5t10 -48.5t-10 -48.5t-27 -39.5t-40.5 -26.5t-50.5 -9.5zM577 820q20 0 33.5 13.5t13.5 33.5q0 19 -13.5 33t-33.5 14q-19 0 -32.5 -14
t-13.5 -33q0 -20 13.5 -33.5t32.5 -13.5zM529 686q11 13 23.5 18t24.5 5q24 0 41 -17t17 -42v-600q0 -24 -17 -41.5t-41 -17.5q-25 0 -42 17.5t-17 41.5v451l-410 -490q-8 -10 -20 -15t-23 -5q-23 0 -39 16t-16 39q0 9 2.5 17.5t10.5 18.5z" />
    <glyph glyph-name="Atilde.ss06" horiz-adv-x="699" 
d="M522 806q-12 0 -19 -5t-12 -12.5t-8.5 -15.5t-8.5 -14q-10 -12 -29 -12q-23 0 -39.5 12.5t-16.5 35.5q0 2 1.5 10t3.5 14q6 13 15.5 28.5t23.5 29.5t33 23.5t43 9.5q25 0 44 -9t35 -20.5t28.5 -20.5t23.5 -9q13 0 20.5 6t12.5 14.5t9 17.5t12 15q4 2 9.5 4t12.5 2
q23 0 39.5 -12.5t16.5 -35.5q0 -2 -1.5 -10t-3.5 -14q-6 -13 -15.5 -28.5t-23.5 -29.5t-33 -23.5t-43 -9.5t-43.5 9t-35 20.5t-28 20.5t-23.5 9zM529 686q11 13 23.5 18t24.5 5q24 0 41 -17t17 -42v-600q0 -24 -17 -41.5t-41 -17.5q-25 0 -42 17.5t-17 41.5v451l-410 -490
q-8 -10 -20 -15t-23 -5q-23 0 -39 16t-16 39q0 9 2.5 17.5t10.5 18.5z" />
    <glyph glyph-name="Aacute.ss07" horiz-adv-x="699" 
d="M158 921q17 20 43 20q23 0 39 -15.5t16 -38.5q0 -9 -3 -18.5t-10 -17.5l-82 -98q-17 -20 -43 -20q-23 0 -39 16t-16 39q0 9 3 18t10 17zM64 647q0 26 17.5 44t43.5 18q15 0 27.5 -6t19.5 -15l504 -600q8 -10 10.5 -19t2.5 -20q0 -24 -17 -41t-41 -17q-27 0 -45 22
l-404 481v-444q0 -24 -17.5 -41.5t-41.5 -17.5t-41.5 17.5t-17.5 41.5v597z" />
    <glyph glyph-name="Abreve.ss07" horiz-adv-x="699" 
d="M124 735q-33 0 -63.5 11t-54 30.5t-38 44.5t-14.5 54q-1 21 14 36t36 15q20 0 32 -12t15 -23q5 -21 24 -39t49 -18q29 0 48 18t23 39q3 11 15.5 23t32.5 12q21 0 36 -15t15 -36q-1 -29 -15.5 -54t-38.5 -44.5t-54 -30.5t-62 -11zM64 647q0 26 17.5 44t43.5 18
q15 0 27.5 -6t19.5 -15l504 -600q8 -10 10.5 -19t2.5 -20q0 -24 -17 -41t-41 -17q-27 0 -45 22l-404 481v-444q0 -24 -17.5 -41.5t-41.5 -17.5t-41.5 17.5t-17.5 41.5v597z" />
    <glyph glyph-name="Acircumflex.ss07" horiz-adv-x="699" 
d="M93 927q15 10 30 10q11 0 18 -3t12 -7l115 -88q21 -15 21 -39q0 -23 -15 -38.5t-37 -15.5q-19 0 -38 14l-76 63l-75 -63q-19 -14 -39 -14q-23 0 -37.5 17t-14.5 37q0 23 21 39zM64 647q0 26 17.5 44t43.5 18q15 0 27.5 -6t19.5 -15l504 -600q8 -10 10.5 -19t2.5 -20
q0 -24 -17 -41t-41 -17q-27 0 -45 22l-404 481v-444q0 -24 -17.5 -41.5t-41.5 -17.5t-41.5 17.5t-17.5 41.5v597z" />
    <glyph glyph-name="Adieresis.ss07" horiz-adv-x="699" 
d="M64 647q0 26 17.5 44t43.5 18q15 0 27.5 -6t19.5 -15l504 -600q8 -10 10.5 -19t2.5 -20q0 -24 -17 -41t-41 -17q-27 0 -45 22l-404 481v-444q0 -24 -17.5 -41.5t-41.5 -17.5t-41.5 17.5t-17.5 41.5v597zM15 759q-29 0 -49 20t-20 49t20 48.5t49 19.5t49 -19.5t20 -48.5
t-20 -49t-49 -20zM232 759q-29 0 -49 20t-20 49t20 48.5t49 19.5t49 -19.5t20 -48.5t-20 -49t-49 -20z" />
    <glyph glyph-name="Agrave.ss07" horiz-adv-x="699" 
d="M-57 851q-13 14 -13 34q0 23 17 39.5t40 16.5q25 0 43 -20l81 -98q13 -14 13 -34q0 -23 -17 -39t-40 -16q-26 0 -42 19zM64 647q0 26 17.5 44t43.5 18q15 0 27.5 -6t19.5 -15l504 -600q8 -10 10.5 -19t2.5 -20q0 -24 -17 -41t-41 -17q-27 0 -45 22l-404 481v-444
q0 -24 -17.5 -41.5t-41.5 -17.5t-41.5 17.5t-17.5 41.5v597z" />
    <glyph glyph-name="Amacron.ss07" horiz-adv-x="699" 
d="M64 647q0 26 17.5 44t43.5 18q15 0 27.5 -6t19.5 -15l504 -600q8 -10 10.5 -19t2.5 -20q0 -24 -17 -41t-41 -17q-27 0 -45 22l-404 481v-444q0 -24 -17.5 -41.5t-41.5 -17.5t-41.5 17.5t-17.5 41.5v597zM11 763q-22 0 -36.5 15t-14.5 36t14.5 36t36.5 15h225
q22 0 36.5 -15t14.5 -36t-14.5 -36t-36.5 -15h-225z" />
    <glyph glyph-name="Aogonek.ss07" horiz-adv-x="699" 
d="M64 647q0 26 17.5 44t43.5 18q15 0 27.5 -6t19.5 -15l504 -600q8 -10 10.5 -19t2.5 -20t-5 -23q-5 -13 -14.5 -23.5t-17.5 -18.5l-32 -35q-3 -3 -6 -9t-3 -14q0 -14 8.5 -23t21.5 -9h6q22 0 36 -12.5t14 -33.5q0 -22 -16.5 -35t-39.5 -13h-7q-60 1 -91 33.5t-31 77.5
q0 26 10 48t24 36l29 30l-393 469v-444q0 -24 -17.5 -41.5t-41.5 -17.5t-41.5 17.5t-17.5 41.5v597z" />
    <glyph glyph-name="Aring.ss07" horiz-adv-x="699" 
d="M123 743q-27 0 -50.5 9.5t-40.5 26.5t-27 39.5t-10 48.5t10 48.5t27 39.5t40.5 26.5t50.5 9.5t50.5 -9.5t40.5 -26.5t27 -39.5t10 -48.5t-10 -48.5t-27 -39.5t-40.5 -26.5t-50.5 -9.5zM123 820q20 0 33.5 13.5t13.5 33.5q0 19 -13.5 33t-33.5 14q-19 0 -32.5 -14
t-13.5 -33q0 -20 13.5 -33.5t32.5 -13.5zM64 647q0 26 17.5 44t43.5 18q15 0 27.5 -6t19.5 -15l504 -600q8 -10 10.5 -19t2.5 -20q0 -24 -17 -41t-41 -17q-27 0 -45 22l-404 481v-444q0 -24 -17.5 -41.5t-41.5 -17.5t-41.5 17.5t-17.5 41.5v597z" />
    <glyph glyph-name="Atilde.ss07" horiz-adv-x="699" 
d="M66 806q-12 0 -19 -5t-12 -12.5t-8.5 -15.5t-8.5 -14q-10 -12 -29 -12q-23 0 -39.5 12.5t-16.5 35.5q0 2 1.5 10t3.5 14q6 13 15.5 28.5t23.5 29.5t33 23.5t43 9.5q25 0 44 -9t35 -20.5t28.5 -20.5t23.5 -9q13 0 20.5 6t12.5 14.5t9 17.5t12 15q4 2 9.5 4t12.5 2
q23 0 39.5 -12.5t16.5 -35.5q0 -2 -1.5 -10t-3.5 -14q-6 -13 -15.5 -28.5t-23.5 -29.5t-33 -23.5t-43 -9.5t-43.5 9t-35 20.5t-28 20.5t-23.5 9zM64 647q0 26 17.5 44t43.5 18q15 0 27.5 -6t19.5 -15l504 -600q8 -10 10.5 -19t2.5 -20q0 -24 -17 -41t-41 -17q-27 0 -45 22
l-404 481v-444q0 -24 -17.5 -41.5t-41.5 -17.5t-41.5 17.5t-17.5 41.5v597z" />
    <glyph glyph-name="Dcaron.ss01" horiz-adv-x="711" 
d="M64 642q0 24 17.5 41t41.5 17h186q80 0 146 -27.5t113.5 -74.5t73.5 -111t26 -137q0 -72 -26 -136t-73.5 -111.5t-113.5 -75t-145 -27.5h-41q-23 0 -39 16t-16 39t16 39t39 16h43q54 0 97.5 19t74 51.5t47 76t16.5 93.5t-16.5 94t-47.5 76.5t-75 51.5t-99 19h-127v-541
q0 -24 -17.5 -41.5t-41.5 -17.5t-41.5 17.5t-17.5 41.5v592zM165 837q-21 15 -21 39q0 20 14.5 37t37.5 17q21 0 39 -15l75 -62l76 62q18 15 38 15q22 0 37 -16t15 -38q0 -11 -5 -21.5t-16 -17.5l-115 -88q-5 -5 -12 -8t-18 -3q-8 0 -15.5 3t-14.5 8z" />
    <glyph glyph-name="Dcroat.ss01" horiz-adv-x="711" 
d="M64 297h-44q-22 0 -37.5 15.5t-15.5 37.5t15.5 37.5t37.5 15.5h44v239q0 24 17.5 41t41.5 17h186q80 0 146 -27.5t113.5 -74.5t73.5 -111t26 -137q0 -72 -26 -136t-73.5 -111.5t-113.5 -75t-145 -27.5h-41q-23 0 -39 16t-16 39t16 39t39 16h43q54 0 97.5 19t74 51.5
t47 76t16.5 93.5t-16.5 94t-47.5 76.5t-75 51.5t-99 19h-127v-188h112q22 0 37.5 -15.5t15.5 -37.5t-15.5 -37.5t-37.5 -15.5h-112v-247q0 -24 -17.5 -41.5t-41.5 -17.5t-41.5 17.5t-17.5 41.5v247z" />
    <glyph glyph-name="Hbar.ss01" horiz-adv-x="643" 
d="M64 488h-23q-21 0 -36 15t-15 36t15 36t36 15h23v60q0 25 17.5 42t41.5 17t41.5 -17t17.5 -42v-60h280v60q0 25 17 42t41 17q25 0 42 -17t17 -42v-60h23q21 0 36 -15t15 -36t-15 -36t-36 -15h-23v-438q0 -24 -17 -41.5t-42 -17.5q-24 0 -41 17.5t-17 41.5v223h-193
q-23 0 -39 16t-16 39t16 39t39 16h193v105h-280v-438q0 -24 -17.5 -41.5t-41.5 -17.5t-41.5 17.5t-17.5 41.5v438z" />
    <glyph glyph-name="Hcircumflex.ss01" horiz-adv-x="643" 
d="M291 927q15 10 30 10q11 0 18 -3t12 -7l115 -88q21 -15 21 -39q0 -23 -15 -38.5t-37 -15.5q-19 0 -38 14l-76 63l-75 -63q-19 -14 -39 -14q-23 0 -37.5 17t-14.5 37q0 23 21 39zM64 650q0 25 17.5 42t41.5 17t41.5 -17t17.5 -42v-600q0 -24 -17.5 -41.5t-41.5 -17.5
t-41.5 17.5t-17.5 41.5v600zM462 296h-193q-23 0 -39 15.5t-16 38.5t16 39t39 16h193v245q0 25 17 42t41 17q25 0 42 -17t17 -42v-600q0 -24 -17 -41.5t-42 -17.5q-24 0 -41 17.5t-17 41.5v246z" />
    <glyph glyph-name="Nacute.ss04" horiz-adv-x="1153" 
d="M529 686q11 13 23 18t25 5q24 0 41 -17.5t17 -41.5v-450l411 489q8 10 19.5 15t22.5 5q23 0 39 -16t16 -39q0 -8 -2.5 -17t-10.5 -18l-510 -608q-8 -11 -19 -15.5t-24 -4.5q-25 0 -42 17.5t-17 41.5v451l-410 -490q-8 -10 -20 -15t-23 -5q-23 0 -39 16t-16 39
q0 9 2.5 17.5t10.5 18.5zM884 921q17 20 43 20q23 0 39 -15.5t16 -38.5q0 -9 -3 -18.5t-10 -17.5l-82 -98q-17 -20 -43 -20q-23 0 -39 16t-16 39q0 9 3 18t10 17z" />
    <glyph glyph-name="Ncaron.ss04" horiz-adv-x="1153" 
d="M529 686q11 13 23 18t25 5q24 0 41 -17.5t17 -41.5v-450l411 489q8 10 19.5 15t22.5 5q23 0 39 -16t16 -39q0 -8 -2.5 -17t-10.5 -18l-510 -608q-8 -11 -19 -15.5t-24 -4.5q-25 0 -42 17.5t-17 41.5v451l-410 -490q-8 -10 -20 -15t-23 -5q-23 0 -39 16t-16 39
q0 9 2.5 17.5t10.5 18.5zM728 837q-21 15 -21 39q0 20 14.5 37t37.5 17q21 0 39 -15l75 -62l76 62q18 15 38 15q22 0 37 -16t15 -38q0 -11 -5 -21.5t-16 -17.5l-115 -88q-5 -5 -12 -8t-18 -3q-8 0 -15.5 3t-14.5 8z" />
    <glyph glyph-name="Ncommaaccent.ss04" horiz-adv-x="1153" 
d="M286 -66q5 13 17.5 22.5t28.5 9.5q20 0 37 -13.5t17 -36.5q0 -10 -5 -22l-40 -102q-5 -13 -18 -22t-29 -9q-20 0 -37 13.5t-17 35.5q0 8 5 23zM529 686q11 13 23 18t25 5q24 0 41 -17.5t17 -41.5v-450l411 489q8 10 19.5 15t22.5 5q23 0 39 -16t16 -39q0 -8 -2.5 -17
t-10.5 -18l-510 -608q-8 -11 -19 -15.5t-24 -4.5q-25 0 -42 17.5t-17 41.5v451l-410 -490q-8 -10 -20 -15t-23 -5q-23 0 -39 16t-16 39q0 9 2.5 17.5t10.5 18.5z" />
    <glyph glyph-name="Ntilde.ss04" horiz-adv-x="1153" 
d="M529 686q11 13 23 18t25 5q24 0 41 -17.5t17 -41.5v-450l411 489q8 10 19.5 15t22.5 5q23 0 39 -16t16 -39q0 -8 -2.5 -17t-10.5 -18l-510 -608q-8 -11 -19 -15.5t-24 -4.5q-25 0 -42 17.5t-17 41.5v451l-410 -490q-8 -10 -20 -15t-23 -5q-23 0 -39 16t-16 39
q0 9 2.5 17.5t10.5 18.5zM814 806q-12 0 -19 -5t-12 -12.5t-8.5 -15.5t-8.5 -14q-10 -12 -29 -12q-23 0 -39.5 12.5t-16.5 35.5q0 2 1.5 10t3.5 14q6 13 15.5 28.5t23.5 29.5t33 23.5t43 9.5q25 0 44 -9t35 -20.5t28.5 -20.5t23.5 -9q13 0 20.5 6t12.5 14.5t9 17.5t12 15
q4 2 9.5 4t12.5 2q23 0 39.5 -12.5t16.5 -35.5q0 -2 -1.5 -10t-3.5 -14q-6 -13 -15.5 -28.5t-23.5 -29.5t-33 -23.5t-43 -9.5t-43.5 9t-35 20.5t-28 20.5t-23.5 9z" />
    <glyph glyph-name="Nacute.ss05" horiz-adv-x="1153" 
d="M319 921q17 20 43 20q23 0 39 -15.5t16 -38.5q0 -9 -3 -18.5t-10 -17.5l-82 -98q-17 -20 -43 -20q-23 0 -39 16t-16 39q0 9 3 18t10 17zM24 613q-14 17 -14 38q0 25 17 41.5t41 16.5q28 0 46 -21l404 -481v440q0 26 17.5 44t43.5 18q15 0 27 -6t20 -15l503 -600
q8 -10 11 -19t3 -20q0 -24 -17 -41t-41 -17q-28 0 -46 22l-404 481v-441q0 -26 -17.5 -44t-43.5 -18q-14 0 -26.5 6.5t-20.5 15.5z" />
    <glyph glyph-name="Ncaron.ss05" horiz-adv-x="1153" 
d="M24 613q-14 17 -14 38q0 25 17 41.5t41 16.5q28 0 46 -21l404 -481v440q0 26 17.5 44t43.5 18q15 0 27 -6t20 -15l503 -600q8 -10 11 -19t3 -20q0 -24 -17 -41t-41 -17q-28 0 -46 22l-404 481v-441q0 -26 -17.5 -44t-43.5 -18q-14 0 -26.5 6.5t-20.5 15.5zM151 837
q-21 15 -21 39q0 20 14.5 37t37.5 17q21 0 39 -15l75 -62l76 62q18 15 38 15q22 0 37 -16t15 -38q0 -11 -5 -21.5t-16 -17.5l-115 -88q-5 -5 -12 -8t-18 -3q-8 0 -15.5 3t-14.5 8z" />
    <glyph glyph-name="Ncommaaccent.ss05" horiz-adv-x="1153" 
d="M765 -66q5 13 17.5 22.5t28.5 9.5q20 0 37 -13.5t17 -36.5q0 -10 -5 -22l-40 -102q-5 -13 -18 -22t-29 -9q-20 0 -37 13.5t-17 35.5q0 8 5 23zM24 613q-14 17 -14 38q0 25 17 41.5t41 16.5q28 0 46 -21l404 -481v440q0 26 17.5 44t43.5 18q15 0 27 -6t20 -15l503 -600
q8 -10 11 -19t3 -20q0 -24 -17 -41t-41 -17q-28 0 -46 22l-404 481v-441q0 -26 -17.5 -44t-43.5 -18q-14 0 -26.5 6.5t-20.5 15.5z" />
    <glyph glyph-name="Ntilde.ss05" horiz-adv-x="1153" 
d="M24 613q-14 17 -14 38q0 25 17 41.5t41 16.5q28 0 46 -21l404 -481v440q0 26 17.5 44t43.5 18q15 0 27 -6t20 -15l503 -600q8 -10 11 -19t3 -20q0 -24 -17 -41t-41 -17q-28 0 -46 22l-404 481v-441q0 -26 -17.5 -44t-43.5 -18q-14 0 -26.5 6.5t-20.5 15.5zM253 806
q-12 0 -19 -5t-12 -12.5t-8.5 -15.5t-8.5 -14q-10 -12 -29 -12q-23 0 -39.5 12.5t-16.5 35.5q0 2 1.5 10t3.5 14q6 13 15.5 28.5t23.5 29.5t33 23.5t43 9.5q25 0 44 -9t35 -20.5t28.5 -20.5t23.5 -9q13 0 20.5 6t12.5 14.5t9 17.5t12 15q4 2 9.5 4t12.5 2q23 0 39.5 -12.5
t16.5 -35.5q0 -2 -1.5 -10t-3.5 -14q-6 -13 -15.5 -28.5t-23.5 -29.5t-33 -23.5t-43 -9.5t-43.5 9t-35 20.5t-28 20.5t-23.5 9z" />
    <glyph glyph-name="Racute.ss02" horiz-adv-x="585" 
d="M282 921q17 20 43 20q23 0 39 -15.5t16 -38.5q0 -9 -3 -18.5t-10 -17.5l-82 -98q-17 -20 -43 -20q-23 0 -39 16t-16 39q0 9 3 18t10 17zM64 642q0 24 17.5 41t41.5 17h170q49 0 89.5 -16.5t69.5 -45t45 -67t16 -81.5q0 -36 -10.5 -66.5t-28.5 -53t-41.5 -38t-49.5 -21.5
l-13 -1l186 -222q8 -10 11 -19t3 -20q0 -24 -17 -41t-41 -17q-28 0 -46 22l-225 268h-59v-231q0 -24 -17.5 -41.5t-41.5 -17.5t-41.5 17.5t-17.5 41.5v592zM289 390q22 0 41 8t32.5 21.5t21 31.5t7.5 39q0 42 -28.5 71.5t-73.5 29.5h-107v-201h107z" />
    <glyph glyph-name="Rcaron.ss02" horiz-adv-x="585" 
d="M64 642q0 24 17.5 41t41.5 17h170q49 0 89.5 -16.5t69.5 -45t45 -67t16 -81.5q0 -36 -10.5 -66.5t-28.5 -53t-41.5 -38t-49.5 -21.5l-13 -1l186 -222q8 -10 11 -19t3 -20q0 -24 -17 -41t-41 -17q-28 0 -46 22l-225 268h-59v-231q0 -24 -17.5 -41.5t-41.5 -17.5
t-41.5 17.5t-17.5 41.5v592zM289 390q22 0 41 8t32.5 21.5t21 31.5t7.5 39q0 42 -28.5 71.5t-73.5 29.5h-107v-201h107zM117 837q-21 15 -21 39q0 20 14.5 37t37.5 17q21 0 39 -15l75 -62l76 62q18 15 38 15q22 0 37 -16t15 -38q0 -11 -5 -21.5t-16 -17.5l-115 -88
q-5 -5 -12 -8t-18 -3q-8 0 -15.5 3t-14.5 8z" />
    <glyph glyph-name="Rcommaaccent.ss02" horiz-adv-x="585" 
d="M243 -66q5 13 17.5 22.5t28.5 9.5q20 0 37 -13.5t17 -36.5q0 -10 -5 -22l-40 -102q-5 -13 -18 -22t-29 -9q-20 0 -37 13.5t-17 35.5q0 8 5 23zM64 642q0 24 17.5 41t41.5 17h170q49 0 89.5 -16.5t69.5 -45t45 -67t16 -81.5q0 -36 -10.5 -66.5t-28.5 -53t-41.5 -38
t-49.5 -21.5l-13 -1l186 -222q8 -10 11 -19t3 -20q0 -24 -17 -41t-41 -17q-28 0 -46 22l-225 268h-59v-231q0 -24 -17.5 -41.5t-41.5 -17.5t-41.5 17.5t-17.5 41.5v592zM289 390q22 0 41 8t32.5 21.5t21 31.5t7.5 39q0 42 -28.5 71.5t-73.5 29.5h-107v-201h107z" />
    <glyph glyph-name="Sacute.ss04" horiz-adv-x="711" 
d="M75 110q35 0 74 13t72 41.5t54.5 74.5t21.5 111q0 93 30 159.5t78.5 109t109 62t121.5 19.5h10q23 0 39 -15.5t16 -38.5t-16 -39t-39 -16h-10q-35 0 -74 -13t-72 -42t-54.5 -74.5t-21.5 -110.5q0 -93 -30 -159.5t-78.5 -109t-109 -62.5t-121.5 -20h-10q-23 0 -39 16
t-16 39t16 39t39 16h10zM554 921q17 20 43 20q23 0 39 -15.5t16 -38.5q0 -9 -3 -18.5t-10 -17.5l-82 -98q-17 -20 -43 -20q-23 0 -39 16t-16 39q0 9 3 18t10 17z" />
    <glyph glyph-name="Scaron.ss04" horiz-adv-x="711" 
d="M75 110q35 0 74 13t72 41.5t54.5 74.5t21.5 111q0 93 30 159.5t78.5 109t109 62t121.5 19.5h10q23 0 39 -15.5t16 -38.5t-16 -39t-39 -16h-10q-35 0 -74 -13t-72 -42t-54.5 -74.5t-21.5 -110.5q0 -93 -30 -159.5t-78.5 -109t-109 -62.5t-121.5 -20h-10q-23 0 -39 16
t-16 39t16 39t39 16h10zM387 837q-21 15 -21 39q0 20 14.5 37t37.5 17q21 0 39 -15l75 -62l76 62q18 15 38 15q22 0 37 -16t15 -38q0 -11 -5 -21.5t-16 -17.5l-115 -88q-5 -5 -12 -8t-18 -3q-8 0 -15.5 3t-14.5 8z" />
    <glyph glyph-name="Scedilla.ss04" horiz-adv-x="711" 
d="M75 110q35 0 74 13t72 41.5t54.5 74.5t21.5 111q0 93 30 159.5t78.5 109t109 62t121.5 19.5h10q23 0 39 -15.5t16 -38.5t-16 -39t-39 -16h-10q-35 0 -74 -13t-72 -42t-54.5 -74.5t-21.5 -110.5q0 -61 -13.5 -110.5t-36.5 -88.5t-54.5 -67t-68.5 -47v-88q0 -63 -37 -101.5
t-99 -38.5h-34q-20 0 -35 14.5t-15 36.5q0 20 13.5 35t36.5 15h17q23 0 37 13t14 39v42q-17 -2 -32.5 -3.5t-31.5 -1.5h-10q-23 0 -39 16t-16 39t16 39t39 16h10z" />
    </font>
</defs>
</svg>
